<svg width="107" height="106" viewBox="0 0 107 106" fill="none" xmlns="http://www.w3.org/2000/svg">
<path d="M53.3044 85.4552C53.3044 88.0099 55.3835 90.1106 57.9186 89.7947C65.5343 88.8457 72.7139 85.5641 78.441 80.3435C85.3136 74.0787 89.5991 65.4733 90.4578 56.2135C91.3165 46.9537 88.6864 37.7069 83.0829 30.2852C77.4794 22.8635 69.3064 17.8017 60.1655 16.0917C51.0245 14.3817 41.5745 16.1467 33.667 21.041C25.7596 25.9353 19.9648 33.6059 17.4181 42.5499C14.8714 51.494 15.7563 61.0666 19.8995 69.3922C23.3522 76.33 28.86 81.9851 35.6176 85.6228C37.8671 86.8338 40.5649 85.6268 41.4884 83.2448V83.2448C42.4119 80.8628 41.2026 78.2145 39.0045 76.9126C34.3783 74.1726 30.6065 70.142 28.1821 65.2703C25.0662 59.0091 24.4007 51.8099 26.3159 45.0835C28.2312 38.3571 32.5892 32.5884 38.536 28.9076C44.4829 25.2269 51.5898 23.8994 58.4643 25.1854C65.3388 26.4715 71.4853 30.2782 75.6995 35.8598C79.9136 41.4413 81.8916 48.3953 81.2458 55.3592C80.6 62.3231 77.3771 68.7949 72.2085 73.5063C68.187 77.1721 63.2132 79.5667 57.9094 80.4491C55.3893 80.8684 53.3044 82.9005 53.3044 85.4552V85.4552Z" fill="#AB71F4" fill-opacity="0.2"/>
<path d="M76.4189 75.8814C78.2253 77.6879 78.2407 80.6432 76.2247 82.2124C72.2053 85.3411 67.5742 87.624 62.61 88.9023C56.1473 90.5664 49.3565 90.4668 42.9454 88.6138C36.5343 86.7608 30.7374 83.2223 26.159 78.367C21.5805 73.5118 18.388 67.5174 16.9142 61.0086C15.4404 54.4999 15.7391 47.715 17.7794 41.361C19.8196 35.0069 23.5266 29.3164 28.5141 24.8823C33.5016 20.4483 39.5871 17.433 46.1363 16.1507C51.1669 15.1658 56.3297 15.231 61.3048 16.3229C63.8001 16.8706 65.0594 19.5443 64.2073 21.9527V21.9527C63.3553 24.3612 60.7121 25.5817 58.1964 25.1365C54.8053 24.5363 51.3193 24.5631 47.9139 25.2298C42.9885 26.1942 38.412 28.4618 34.6611 31.7965C30.9102 35.1312 28.1223 39.4108 26.5879 44.1893C25.0536 48.9679 24.8289 54.0705 25.9373 58.9655C27.0457 63.8604 29.4466 68.3685 32.8899 72.0199C36.3331 75.6714 40.6927 78.3325 45.5142 79.7261C50.3357 81.1196 55.4427 81.1945 60.303 79.943C63.6635 79.0777 66.8211 77.6002 69.6228 75.5977C71.7012 74.1122 74.6124 74.0749 76.4189 75.8814V75.8814Z" fill="#48B2FF"/>
<path d="M45.6364 46.656L39.5204 61H37.4964L43.7004 46.854H35.2084V45.138H45.6364V46.656ZM57.9982 46.832H50.2762V51.848C50.6135 51.3787 51.1122 50.9973 51.7722 50.704C52.4322 50.396 53.1435 50.242 53.9062 50.242C55.1235 50.242 56.1135 50.4987 56.8762 51.012C57.6389 51.5107 58.1815 52.1633 58.5042 52.97C58.8415 53.762 59.0102 54.6053 59.0102 55.5C59.0102 56.556 58.8122 57.502 58.4162 58.338C58.0202 59.174 57.4115 59.834 56.5902 60.318C55.7835 60.802 54.7789 61.044 53.5762 61.044C52.0362 61.044 50.7895 60.648 49.8362 59.856C48.8829 59.064 48.3035 58.008 48.0982 56.688H50.0562C50.2469 57.524 50.6502 58.1767 51.2662 58.646C51.8822 59.1153 52.6595 59.35 53.5982 59.35C54.7569 59.35 55.6295 59.0053 56.2162 58.316C56.8029 57.612 57.0962 56.688 57.0962 55.544C57.0962 54.4 56.8029 53.52 56.2162 52.904C55.6295 52.2733 54.7642 51.958 53.6202 51.958C52.8429 51.958 52.1609 52.1487 51.5742 52.53C51.0022 52.8967 50.5842 53.4027 50.3202 54.048H48.4282V45.072H57.9982V46.832ZM61.2306 48.68C61.2306 47.6827 61.5313 46.8907 62.1326 46.304C62.734 45.7027 63.504 45.402 64.4426 45.402C65.3813 45.402 66.1513 45.7027 66.7526 46.304C67.354 46.8907 67.6546 47.6827 67.6546 48.68C67.6546 49.692 67.354 50.4987 66.7526 51.1C66.1513 51.6867 65.3813 51.98 64.4426 51.98C63.504 51.98 62.734 51.6867 62.1326 51.1C61.5313 50.4987 61.2306 49.692 61.2306 48.68ZM74.0786 45.644L65.1686 61H63.1886L72.0986 45.644H74.0786ZM64.4426 46.634C63.944 46.634 63.548 46.81 63.2546 47.162C62.976 47.4993 62.8366 48.0053 62.8366 48.68C62.8366 49.3547 62.976 49.868 63.2546 50.22C63.548 50.572 63.944 50.748 64.4426 50.748C64.9413 50.748 65.3373 50.572 65.6306 50.22C65.924 49.8533 66.0706 49.34 66.0706 48.68C66.0706 48.0053 65.924 47.4993 65.6306 47.162C65.3373 46.81 64.9413 46.634 64.4426 46.634ZM69.6566 57.964C69.6566 56.952 69.9573 56.1527 70.5586 55.566C71.16 54.9647 71.93 54.664 72.8686 54.664C73.8073 54.664 74.57 54.9647 75.1566 55.566C75.758 56.1527 76.0586 56.952 76.0586 57.964C76.0586 58.9613 75.758 59.7607 75.1566 60.362C74.57 60.9633 73.8073 61.264 72.8686 61.264C71.93 61.264 71.16 60.9707 70.5586 60.384C69.9573 59.7827 69.6566 58.976 69.6566 57.964ZM72.8466 55.918C72.348 55.918 71.952 56.094 71.6586 56.446C71.3653 56.7833 71.2186 57.2893 71.2186 57.964C71.2186 58.624 71.3653 59.13 71.6586 59.482C71.952 59.8193 72.348 59.988 72.8466 59.988C73.3453 59.988 73.7413 59.8193 74.0346 59.482C74.328 59.13 74.4746 58.624 74.4746 57.964C74.4746 57.2893 74.328 56.7833 74.0346 56.446C73.7413 56.094 73.3453 55.918 72.8466 55.918Z" fill="#1EA83C"/>
</svg>
