<svg width="15" height="13" viewBox="0 0 15 13" fill="none" xmlns="http://www.w3.org/2000/svg">
<path d="M14.6371 2.66409C14.4044 2.14276 14.0688 1.67033 13.6491 1.27326C13.2292 0.875002 12.734 0.558512 12.1906 0.341001C11.6272 0.114559 11.0228 -0.0013468 10.4127 1.18067e-05C9.55665 1.18067e-05 8.72149 0.226778 7.99571 0.655113C7.82208 0.757578 7.65713 0.870121 7.50086 0.992743C7.34459 0.870121 7.17964 0.757578 7.00601 0.655113C6.28023 0.226778 5.44507 1.18067e-05 4.58907 1.18067e-05C3.97268 1.18067e-05 3.37539 0.114235 2.81109 0.341001C2.26588 0.559368 1.77451 0.873481 1.35259 1.27326C0.932393 1.66989 0.596731 2.14242 0.364625 2.66409C0.123278 3.20665 0 3.7828 0 4.37575C0 4.93511 0.118069 5.51798 0.352471 6.11093C0.548674 6.60646 0.829956 7.12046 1.18937 7.6395C1.75888 8.4609 2.54196 9.31757 3.51429 10.186C5.12559 11.6255 6.72126 12.62 6.78897 12.6603L7.20048 12.9156C7.38279 13.0281 7.61719 13.0281 7.7995 12.9156L8.21101 12.6603C8.27873 12.6183 9.87266 11.6255 11.4857 10.186C12.458 9.31757 13.2411 8.4609 13.8106 7.6395C14.17 7.12046 14.453 6.60646 14.6475 6.11093C14.8819 5.51798 15 4.93511 15 4.37575C15.0017 3.7828 14.8784 3.20665 14.6371 2.66409ZM7.50086 11.5869C7.50086 11.5869 1.3196 7.75541 1.3196 4.37575C1.3196 2.66409 2.7833 1.27662 4.58907 1.27662C5.85831 1.27662 6.95913 1.96196 7.50086 2.96309C8.04259 1.96196 9.14341 1.27662 10.4127 1.27662C12.2184 1.27662 13.6821 2.66409 13.6821 4.37575C13.6821 7.75541 7.50086 11.5869 7.50086 11.5869Z" fill="white"/>
</svg>
