<svg width="22" height="22" viewBox="0 0 22 22" fill="none" xmlns="http://www.w3.org/2000/svg">
<path d="M16.238 6.25583H17.1904M5.2856 1.47778H16.7142C18.8181 1.47778 20.5237 3.18915 20.5237 5.30022V16.7675C20.5237 18.8786 18.8181 20.59 16.7142 20.59H5.2856C3.18166 20.59 1.47607 18.8786 1.47607 16.7675V5.30022C1.47607 3.18915 3.18166 1.47778 5.2856 1.47778ZM10.9999 14.8563C8.89594 14.8563 7.19036 13.145 7.19036 11.0339C7.19036 8.9228 8.89594 7.21144 10.9999 7.21144C13.1038 7.21144 14.8094 8.9228 14.8094 11.0339C14.8094 13.145 13.1038 14.8563 10.9999 14.8563Z" stroke="#F0F4FF" stroke-width="1.67232"/>
</svg>
