<svg width="22" height="21" viewBox="0 0 22 21" fill="none" xmlns="http://www.w3.org/2000/svg">
<path d="M20.4943 1.91113L21.3286 1.856C21.3065 1.52029 21.0852 1.23057 20.7672 1.12076C20.4492 1.01095 20.0963 1.10245 19.8717 1.35295L20.4943 1.91113ZM19.972 5.9505C19.972 5.4887 19.5976 5.11434 19.1359 5.11434C18.6741 5.11434 18.2997 5.4887 18.2997 5.9505H19.972ZM10.9999 7.16698V8.00314H11.836V7.16698H10.9999ZM2.83452 1.91113L3.61791 1.6188C3.50145 1.30671 3.21086 1.09352 2.8782 1.07612C2.54554 1.05871 2.23429 1.24043 2.0859 1.53866L2.83452 1.91113ZM8.14274 14.3341L8.73545 14.9238C8.93945 14.7188 9.02302 14.423 8.95644 14.1415C8.88985 13.8601 8.68256 13.6331 8.40833 13.5412L8.14274 14.3341ZM1.47607 16.9279V16.0917C1.10796 16.0917 0.783145 16.3324 0.67607 16.6846C0.568995 17.0368 0.704849 17.4176 1.01067 17.6225L1.47607 16.9279ZM18.0966 3.23995L17.4754 3.7997L17.7769 4.13428L18.2222 4.06662L18.0966 3.23995ZM19.66 1.96626C19.7296 3.02053 19.6634 3.64103 19.502 4.09751C19.3468 4.53639 19.0753 4.90486 18.5563 5.40386L19.7154 6.60935C20.3189 6.02904 20.799 5.4459 21.0787 4.65493C21.3521 3.88156 21.4038 2.99398 21.3286 1.856L19.66 1.96626ZM19.972 6.94514V6.0066H18.2997V6.94514H19.972ZM19.972 6.0066V5.9505H18.2997V6.0066H19.972ZM10.1637 6.21137V7.16698H11.836V6.21137H10.1637ZM15.1163 1.07497C12.3278 1.07497 10.1637 3.5032 10.1637 6.21137H11.836C11.836 4.33385 13.3417 2.74729 15.1163 2.74729V1.07497ZM18.2997 6.94514C18.2997 12.7698 13.4222 17.7981 7.66655 17.7981V19.4705C14.3837 19.4705 19.972 13.655 19.972 6.94514H18.2997ZM2.05113 2.20346C2.81617 4.25365 5.66717 8.00314 10.9999 8.00314V6.33083C6.5518 6.33083 4.21131 3.20903 3.61791 1.6188L2.05113 2.20346ZM2.0859 1.53866C0.649096 4.42647 0.386972 7.27814 1.40553 9.72389C2.42428 12.1701 4.6566 14.0481 7.87715 15.1269L8.40833 13.5412C5.51588 12.5723 3.73564 10.9691 2.94932 9.08097C2.16279 7.19235 2.30305 4.85642 3.58314 2.2836L2.0859 1.53866ZM7.55003 13.7443C6.76318 14.535 4.46504 16.0917 1.47607 16.0917V17.764C5.00764 17.764 7.71107 15.9533 8.73545 14.9238L7.55003 13.7443ZM18.7177 2.6802C17.8309 1.69609 16.5457 1.07497 15.1163 1.07497V2.74729C16.0509 2.74729 16.8913 3.15153 17.4754 3.7997L18.7177 2.6802ZM18.2222 4.06662C19.2947 3.90363 20.3366 3.33959 21.1169 2.46931L19.8717 1.35295C19.3397 1.94632 18.6443 2.31095 17.9709 2.41328L18.2222 4.06662ZM1.01067 17.6225C3.22956 19.1091 5.36729 19.4705 7.66655 19.4705V17.7981C5.57559 17.7981 3.79792 17.4769 1.94147 16.2332L1.01067 17.6225Z" fill="#F0F4FF"/>
</svg>
