<svg width="20" height="21" viewBox="0 0 20 21" fill="none" xmlns="http://www.w3.org/2000/svg">
<g clip-path="url(#clip0_14_898)">
<path d="M18.7834 5.36823C18.6844 4.9714 18.4828 4.6078 18.1989 4.31417C17.915 4.02054 17.559 3.80728 17.1667 3.69591C15.7334 3.34473 10 3.34473 10 3.34473C10 3.34473 4.2667 3.34473 2.83336 3.72936C2.44107 3.84072 2.08501 4.05399 1.80115 4.34762C1.51729 4.64125 1.31569 5.00484 1.2167 5.40168C0.954374 6.86124 0.826059 8.34187 0.833362 9.82495C0.824012 11.3192 0.952335 12.8111 1.2167 14.2817C1.32583 14.6662 1.53195 15.0159 1.81515 15.2972C2.09835 15.5784 2.44905 15.7816 2.83336 15.8871C4.2667 16.2717 10 16.2717 10 16.2717C10 16.2717 15.7334 16.2717 17.1667 15.8871C17.559 15.7757 17.915 15.5625 18.1989 15.2688C18.4828 14.9752 18.6844 14.6116 18.7834 14.2148C19.0437 12.7662 19.172 11.2969 19.1667 9.82495C19.176 8.3307 19.0477 6.83878 18.7834 5.36823V5.36823Z" stroke="#F0F4FF" stroke-width="1.67232" stroke-linecap="round" stroke-linejoin="round"/>
<path d="M8.12524 12.5591L12.9169 9.82481L8.12524 7.09058V12.5591Z" stroke="#F0F4FF" stroke-width="1.67232" stroke-linecap="round" stroke-linejoin="round"/>
</g>
<defs>
<clipPath id="clip0_14_898">
<rect width="20" height="20.0678" fill="white"/>
</clipPath>
</defs>
</svg>
