<svg width="127" height="127" viewBox="0 0 127 127" fill="none" xmlns="http://www.w3.org/2000/svg">
<path d="M37.0417 111.125V100.542H58.2083V84.1375C53.8868 83.1674 50.0274 81.3364 46.6302 78.6448C43.2329 75.9531 40.7423 72.5805 39.1583 68.5271C32.5438 67.7333 27.0087 64.8458 22.5531 59.8646C18.0975 54.8834 15.8715 49.0396 15.875 42.3333V26.4583H37.0417V15.875H89.9583V26.4583H111.125V42.3333C111.125 49.0361 108.897 54.8799 104.442 59.8646C99.986 64.8494 94.4527 67.7369 87.8417 68.5271C86.2542 72.584 83.7618 75.9583 80.3645 78.65C76.9673 81.3417 73.1097 83.1709 68.7917 84.1375V100.542H89.9583V111.125H37.0417ZM37.0417 57.15V37.0417H26.4583V42.3333C26.4583 45.6847 27.4285 48.7063 29.3688 51.398C31.309 54.0897 33.8667 56.007 37.0417 57.15ZM89.9583 57.15C93.1333 56.0035 95.691 54.0844 97.6313 51.3927C99.5715 48.701 100.542 45.6812 100.542 42.3333V37.0417H89.9583V57.15Z" fill="#D27C2C"/>
<path d="M57.9646 47.3832V52.504H62.8838V56.6694H54.792V64.2135H62.8838H71.2403H72.7752V43.2178V35.6741H62.8838H54.2246V43.2178H62.8838V47.3832H57.9646Z" fill="#D99E48"/>
</svg>
