<svg width="127" height="127" viewBox="0 0 127 127" fill="none" xmlns="http://www.w3.org/2000/svg">
<path d="M37.0417 111.125V100.542H58.2083V84.1375C53.8868 83.1674 50.0274 81.3364 46.6302 78.6448C43.2329 75.9531 40.7423 72.5805 39.1583 68.5271C32.5438 67.7333 27.0087 64.8458 22.5531 59.8646C18.0975 54.8834 15.8715 49.0396 15.875 42.3333V26.4583H37.0417V15.875H89.9583V26.4583H111.125V42.3333C111.125 49.0361 108.897 54.8799 104.442 59.8646C99.986 64.8494 94.4527 67.7369 87.8417 68.5271C86.2542 72.584 83.7618 75.9583 80.3645 78.65C76.9673 81.3417 73.1097 83.1709 68.7917 84.1375V100.542H89.9583V111.125H37.0417ZM37.0417 57.15V37.0417H26.4583V42.3333C26.4583 45.6847 27.4285 48.7063 29.3688 51.398C31.309 54.0897 33.8667 56.007 37.0417 57.15ZM89.9583 57.15C93.1333 56.0035 95.691 54.0844 97.6313 51.3927C99.5715 48.701 100.542 45.6812 100.542 42.3333V37.0417H89.9583V57.15Z" fill="#D6D3D3"/>
<path d="M72.775 39.9564C72.775 37.5912 70.6928 35.6741 68.1249 35.6741H64.5833H54.2246V43.2179H62.3968C63.4357 43.2179 64.1397 44.1925 63.738 45.0749L55.0273 64.2135H61.9555H63.2192H67.9972H72.775V56.6696H67.9972H66.6527L72.1049 44.6906C72.5472 43.7184 72.7752 42.675 72.7752 41.621L72.775 39.9564Z" fill="#F1F1F1"/>
</svg>
