<svg width="26" height="32" viewBox="0 0 26 32" fill="none" xmlns="http://www.w3.org/2000/svg">
<path d="M12.6667 16.0833C10.948 16.0833 9.54175 14.677 9.54175 12.9583C9.54175 11.2396 10.948 9.83331 12.6667 9.83331C14.3855 9.83331 15.7917 11.2396 15.7917 12.9583C15.7917 14.677 14.3855 16.0833 12.6667 16.0833ZM22.0417 13.2708C22.0417 7.59895 17.9011 3.58335 12.6667 3.58335C7.43237 3.58335 3.29175 7.59895 3.29175 13.2708C3.29175 16.927 6.33862 21.7707 12.6667 27.5519C18.9949 21.7707 22.0417 16.927 22.0417 13.2708ZM12.6667 0.458374C19.2292 0.458374 25.1667 5.48959 25.1667 13.2708C25.1667 18.4583 20.9949 24.5988 12.6667 31.7082C4.33862 24.5988 0.166748 18.4583 0.166748 13.2708C0.166748 5.48959 6.10425 0.458374 12.6667 0.458374Z" fill="white" fill-opacity="0.75"/>
</svg>
