<svg width="117" height="117" viewBox="0 0 117 117" fill="none" xmlns="http://www.w3.org/2000/svg">
<g opacity="0.75" filter="url(#filter0_f_31_618)">
<path fill-rule="evenodd" clip-rule="evenodd" d="M81 45C81 40.0294 76.9706 36 72 36H45C40.0294 36 36 40.0294 36 45V72C36 76.9706 40.0294 81 45 81H72C76.9706 81 81 76.9706 81 72V45ZM51.6898 72.3898C52.1681 72.6011 53.0113 72.7067 54.2195 72.7067H58.6748C59.3293 72.7331 60.0215 72.7463 60.7514 72.7463H63.2056C64.288 72.7463 65.018 72.6275 65.3955 72.3898C65.7983 72.1256 65.9996 71.7426 65.9996 71.2407C65.9996 70.8709 65.8864 70.5672 65.6598 70.3294C65.4333 70.0653 65.0557 69.7615 64.5271 69.4181C63.8978 68.9955 63.4196 68.6125 63.0924 68.2691C62.7903 67.8993 62.5763 67.4767 62.4505 67.0012C62.3246 66.5258 62.2617 65.905 62.2617 65.139V49.7659C62.2617 49.3697 62.2995 49.0791 62.375 48.8942C62.4505 48.6829 62.5638 48.5376 62.7148 48.4584C62.8658 48.3527 63.0798 48.2999 63.3567 48.2999H64.2628C64.6656 48.2999 65.0054 48.432 65.2822 48.6961C65.5843 48.9338 65.8486 49.2904 66.0751 49.7659C66.3017 50.2149 66.6163 50.9017 67.0191 51.8262L67.1701 52.1828C67.6232 53.2658 68.0637 54.0318 68.4916 54.4808C68.9447 54.9299 69.4355 55.1544 69.9641 55.1544C70.7192 55.1544 71.1975 54.8638 71.3988 54.2827C71.6002 53.7016 71.6002 52.9488 71.3988 52.0243C71.2226 51.0734 70.908 49.8715 70.4549 48.4187C70.1277 47.3093 69.8131 46.4509 69.511 45.8434C69.2341 45.2094 68.9572 44.7604 68.6804 44.4962C68.4035 44.2321 68.1014 44.1 67.7742 44.1C67.4721 44.1 67.0694 44.2057 66.566 44.417C66.1129 44.6019 65.6724 44.7472 65.2445 44.8528C64.8418 44.9321 64.2754 44.9717 63.5454 44.9717H53.1623C52.6086 44.9717 52.1303 44.9321 51.7276 44.8528C51.35 44.7472 50.9598 44.6019 50.5571 44.417C50.3306 44.3377 50.0914 44.2717 49.8397 44.2189C49.6132 44.1396 49.3992 44.1 49.1979 44.1C48.8455 44.1 48.5057 44.2849 48.1784 44.6547C47.8764 44.9981 47.5743 45.5 47.2723 46.1603C46.9702 46.7943 46.6933 47.5471 46.4416 48.4187C46.0389 49.7923 45.7494 50.9545 45.5732 51.9054C45.397 52.8564 45.4096 53.6356 45.611 54.2431C45.8375 54.8506 46.3409 55.1544 47.1212 55.1544C47.675 55.1544 48.1533 54.9299 48.556 54.4808C48.9587 54.0318 49.3866 53.2658 49.8397 52.1828L49.9152 51.9847C50.3432 50.9545 50.6704 50.2149 50.8969 49.7659C51.1486 49.2904 51.4255 48.9338 51.7276 48.6961C52.0296 48.432 52.3946 48.2999 52.8225 48.2999H53.7287C53.9552 48.2999 54.144 48.3527 54.295 48.4584C54.4461 48.5376 54.5593 48.6829 54.6348 48.8942C54.7104 49.1055 54.7481 49.3961 54.7481 49.7659V65.139C54.7481 65.8786 54.6852 66.4861 54.5593 66.9616C54.4335 67.4371 54.2069 67.8597 53.8797 68.2295C53.5776 68.5993 53.112 68.9955 52.4827 69.4181C52.0548 69.7351 51.7024 70.0389 51.4255 70.3294C51.1486 70.5936 51.0102 70.8841 51.0102 71.2011C51.0102 71.7822 51.2367 72.1784 51.6898 72.3898Z" fill="url(#paint0_linear_31_618)"/>
</g>
<defs>
<filter id="filter0_f_31_618" x="0.473679" y="0.473679" width="116.053" height="116.053" filterUnits="userSpaceOnUse" color-interpolation-filters="sRGB">
<feFlood flood-opacity="0" result="BackgroundImageFix"/>
<feBlend mode="normal" in="SourceGraphic" in2="BackgroundImageFix" result="shape"/>
<feGaussianBlur stdDeviation="17.7632" result="effect1_foregroundBlur_31_618"/>
</filter>
<linearGradient id="paint0_linear_31_618" x1="36" y1="40.5" x2="83.129" y2="43.151" gradientUnits="userSpaceOnUse">
<stop stop-color="#F7C0EC"/>
<stop offset="1" stop-color="#A7BDEA"/>
</linearGradient>
</defs>
</svg>
