<svg width="45" height="45" viewBox="0 0 45 45" fill="none" xmlns="http://www.w3.org/2000/svg">
<path fill-rule="evenodd" clip-rule="evenodd" d="M45 9C45 4.02944 40.9706 0 36 0H9C4.02944 0 0 4.02944 0 9V36C0 40.9706 4.02944 45 9 45H36C40.9706 45 45 40.9706 45 36V9ZM15.6898 36.3898C16.1681 36.6011 17.0113 36.7067 18.2195 36.7067H22.6748C23.3293 36.7331 24.0215 36.7463 24.7514 36.7463H27.2056C28.288 36.7463 29.018 36.6275 29.3955 36.3898C29.7983 36.1256 29.9996 35.7426 29.9996 35.2407C29.9996 34.8709 29.8864 34.5672 29.6598 34.3294C29.4333 34.0653 29.0557 33.7615 28.5271 33.4181C27.8978 32.9955 27.4196 32.6125 27.0924 32.2691C26.7903 31.8993 26.5763 31.4767 26.4505 31.0012C26.3246 30.5258 26.2617 29.905 26.2617 29.139V13.7659C26.2617 13.3697 26.2995 13.0791 26.375 12.8942C26.4505 12.6829 26.5638 12.5376 26.7148 12.4584C26.8658 12.3527 27.0798 12.2999 27.3567 12.2999H28.2628C28.6656 12.2999 29.0054 12.432 29.2822 12.6961C29.5843 12.9338 29.8486 13.2904 30.0751 13.7659C30.3017 14.2149 30.6163 14.9017 31.0191 15.8262L31.1701 16.1828C31.6232 17.2658 32.0637 18.0318 32.4916 18.4808C32.9447 18.9299 33.4355 19.1544 33.9641 19.1544C34.7192 19.1544 35.1975 18.8638 35.3988 18.2827C35.6002 17.7016 35.6002 16.9488 35.3988 16.0243C35.2226 15.0734 34.908 13.8715 34.4549 12.4187C34.1277 11.3093 33.8131 10.4509 33.511 9.84335C33.2341 9.20941 32.9572 8.76037 32.6804 8.49622C32.4035 8.23208 32.1014 8.10001 31.7742 8.10001C31.4721 8.10001 31.0694 8.20566 30.566 8.41698C30.1129 8.60188 29.6724 8.74716 29.2445 8.85282C28.8418 8.93206 28.2754 8.97168 27.5454 8.97168H17.1623C16.6086 8.97168 16.1303 8.93206 15.7276 8.85282C15.35 8.74716 14.9598 8.60188 14.5571 8.41698C14.3306 8.33774 14.0914 8.2717 13.8397 8.21887C13.6132 8.13963 13.3992 8.10001 13.1979 8.10001C12.8455 8.10001 12.5057 8.28491 12.1784 8.65471C11.8764 8.99809 11.5743 9.49997 11.2723 10.1603C10.9702 10.7943 10.6933 11.5471 10.4416 12.4187C10.0389 13.7923 9.74941 14.9545 9.57321 15.9054C9.39701 16.8564 9.4096 17.6356 9.61097 18.2431C9.83751 18.8506 10.3409 19.1544 11.1212 19.1544C11.675 19.1544 12.1533 18.9299 12.556 18.4808C12.9587 18.0318 13.3866 17.2658 13.8397 16.1828L13.9152 15.9847C14.3432 14.9545 14.6704 14.2149 14.8969 13.7659C15.1486 13.2904 15.4255 12.9338 15.7276 12.6961C16.0296 12.432 16.3946 12.2999 16.8225 12.2999H17.7287C17.9552 12.2999 18.144 12.3527 18.295 12.4584C18.4461 12.5376 18.5593 12.6829 18.6348 12.8942C18.7104 13.1055 18.7481 13.3961 18.7481 13.7659V29.139C18.7481 29.8786 18.6852 30.4861 18.5593 30.9616C18.4335 31.4371 18.2069 31.8597 17.8797 32.2295C17.5776 32.5993 17.112 32.9955 16.4827 33.4181C16.0548 33.7351 15.7024 34.0389 15.4255 34.3294C15.1486 34.5936 15.0102 34.8841 15.0102 35.2011C15.0102 35.7822 15.2367 36.1784 15.6898 36.3898Z" fill="url(#paint0_linear_31_617)"/>
<defs>
<linearGradient id="paint0_linear_31_617" x1="-2.27988e-07" y1="4.5" x2="47.129" y2="7.15101" gradientUnits="userSpaceOnUse">
<stop stop-color="#F7C0EC"/>
<stop offset="1" stop-color="#A7BDEA"/>
</linearGradient>
</defs>
</svg>
