<svg width="25" height="25" viewBox="0 0 25 25" fill="none" xmlns="http://www.w3.org/2000/svg">
<path d="M17.1617 15.9692C18.5552 14.2805 19.4353 12.1145 19.4353 9.72834C19.4353 4.36858 15.0715 0 9.71764 0C4.36377 0 0 4.36858 0 9.72834C0 15.0881 4.36377 19.4567 9.71764 19.4567C12.0645 19.4567 14.2648 18.6123 15.9516 17.1806L23.5057 24.743C23.689 24.9266 23.9091 25 24.1291 25C24.3491 25 24.5691 24.9266 24.7525 24.743C25.0825 24.4126 25.0825 23.8253 24.7525 23.4949L17.1617 15.9692ZM9.68097 17.6946C5.28053 17.6946 1.72351 14.1336 1.72351 9.72834C1.72351 5.32306 5.28053 1.76212 9.68097 1.76212C14.0814 1.76212 17.6384 5.32306 17.6384 9.72834C17.6384 14.1336 14.0814 17.6946 9.68097 17.6946Z" fill="white"/>
</svg>
