<svg width="18" height="16" viewBox="0 0 18 16" fill="none" xmlns="http://www.w3.org/2000/svg">
<path d="M1.59202 0.717987L1.36502 0.272484L1.36502 0.272484L1.59202 0.717987ZM0.717987 1.59202L0.272484 1.36502L0.272484 1.36502L0.717987 1.59202ZM0.717987 14.408L1.16349 14.181L1.16349 14.181L0.717987 14.408ZM1.59202 15.282L1.81901 14.8365L1.81901 14.8365L1.59202 15.282ZM16.408 15.282L16.181 14.8365L16.181 14.8365L16.408 15.282ZM17.282 14.408L16.8365 14.181L16.8365 14.181L17.282 14.408ZM17.2692 10.4187L17.2546 9.91896L17.2546 9.91896L17.2692 10.4187ZM17.0356 10.4256L17.0502 10.9254L17.0502 10.9254L17.0356 10.4256ZM17.282 1.59202L16.8365 1.81901L16.8365 1.81901L17.282 1.59202ZM16.408 0.717987L16.181 1.16349L16.181 1.16349L16.408 0.717987ZM3.7 1H9.25V0H3.7V1ZM1.81901 1.16349C1.95069 1.0964 2.12454 1.05031 2.42712 1.02559C2.73554 1.00039 3.1317 1 3.7 1V0C3.1482 0 2.70428 -0.000388853 2.34569 0.0289089C1.98126 0.0586836 1.66117 0.12159 1.36502 0.272484L1.81901 1.16349ZM1.16349 1.81901C1.3073 1.53677 1.53677 1.3073 1.81901 1.16349L1.36502 0.272484C0.894619 0.512167 0.512167 0.894619 0.272484 1.36502L1.16349 1.81901ZM1 3.7C1 3.1317 1.00039 2.73554 1.02559 2.42712C1.05031 2.12454 1.0964 1.95069 1.16349 1.81901L0.272484 1.36502C0.12159 1.66117 0.0586836 1.98126 0.0289089 2.34569C-0.000388853 2.70428 0 3.1482 0 3.7H1ZM1 5.26923V3.7H0V5.26923H1ZM0.730769 5C0.879461 5 1 5.12054 1 5.26923H0C0 5.67282 0.327177 6 0.730769 6V5ZM1 5H0.730769V6H1V5ZM4 8C4 6.34315 2.65685 5 1 5V6C2.10457 6 3 6.89543 3 8H4ZM1 11C2.65685 11 4 9.65685 4 8H3C3 9.10457 2.10457 10 1 10V11ZM0.730769 11H1V10H0.730769V11ZM1 10.7308C1 10.8795 0.879462 11 0.730769 11V10C0.327176 10 0 10.3272 0 10.7308H1ZM1 12.3V10.7308H0V12.3H1ZM1.16349 14.181C1.0964 14.0493 1.05031 13.8755 1.02559 13.5729C1.00039 13.2645 1 12.8683 1 12.3H0C0 12.8518 -0.000388853 13.2957 0.0289089 13.6543C0.0586836 14.0187 0.12159 14.3388 0.272484 14.635L1.16349 14.181ZM1.81901 14.8365C1.53677 14.6927 1.3073 14.4632 1.16349 14.181L0.272484 14.635C0.512167 15.1054 0.894619 15.4878 1.36502 15.7275L1.81901 14.8365ZM3.7 15C3.1317 15 2.73554 14.9996 2.42712 14.9744C2.12454 14.9497 1.95069 14.9036 1.81901 14.8365L1.36502 15.7275C1.66117 15.8784 1.98126 15.9413 2.34569 15.9711C2.70428 16.0004 3.1482 16 3.7 16V15ZM9.25 15H3.7V16H9.25V15ZM10 15.25V15H9V15.25H10ZM10 15C10 14.7239 10.2239 14.5 10.5 14.5V13.5C9.67157 13.5 9 14.1716 9 15H10ZM10.5 14.5C10.7761 14.5 11 14.7239 11 15H12C12 14.1716 11.3284 13.5 10.5 13.5V14.5ZM11 15V15.25H12V15H11ZM14.3 15H11.75V16H14.3V15ZM16.181 14.8365C16.0493 14.9036 15.8755 14.9497 15.5729 14.9744C15.2645 14.9996 14.8683 15 14.3 15V16C14.8518 16 15.2957 16.0004 15.6543 15.9711C16.0187 15.9413 16.3388 15.8784 16.635 15.7275L16.181 14.8365ZM16.8365 14.181C16.6927 14.4632 16.4632 14.6927 16.181 14.8365L16.635 15.7275C17.1054 15.4878 17.4878 15.1054 17.7275 14.635L16.8365 14.181ZM17 12.3C17 12.8683 16.9996 13.2645 16.9744 13.5729C16.9497 13.8755 16.9036 14.0493 16.8365 14.181L17.7275 14.635C17.8784 14.3388 17.9413 14.0187 17.9711 13.6543C18.0004 13.2957 18 12.8518 18 12.3H17ZM17 10.6428V12.3H18V10.6428H17ZM17.2839 10.9185C17.1285 10.9231 17 10.7983 17 10.6428H18C18 10.2346 17.6627 9.90698 17.2546 9.91896L17.2839 10.9185ZM17.0502 10.9254L17.2839 10.9185L17.2546 9.91896L17.0209 9.92581L17.0502 10.9254ZM14 7.96333C14 9.63398 15.3803 10.9744 17.0502 10.9254L17.0209 9.92581C15.9145 9.95828 15 9.07021 15 7.96333H14ZM16.9633 5C15.3267 5 14 6.32673 14 7.96333H15C15 6.87901 15.879 6 16.9633 6V5ZM17.2692 5H16.9633V6H17.2692V5ZM17 5.26923C17 5.12054 17.1205 5 17.2692 5V6C17.6728 6 18 5.67283 18 5.26923H17ZM17 3.7V5.26923H18V3.7H17ZM16.8365 1.81901C16.9036 1.95069 16.9497 2.12454 16.9744 2.42712C16.9996 2.73554 17 3.1317 17 3.7H18C18 3.1482 18.0004 2.70428 17.9711 2.34569C17.9413 1.98126 17.8784 1.66117 17.7275 1.36502L16.8365 1.81901ZM16.181 1.16349C16.4632 1.3073 16.6927 1.53677 16.8365 1.81901L17.7275 1.36502C17.4878 0.894618 17.1054 0.512167 16.635 0.272484L16.181 1.16349ZM14.3 1C14.8683 1 15.2645 1.00039 15.5729 1.02559C15.8755 1.05031 16.0493 1.0964 16.181 1.16349L16.635 0.272484C16.3388 0.12159 16.0187 0.0586836 15.6543 0.0289089C15.2957 -0.000388853 14.8518 0 14.3 0V1ZM11.75 1H14.3V0H11.75V1ZM11 0.75V1H12V0.75H11ZM11 1C11 1.27614 10.7761 1.5 10.5 1.5V2.5C11.3284 2.5 12 1.82843 12 1H11ZM10.5 1.5C10.2239 1.5 10 1.27614 10 1H9C9 1.82843 9.67157 2.5 10.5 2.5V1.5ZM10 1V0.75H9V1H10ZM10.5 4.5C10.7761 4.5 11 4.72386 11 5H12C12 4.17157 11.3284 3.5 10.5 3.5V4.5ZM10 5C10 4.72386 10.2239 4.5 10.5 4.5V3.5C9.67157 3.5 9 4.17157 9 5H10ZM10 6V5H9V6H10ZM10.5 6.5C10.2239 6.5 10 6.27614 10 6H9C9 6.82843 9.67157 7.5 10.5 7.5V6.5ZM11 6C11 6.27614 10.7761 6.5 10.5 6.5V7.5C11.3284 7.5 12 6.82843 12 6H11ZM11 5V6H12V5H11ZM10.5 9.5C10.7761 9.5 11 9.72386 11 10H12C12 9.17157 11.3284 8.5 10.5 8.5V9.5ZM10 10C10 9.72386 10.2239 9.5 10.5 9.5V8.5C9.67157 8.5 9 9.17157 9 10H10ZM10 11V10H9V11H10ZM10.5 11.5C10.2239 11.5 10 11.2761 10 11H9C9 11.8284 9.67157 12.5 10.5 12.5V11.5ZM11 11C11 11.2761 10.7761 11.5 10.5 11.5V12.5C11.3284 12.5 12 11.8284 12 11H11ZM11 10V11H12V10H11ZM11 15.25C11 15.6642 11.3358 16 11.75 16V15C11.8881 15 12 15.1119 12 15.25H11ZM11.75 0C11.3358 0 11 0.335786 11 0.75H12C12 0.888071 11.8881 1 11.75 1V0ZM9.25 16C9.66421 16 10 15.6642 10 15.25H9C9 15.1119 9.11193 15 9.25 15V16ZM9.25 1C9.11193 1 9 0.88807 9 0.75H10C10 0.335787 9.66421 0 9.25 0V1Z" fill="white" fill-opacity="0.75"/>
</svg>
