<svg width="201" height="360" viewBox="0 0 201 360" fill="none" xmlns="http://www.w3.org/2000/svg">
<path fill-rule="evenodd" clip-rule="evenodd" d="M0.5 15C0.5 6.71572 7.21573 0 15.5 0H185.5C193.784 0 200.5 6.71573 200.5 15V271.031C200.169 271.01 199.836 271 199.5 271C191.341 271 184.608 277.107 183.624 285H16.3762C15.392 277.107 8.65924 271 0.5 271V15Z" fill="#FFF7EA"/>
<path d="M25.6667 198.083C24.8875 198.083 24.25 197.446 24.25 196.667C24.25 195.888 24.8875 195.25 25.6667 195.25C26.4458 195.25 27.0833 195.888 27.0833 196.667C27.0833 197.446 26.4458 198.083 25.6667 198.083ZM29.9167 196.808C29.9167 194.237 28.0396 192.417 25.6667 192.417C23.2937 192.417 21.4167 194.237 21.4167 196.808C21.4167 198.466 22.7979 200.662 25.6667 203.283C28.5354 200.662 29.9167 198.466 29.9167 196.808ZM25.6667 191C28.6417 191 31.3333 193.281 31.3333 196.808C31.3333 199.16 29.4421 201.944 25.6667 205.167C21.8913 201.944 20 199.16 20 196.808C20 193.281 22.6917 191 25.6667 191Z" fill="#22272E"/>
<path d="M22.98 224.237C22.52 224.237 22.1067 224.157 21.74 223.997C21.38 223.83 21.0967 223.603 20.89 223.317C20.6833 223.023 20.5767 222.687 20.57 222.307H21.54C21.5733 222.633 21.7067 222.91 21.94 223.137C22.18 223.357 22.5267 223.467 22.98 223.467C23.4133 223.467 23.7533 223.36 24 223.147C24.2533 222.927 24.38 222.647 24.38 222.307C24.38 222.04 24.3067 221.823 24.16 221.657C24.0133 221.49 23.83 221.363 23.61 221.277C23.39 221.19 23.0933 221.097 22.72 220.997C22.26 220.877 21.89 220.757 21.61 220.637C21.3367 220.517 21.1 220.33 20.9 220.077C20.7067 219.817 20.61 219.47 20.61 219.037C20.61 218.657 20.7067 218.32 20.9 218.027C21.0933 217.733 21.3633 217.507 21.71 217.347C22.0633 217.187 22.4667 217.107 22.92 217.107C23.5733 217.107 24.1067 217.27 24.52 217.597C24.94 217.923 25.1767 218.357 25.23 218.897H24.23C24.1967 218.63 24.0567 218.397 23.81 218.197C23.5633 217.99 23.2367 217.887 22.83 217.887C22.45 217.887 22.14 217.987 21.9 218.187C21.66 218.38 21.54 218.653 21.54 219.007C21.54 219.26 21.61 219.467 21.75 219.627C21.8967 219.787 22.0733 219.91 22.28 219.997C22.4933 220.077 22.79 220.17 23.17 220.277C23.63 220.403 24 220.53 24.28 220.657C24.56 220.777 24.8 220.967 25 221.227C25.2 221.48 25.3 221.827 25.3 222.267C25.3 222.607 25.21 222.927 25.03 223.227C24.85 223.527 24.5833 223.77 24.23 223.957C23.8767 224.143 23.46 224.237 22.98 224.237ZM26.2991 221.417C26.2991 220.85 26.4125 220.357 26.6391 219.937C26.8658 219.51 27.1791 219.18 27.5791 218.947C27.9858 218.713 28.4491 218.597 28.9691 218.597C29.6425 218.597 30.1958 218.76 30.6291 219.087C31.0691 219.413 31.3591 219.867 31.4991 220.447H30.5191C30.4258 220.113 30.2425 219.85 29.9691 219.657C29.7025 219.463 29.3691 219.367 28.9691 219.367C28.4491 219.367 28.0291 219.547 27.7091 219.907C27.3891 220.26 27.2291 220.763 27.2291 221.417C27.2291 222.077 27.3891 222.587 27.7091 222.947C28.0291 223.307 28.4491 223.487 28.9691 223.487C29.3691 223.487 29.7025 223.393 29.9691 223.207C30.2358 223.02 30.4191 222.753 30.5191 222.407H31.4991C31.3525 222.967 31.0591 223.417 30.6191 223.757C30.1791 224.09 29.6291 224.257 28.9691 224.257C28.4491 224.257 27.9858 224.14 27.5791 223.907C27.1791 223.673 26.8658 223.343 26.6391 222.917C26.4125 222.49 26.2991 221.99 26.2991 221.417ZM33.6234 219.577C33.7834 219.263 34.01 219.02 34.3034 218.847C34.6034 218.673 34.9667 218.587 35.3934 218.587V219.527H35.1534C34.1334 219.527 33.6234 220.08 33.6234 221.187V224.167H32.7134V218.687H33.6234V219.577ZM41.4438 221.217C41.4438 221.39 41.4338 221.573 41.4138 221.767H37.0338C37.0672 222.307 37.2505 222.73 37.5838 223.037C37.9238 223.337 38.3338 223.487 38.8138 223.487C39.2072 223.487 39.5338 223.397 39.7938 223.217C40.0605 223.03 40.2472 222.783 40.3538 222.477H41.3338C41.1872 223.003 40.8938 223.433 40.4538 223.767C40.0138 224.093 39.4672 224.257 38.8138 224.257C38.2938 224.257 37.8272 224.14 37.4138 223.907C37.0072 223.673 36.6872 223.343 36.4538 222.917C36.2205 222.483 36.1038 221.983 36.1038 221.417C36.1038 220.85 36.2172 220.353 36.4438 219.927C36.6705 219.5 36.9872 219.173 37.3938 218.947C37.8072 218.713 38.2805 218.597 38.8138 218.597C39.3338 218.597 39.7938 218.71 40.1938 218.937C40.5938 219.163 40.9005 219.477 41.1138 219.877C41.3338 220.27 41.4438 220.717 41.4438 221.217ZM40.5038 221.027C40.5038 220.68 40.4272 220.383 40.2738 220.137C40.1205 219.883 39.9105 219.693 39.6438 219.567C39.3838 219.433 39.0938 219.367 38.7738 219.367C38.3138 219.367 37.9205 219.513 37.5938 219.807C37.2738 220.1 37.0905 220.507 37.0438 221.027H40.5038ZM47.645 221.217C47.645 221.39 47.635 221.573 47.615 221.767H43.235C43.2683 222.307 43.4517 222.73 43.785 223.037C44.125 223.337 44.535 223.487 45.015 223.487C45.4083 223.487 45.735 223.397 45.995 223.217C46.2617 223.03 46.4483 222.783 46.555 222.477H47.535C47.3883 223.003 47.095 223.433 46.655 223.767C46.215 224.093 45.6683 224.257 45.015 224.257C44.495 224.257 44.0283 224.14 43.615 223.907C43.2083 223.673 42.8883 223.343 42.655 222.917C42.4217 222.483 42.305 221.983 42.305 221.417C42.305 220.85 42.4183 220.353 42.645 219.927C42.8717 219.5 43.1883 219.173 43.595 218.947C44.0083 218.713 44.4817 218.597 45.015 218.597C45.535 218.597 45.995 218.71 46.395 218.937C46.795 219.163 47.1017 219.477 47.315 219.877C47.535 220.27 47.645 220.717 47.645 221.217ZM46.705 221.027C46.705 220.68 46.6283 220.383 46.475 220.137C46.3217 219.883 46.1117 219.693 45.845 219.567C45.585 219.433 45.295 219.367 44.975 219.367C44.515 219.367 44.1217 219.513 43.795 219.807C43.475 220.1 43.2917 220.507 43.245 221.027H46.705ZM51.5162 218.587C52.1828 218.587 52.7228 218.79 53.1362 219.197C53.5495 219.597 53.7562 220.177 53.7562 220.937V224.167H52.8562V221.067C52.8562 220.52 52.7195 220.103 52.4462 219.817C52.1728 219.523 51.7995 219.377 51.3262 219.377C50.8462 219.377 50.4628 219.527 50.1762 219.827C49.8962 220.127 49.7562 220.563 49.7562 221.137V224.167H48.8462V218.687H49.7562V219.467C49.9362 219.187 50.1795 218.97 50.4862 218.817C50.7995 218.663 51.1428 218.587 51.5162 218.587ZM55.5327 224.227C55.3593 224.227 55.2127 224.167 55.0927 224.047C54.9727 223.927 54.9127 223.78 54.9127 223.607C54.9127 223.433 54.9727 223.287 55.0927 223.167C55.2127 223.047 55.3593 222.987 55.5327 222.987C55.6993 222.987 55.8393 223.047 55.9527 223.167C56.0727 223.287 56.1327 223.433 56.1327 223.607C56.1327 223.78 56.0727 223.927 55.9527 224.047C55.8393 224.167 55.6993 224.227 55.5327 224.227ZM55.5327 219.947C55.3593 219.947 55.2127 219.887 55.0927 219.767C54.9727 219.647 54.9127 219.5 54.9127 219.327C54.9127 219.153 54.9727 219.007 55.0927 218.887C55.2127 218.767 55.3593 218.707 55.5327 218.707C55.6993 218.707 55.8393 218.767 55.9527 218.887C56.0727 219.007 56.1327 219.153 56.1327 219.327C56.1327 219.5 56.0727 219.647 55.9527 219.767C55.8393 219.887 55.6993 219.947 55.5327 219.947Z" fill="#767676"/>
<path d="M22.98 245.237C22.52 245.237 22.1067 245.157 21.74 244.997C21.38 244.83 21.0967 244.603 20.89 244.317C20.6833 244.023 20.5767 243.687 20.57 243.307H21.54C21.5733 243.633 21.7067 243.91 21.94 244.137C22.18 244.357 22.5267 244.467 22.98 244.467C23.4133 244.467 23.7533 244.36 24 244.147C24.2533 243.927 24.38 243.647 24.38 243.307C24.38 243.04 24.3067 242.823 24.16 242.657C24.0133 242.49 23.83 242.363 23.61 242.277C23.39 242.19 23.0933 242.097 22.72 241.997C22.26 241.877 21.89 241.757 21.61 241.637C21.3367 241.517 21.1 241.33 20.9 241.077C20.7067 240.817 20.61 240.47 20.61 240.037C20.61 239.657 20.7067 239.32 20.9 239.027C21.0933 238.733 21.3633 238.507 21.71 238.347C22.0633 238.187 22.4667 238.107 22.92 238.107C23.5733 238.107 24.1067 238.27 24.52 238.597C24.94 238.923 25.1767 239.357 25.23 239.897H24.23C24.1967 239.63 24.0567 239.397 23.81 239.197C23.5633 238.99 23.2367 238.887 22.83 238.887C22.45 238.887 22.14 238.987 21.9 239.187C21.66 239.38 21.54 239.653 21.54 240.007C21.54 240.26 21.61 240.467 21.75 240.627C21.8967 240.787 22.0733 240.91 22.28 240.997C22.4933 241.077 22.79 241.17 23.17 241.277C23.63 241.403 24 241.53 24.28 241.657C24.56 241.777 24.8 241.967 25 242.227C25.2 242.48 25.3 242.827 25.3 243.267C25.3 243.607 25.21 243.927 25.03 244.227C24.85 244.527 24.5833 244.77 24.23 244.957C23.8767 245.143 23.46 245.237 22.98 245.237ZM31.6391 242.217C31.6391 242.39 31.6291 242.573 31.6091 242.767H27.2291C27.2625 243.307 27.4458 243.73 27.7791 244.037C28.1191 244.337 28.5291 244.487 29.0091 244.487C29.4025 244.487 29.7291 244.397 29.9891 244.217C30.2558 244.03 30.4425 243.783 30.5491 243.477H31.5291C31.3825 244.003 31.0891 244.433 30.6491 244.767C30.2091 245.093 29.6625 245.257 29.0091 245.257C28.4891 245.257 28.0225 245.14 27.6091 244.907C27.2025 244.673 26.8825 244.343 26.6491 243.917C26.4158 243.483 26.2991 242.983 26.2991 242.417C26.2991 241.85 26.4125 241.353 26.6391 240.927C26.8658 240.5 27.1825 240.173 27.5891 239.947C28.0025 239.713 28.4758 239.597 29.0091 239.597C29.5291 239.597 29.9891 239.71 30.3891 239.937C30.7891 240.163 31.0958 240.477 31.3091 240.877C31.5291 241.27 31.6391 241.717 31.6391 242.217ZM30.6991 242.027C30.6991 241.68 30.6225 241.383 30.4691 241.137C30.3158 240.883 30.1058 240.693 29.8391 240.567C29.5791 240.433 29.2891 240.367 28.9691 240.367C28.5091 240.367 28.1158 240.513 27.7891 240.807C27.4691 241.1 27.2858 241.507 27.2391 242.027H30.6991ZM32.5003 242.407C32.5003 241.847 32.6136 241.357 32.8403 240.937C33.067 240.51 33.377 240.18 33.7703 239.947C34.1703 239.713 34.6136 239.597 35.1003 239.597C35.5803 239.597 35.997 239.7 36.3503 239.907C36.7036 240.113 36.967 240.373 37.1403 240.687V239.687H38.0603V245.167H37.1403V244.147C36.9603 244.467 36.6903 244.733 36.3303 244.947C35.977 245.153 35.5636 245.257 35.0903 245.257C34.6036 245.257 34.1636 245.137 33.7703 244.897C33.377 244.657 33.067 244.32 32.8403 243.887C32.6136 243.453 32.5003 242.96 32.5003 242.407ZM37.1403 242.417C37.1403 242.003 37.057 241.643 36.8903 241.337C36.7236 241.03 36.497 240.797 36.2103 240.637C35.9303 240.47 35.6203 240.387 35.2803 240.387C34.9403 240.387 34.6303 240.467 34.3503 240.627C34.0703 240.787 33.847 241.02 33.6803 241.327C33.5136 241.633 33.4303 241.993 33.4303 242.407C33.4303 242.827 33.5136 243.193 33.6803 243.507C33.847 243.813 34.0703 244.05 34.3503 244.217C34.6303 244.377 34.9403 244.457 35.2803 244.457C35.6203 244.457 35.9303 244.377 36.2103 244.217C36.497 244.05 36.7236 243.813 36.8903 243.507C37.057 243.193 37.1403 242.83 37.1403 242.417ZM40.7081 240.437V243.667C40.7081 243.933 40.7648 244.123 40.8781 244.237C40.9915 244.343 41.1881 244.397 41.4681 244.397H42.1381V245.167H41.3181C40.8115 245.167 40.4315 245.05 40.1781 244.817C39.9248 244.583 39.7981 244.2 39.7981 243.667V240.437H39.0881V239.687H39.7981V238.307H40.7081V239.687H42.1381V240.437H40.7081ZM45.1807 245.257C44.7607 245.257 44.384 245.187 44.0507 245.047C43.7174 244.9 43.454 244.7 43.2607 244.447C43.0674 244.187 42.9607 243.89 42.9407 243.557H43.8807C43.9074 243.83 44.034 244.053 44.2607 244.227C44.494 244.4 44.7974 244.487 45.1707 244.487C45.5174 244.487 45.7907 244.41 45.9907 244.257C46.1907 244.103 46.2907 243.91 46.2907 243.677C46.2907 243.437 46.184 243.26 45.9707 243.147C45.7574 243.027 45.4274 242.91 44.9807 242.797C44.574 242.69 44.2407 242.583 43.9807 242.477C43.7274 242.363 43.5074 242.2 43.3207 241.987C43.1407 241.767 43.0507 241.48 43.0507 241.127C43.0507 240.847 43.134 240.59 43.3007 240.357C43.4674 240.123 43.704 239.94 44.0107 239.807C44.3174 239.667 44.6674 239.597 45.0607 239.597C45.6674 239.597 46.1574 239.75 46.5307 240.057C46.904 240.363 47.104 240.783 47.1307 241.317H46.2207C46.2007 241.03 46.084 240.8 45.8707 240.627C45.664 240.453 45.384 240.367 45.0307 240.367C44.704 240.367 44.444 240.437 44.2507 240.577C44.0574 240.717 43.9607 240.9 43.9607 241.127C43.9607 241.307 44.0174 241.457 44.1307 241.577C44.2507 241.69 44.3974 241.783 44.5707 241.857C44.7507 241.923 44.9974 242 45.3107 242.087C45.704 242.193 46.024 242.3 46.2707 242.407C46.5174 242.507 46.7274 242.66 46.9007 242.867C47.0807 243.073 47.174 243.343 47.1807 243.677C47.1807 243.977 47.0974 244.247 46.9307 244.487C46.764 244.727 46.5274 244.917 46.2207 245.057C45.9207 245.19 45.574 245.257 45.1807 245.257ZM48.7553 245.227C48.582 245.227 48.4353 245.167 48.3153 245.047C48.1953 244.927 48.1353 244.78 48.1353 244.607C48.1353 244.433 48.1953 244.287 48.3153 244.167C48.4353 244.047 48.582 243.987 48.7553 243.987C48.922 243.987 49.062 244.047 49.1753 244.167C49.2953 244.287 49.3553 244.433 49.3553 244.607C49.3553 244.78 49.2953 244.927 49.1753 245.047C49.062 245.167 48.922 245.227 48.7553 245.227ZM48.7553 240.947C48.582 240.947 48.4353 240.887 48.3153 240.767C48.1953 240.647 48.1353 240.5 48.1353 240.327C48.1353 240.153 48.1953 240.007 48.3153 239.887C48.4353 239.767 48.582 239.707 48.7553 239.707C48.922 239.707 49.062 239.767 49.1753 239.887C49.2953 240.007 49.3553 240.153 49.3553 240.327C49.3553 240.5 49.2953 240.647 49.1753 240.767C49.062 240.887 48.922 240.947 48.7553 240.947Z" fill="#767676"/>
<path d="M25.43 261.237C25.43 261.817 25.23 262.3 24.83 262.687C24.4367 263.067 23.8333 263.257 23.02 263.257H21.68V266.167H20.77V259.197H23.02C23.8067 259.197 24.4033 259.387 24.81 259.767C25.2233 260.147 25.43 260.637 25.43 261.237ZM23.02 262.507C23.5267 262.507 23.9 262.397 24.14 262.177C24.38 261.957 24.5 261.643 24.5 261.237C24.5 260.377 24.0067 259.947 23.02 259.947H21.68V262.507H23.02ZM27.471 261.577C27.631 261.263 27.8577 261.02 28.151 260.847C28.451 260.673 28.8143 260.587 29.241 260.587V261.527H29.001C27.981 261.527 27.471 262.08 27.471 263.187V266.167H26.561V260.687H27.471V261.577ZM30.7615 259.797C30.5882 259.797 30.4415 259.737 30.3215 259.617C30.2015 259.497 30.1415 259.35 30.1415 259.177C30.1415 259.003 30.2015 258.857 30.3215 258.737C30.4415 258.617 30.5882 258.557 30.7615 258.557C30.9282 258.557 31.0682 258.617 31.1815 258.737C31.3015 258.857 31.3615 259.003 31.3615 259.177C31.3615 259.35 31.3015 259.497 31.1815 259.617C31.0682 259.737 30.9282 259.797 30.7615 259.797ZM31.2015 260.687V266.167H30.2915V260.687H31.2015ZM32.4124 263.417C32.4124 262.85 32.5258 262.357 32.7524 261.937C32.9791 261.51 33.2924 261.18 33.6924 260.947C34.0991 260.713 34.5624 260.597 35.0824 260.597C35.7558 260.597 36.3091 260.76 36.7424 261.087C37.1824 261.413 37.4724 261.867 37.6124 262.447H36.6324C36.5391 262.113 36.3558 261.85 36.0824 261.657C35.8158 261.463 35.4824 261.367 35.0824 261.367C34.5624 261.367 34.1424 261.547 33.8224 261.907C33.5024 262.26 33.3424 262.763 33.3424 263.417C33.3424 264.077 33.5024 264.587 33.8224 264.947C34.1424 265.307 34.5624 265.487 35.0824 265.487C35.4824 265.487 35.8158 265.393 36.0824 265.207C36.3491 265.02 36.5324 264.753 36.6324 264.407H37.6124C37.4658 264.967 37.1724 265.417 36.7324 265.757C36.2924 266.09 35.7424 266.257 35.0824 266.257C34.5624 266.257 34.0991 266.14 33.6924 265.907C33.2924 265.673 32.9791 265.343 32.7524 264.917C32.5258 264.49 32.4124 263.99 32.4124 263.417ZM43.8266 263.217C43.8266 263.39 43.8166 263.573 43.7966 263.767H39.4166C39.45 264.307 39.6333 264.73 39.9666 265.037C40.3066 265.337 40.7166 265.487 41.1966 265.487C41.59 265.487 41.9166 265.397 42.1766 265.217C42.4433 265.03 42.63 264.783 42.7366 264.477H43.7166C43.57 265.003 43.2766 265.433 42.8366 265.767C42.3966 266.093 41.85 266.257 41.1966 266.257C40.6766 266.257 40.21 266.14 39.7966 265.907C39.39 265.673 39.07 265.343 38.8366 264.917C38.6033 264.483 38.4866 263.983 38.4866 263.417C38.4866 262.85 38.6 262.353 38.8266 261.927C39.0533 261.5 39.37 261.173 39.7766 260.947C40.19 260.713 40.6633 260.597 41.1966 260.597C41.7166 260.597 42.1766 260.71 42.5766 260.937C42.9766 261.163 43.2833 261.477 43.4966 261.877C43.7166 262.27 43.8266 262.717 43.8266 263.217ZM42.8866 263.027C42.8866 262.68 42.81 262.383 42.6566 262.137C42.5033 261.883 42.2933 261.693 42.0266 261.567C41.7666 261.433 41.4766 261.367 41.1566 261.367C40.6966 261.367 40.3033 261.513 39.9766 261.807C39.6566 262.1 39.4733 262.507 39.4266 263.027H42.8866ZM45.3178 266.227C45.1445 266.227 44.9978 266.167 44.8778 266.047C44.7578 265.927 44.6978 265.78 44.6978 265.607C44.6978 265.433 44.7578 265.287 44.8778 265.167C44.9978 265.047 45.1445 264.987 45.3178 264.987C45.4845 264.987 45.6245 265.047 45.7378 265.167C45.8578 265.287 45.9178 265.433 45.9178 265.607C45.9178 265.78 45.8578 265.927 45.7378 266.047C45.6245 266.167 45.4845 266.227 45.3178 266.227ZM45.3178 261.947C45.1445 261.947 44.9978 261.887 44.8778 261.767C44.7578 261.647 44.6978 261.5 44.6978 261.327C44.6978 261.153 44.7578 261.007 44.8778 260.887C44.9978 260.767 45.1445 260.707 45.3178 260.707C45.4845 260.707 45.6245 260.767 45.7378 260.887C45.8578 261.007 45.9178 261.153 45.9178 261.327C45.9178 261.5 45.8578 261.647 45.7378 261.767C45.6245 261.887 45.4845 261.947 45.3178 261.947Z" fill="#767676"/>
<path fill-rule="evenodd" clip-rule="evenodd" d="M199.75 345C199.75 353.284 193.034 360 184.75 360L15.75 360C7.46573 360 0.749999 353.284 0.749999 345L0.749995 304C0.749995 303.663 0.761088 303.329 0.782954 302.998C8.81443 302.858 15.4034 296.801 16.3762 289L183.624 289C184.608 296.893 191.341 303 199.5 303C199.572 303 199.645 303 199.717 302.999C199.739 303.33 199.75 303.663 199.75 304L199.75 345Z" fill="#FFF7EA"/>
<mask id="path-7-inside-1_21_563" fill="white">
<path fill-rule="evenodd" clip-rule="evenodd" d="M66.75 341C66.75 339.343 65.4069 338 63.75 338H54.75C53.0931 338 51.75 339.343 51.75 341V350C51.75 351.657 53.0931 353 54.75 353H63.75C65.4069 353 66.75 351.657 66.75 350V341ZM56.9799 350.13C57.1394 350.2 57.4204 350.236 57.8232 350.236H58.6287H59.3083C59.5264 350.244 59.7572 350.249 60.0005 350.249H60.8185C61.1793 350.249 61.4227 350.209 61.5485 350.13C61.6828 350.042 61.7499 349.914 61.7499 349.747C61.7499 349.624 61.7121 349.522 61.6366 349.443C61.5611 349.355 61.4352 349.254 61.259 349.139C61.0493 348.998 60.8899 348.871 60.7808 348.756C60.6801 348.633 60.6088 348.492 60.5668 348.334C60.5249 348.175 60.5039 347.968 60.5039 347.713V342.589C60.5039 342.457 60.5165 342.36 60.5417 342.298C60.5668 342.228 60.6046 342.179 60.6549 342.153C60.7053 342.118 60.7766 342.1 60.8689 342.1H61.1709C61.3052 342.1 61.4185 342.144 61.5108 342.232C61.6114 342.311 61.6995 342.43 61.7751 342.589C61.8506 342.738 61.9554 342.967 62.0897 343.275L62.14 343.394C62.2911 343.755 62.4379 344.011 62.5805 344.16C62.7316 344.31 62.8952 344.385 63.0714 344.385C63.3231 344.385 63.4825 344.288 63.5496 344.094C63.6167 343.901 63.6167 343.65 63.5496 343.341C63.4909 343.024 63.386 342.624 63.235 342.14C63.1259 341.77 63.021 341.484 62.9203 341.281C62.828 341.07 62.7358 340.92 62.6435 340.832C62.5512 340.744 62.4505 340.7 62.3414 340.7C62.2407 340.7 62.1065 340.735 61.9387 340.806C61.7876 340.867 61.6408 340.916 61.4982 340.951C61.3639 340.977 61.1751 340.991 60.9318 340.991H57.4708C57.2862 340.991 57.1268 340.977 56.9925 340.951C56.8667 340.916 56.7366 340.867 56.6024 340.806C56.5269 340.779 56.4472 340.757 56.3632 340.74C56.2877 340.713 56.2164 340.7 56.1493 340.7C56.0318 340.7 55.9186 340.762 55.8095 340.885C55.7088 340.999 55.6081 341.167 55.5074 341.387C55.4067 341.598 55.3144 341.849 55.2305 342.14C55.0963 342.597 54.9998 342.985 54.9411 343.302C54.8823 343.619 54.8865 343.879 54.9537 344.081C55.0292 344.284 55.197 344.385 55.4571 344.385C55.6417 344.385 55.8011 344.31 55.9353 344.16C56.0696 344.011 56.2122 343.755 56.3632 343.394L56.3884 343.328C56.5311 342.985 56.6401 342.738 56.7156 342.589C56.7995 342.43 56.8918 342.311 56.9925 342.232C57.0932 342.144 57.2149 342.1 57.3575 342.1H57.6596C57.7351 342.1 57.798 342.118 57.8483 342.153C57.8987 342.179 57.9364 342.228 57.9616 342.298C57.9868 342.368 57.9994 342.465 57.9994 342.589V347.713C57.9994 347.96 57.9784 348.162 57.9364 348.321C57.8945 348.479 57.819 348.62 57.7099 348.743C57.6092 348.866 57.454 348.998 57.2442 349.139C57.1016 349.245 56.9841 349.346 56.8918 349.443C56.7995 349.531 56.7534 349.628 56.7534 349.734C56.7534 349.927 56.8289 350.059 56.9799 350.13Z"/>
</mask>
<path fill-rule="evenodd" clip-rule="evenodd" d="M66.75 341C66.75 339.343 65.4069 338 63.75 338H54.75C53.0931 338 51.75 339.343 51.75 341V350C51.75 351.657 53.0931 353 54.75 353H63.75C65.4069 353 66.75 351.657 66.75 350V341ZM56.9799 350.13C57.1394 350.2 57.4204 350.236 57.8232 350.236H58.6287H59.3083C59.5264 350.244 59.7572 350.249 60.0005 350.249H60.8185C61.1793 350.249 61.4227 350.209 61.5485 350.13C61.6828 350.042 61.7499 349.914 61.7499 349.747C61.7499 349.624 61.7121 349.522 61.6366 349.443C61.5611 349.355 61.4352 349.254 61.259 349.139C61.0493 348.998 60.8899 348.871 60.7808 348.756C60.6801 348.633 60.6088 348.492 60.5668 348.334C60.5249 348.175 60.5039 347.968 60.5039 347.713V342.589C60.5039 342.457 60.5165 342.36 60.5417 342.298C60.5668 342.228 60.6046 342.179 60.6549 342.153C60.7053 342.118 60.7766 342.1 60.8689 342.1H61.1709C61.3052 342.1 61.4185 342.144 61.5108 342.232C61.6114 342.311 61.6995 342.43 61.7751 342.589C61.8506 342.738 61.9554 342.967 62.0897 343.275L62.14 343.394C62.2911 343.755 62.4379 344.011 62.5805 344.16C62.7316 344.31 62.8952 344.385 63.0714 344.385C63.3231 344.385 63.4825 344.288 63.5496 344.094C63.6167 343.901 63.6167 343.65 63.5496 343.341C63.4909 343.024 63.386 342.624 63.235 342.14C63.1259 341.77 63.021 341.484 62.9203 341.281C62.828 341.07 62.7358 340.92 62.6435 340.832C62.5512 340.744 62.4505 340.7 62.3414 340.7C62.2407 340.7 62.1065 340.735 61.9387 340.806C61.7876 340.867 61.6408 340.916 61.4982 340.951C61.3639 340.977 61.1751 340.991 60.9318 340.991H57.4708C57.2862 340.991 57.1268 340.977 56.9925 340.951C56.8667 340.916 56.7366 340.867 56.6024 340.806C56.5269 340.779 56.4472 340.757 56.3632 340.74C56.2877 340.713 56.2164 340.7 56.1493 340.7C56.0318 340.7 55.9186 340.762 55.8095 340.885C55.7088 340.999 55.6081 341.167 55.5074 341.387C55.4067 341.598 55.3144 341.849 55.2305 342.14C55.0963 342.597 54.9998 342.985 54.9411 343.302C54.8823 343.619 54.8865 343.879 54.9537 344.081C55.0292 344.284 55.197 344.385 55.4571 344.385C55.6417 344.385 55.8011 344.31 55.9353 344.16C56.0696 344.011 56.2122 343.755 56.3632 343.394L56.3884 343.328C56.5311 342.985 56.6401 342.738 56.7156 342.589C56.7995 342.43 56.8918 342.311 56.9925 342.232C57.0932 342.144 57.2149 342.1 57.3575 342.1H57.6596C57.7351 342.1 57.798 342.118 57.8483 342.153C57.8987 342.179 57.9364 342.228 57.9616 342.298C57.9868 342.368 57.9994 342.465 57.9994 342.589V347.713C57.9994 347.96 57.9784 348.162 57.9364 348.321C57.8945 348.479 57.819 348.62 57.7099 348.743C57.6092 348.866 57.454 348.998 57.2442 349.139C57.1016 349.245 56.9841 349.346 56.8918 349.443C56.7995 349.531 56.7534 349.628 56.7534 349.734C56.7534 349.927 56.8289 350.059 56.9799 350.13Z" fill="url(#paint0_linear_21_563)"/>
<path d="M56.9799 350.13L56.8848 350.334L56.889 350.336L56.9799 350.13ZM59.3083 350.236L59.3174 350.011H59.3083V350.236ZM61.5485 350.13L61.6684 350.32L61.6719 350.318L61.5485 350.13ZM61.6366 349.443L61.4656 349.59L61.4737 349.598L61.6366 349.443ZM61.259 349.139L61.1336 349.326L61.1365 349.328L61.259 349.139ZM60.7808 348.756L60.6065 348.899L60.612 348.905L60.6179 348.912L60.7808 348.756ZM60.5668 348.334L60.7843 348.276L60.7843 348.276L60.5668 348.334ZM60.5417 342.298L60.7502 342.383L60.7535 342.374L60.5417 342.298ZM60.6549 342.153L60.7595 342.352L60.7722 342.345L60.7839 342.337L60.6549 342.153ZM61.5108 342.232L61.3554 342.395L61.3632 342.402L61.3716 342.409L61.5108 342.232ZM61.7751 342.589L61.5719 342.685L61.5742 342.69L61.7751 342.589ZM62.0897 343.275L62.2969 343.188L62.296 343.186L62.0897 343.275ZM62.14 343.394L62.3476 343.307L62.3472 343.306L62.14 343.394ZM62.5805 344.16L62.4176 344.316L62.4221 344.32L62.5805 344.16ZM63.5496 343.341L63.3283 343.382L63.3298 343.389L63.5496 343.341ZM63.235 342.14L63.0191 342.203L63.0202 342.207L63.235 342.14ZM62.9203 341.281L62.7139 341.371L62.7189 341.381L62.9203 341.281ZM62.6435 340.832L62.4881 340.995L62.4882 340.995L62.6435 340.832ZM61.9387 340.806L62.0237 341.014L62.0257 341.013L61.9387 340.806ZM61.4982 340.951L61.5417 341.172L61.5521 341.169L61.4982 340.951ZM56.9925 340.951L56.9319 341.168L56.9404 341.17L56.9491 341.172L56.9925 340.951ZM56.6024 340.806L56.6963 340.601L56.6866 340.597L56.6767 340.593L56.6024 340.806ZM56.3632 340.74L56.289 340.952L56.3027 340.957L56.317 340.96L56.3632 340.74ZM55.8095 340.885L55.641 340.736L55.6405 340.736L55.8095 340.885ZM55.5074 341.387L55.7106 341.484L55.712 341.48L55.5074 341.387ZM55.2305 342.14L55.4465 342.203L55.4467 342.202L55.2305 342.14ZM54.9411 343.302L55.1623 343.343L55.1623 343.343L54.9411 343.302ZM54.9537 344.081L54.7399 344.152L54.7428 344.16L54.9537 344.081ZM56.3632 343.394L56.5709 343.481L56.5735 343.474L56.3632 343.394ZM56.3884 343.328L56.1805 343.242L56.1782 343.248L56.3884 343.328ZM56.7156 342.589L56.5168 342.483L56.5148 342.487L56.7156 342.589ZM56.9925 342.232L57.1319 342.409L57.1406 342.401L56.9925 342.232ZM57.8483 342.153L57.7194 342.337L57.7311 342.345L57.7438 342.352L57.8483 342.153ZM57.9616 342.298L58.1735 342.222L58.1735 342.222L57.9616 342.298ZM57.9364 348.321L57.7189 348.263L57.7189 348.263L57.9364 348.321ZM57.7099 348.743L57.5413 348.594L57.5356 348.601L57.7099 348.743ZM57.2442 349.139L57.1187 348.952L57.1103 348.959L57.2442 349.139ZM56.8918 349.443L57.0473 349.606L57.0547 349.598L56.8918 349.443ZM54.75 338.225H63.75V337.775H54.75V338.225ZM51.975 350V341H51.525V350H51.975ZM63.75 352.775H54.75V353.225H63.75V352.775ZM66.525 341V350H66.975V341H66.525ZM57.8232 350.011C57.4212 350.011 57.1829 349.974 57.0709 349.924L56.889 350.336C57.0958 350.427 57.4197 350.461 57.8232 350.461V350.011ZM58.6287 350.011H57.8232V350.461H58.6287V350.011ZM59.3083 350.011H58.6287V350.461H59.3083V350.011ZM60.0005 350.024C59.7599 350.024 59.5322 350.019 59.3174 350.011L59.2992 350.46C59.5207 350.469 59.7545 350.474 60.0005 350.474V350.024ZM60.8185 350.024H60.0005V350.474H60.8185V350.024ZM61.4286 349.939C61.4026 349.956 61.3444 349.979 61.2355 349.997C61.1299 350.014 60.9918 350.024 60.8185 350.024V350.474C61.006 350.474 61.1701 350.464 61.3078 350.441C61.4422 350.419 61.5686 350.383 61.6684 350.32L61.4286 349.939ZM61.5249 349.747C61.5249 349.842 61.4928 349.897 61.4251 349.942L61.6719 350.318C61.8727 350.186 61.9749 349.986 61.9749 349.747H61.5249ZM61.4737 349.598C61.5042 349.63 61.5249 349.674 61.5249 349.747H61.9749C61.9749 349.574 61.92 349.414 61.7995 349.288L61.4737 349.598ZM61.1365 349.328C61.3067 349.439 61.4113 349.526 61.4658 349.59L61.8074 349.297C61.7109 349.184 61.5638 349.069 61.3816 348.951L61.1365 349.328ZM60.6179 348.912C60.7429 349.043 60.9173 349.181 61.1336 349.326L61.3845 348.953C61.1813 348.816 61.0368 348.699 60.9437 348.601L60.6179 348.912ZM60.3493 348.391C60.3992 348.58 60.4849 348.75 60.6065 348.899L60.955 348.614C60.8753 348.516 60.8183 348.405 60.7843 348.276L60.3493 348.391ZM60.2789 347.713C60.2789 347.978 60.3004 348.207 60.3493 348.391L60.7843 348.276C60.7493 348.144 60.7289 347.958 60.7289 347.713H60.2789ZM60.2789 342.589V347.713H60.7289V342.589H60.2789ZM60.3334 342.213C60.2909 342.317 60.2789 342.45 60.2789 342.589H60.7289C60.7289 342.463 60.7421 342.402 60.75 342.383L60.3334 342.213ZM60.5504 341.954C60.4359 342.014 60.3678 342.116 60.3298 342.222L60.7535 342.374C60.7598 342.356 60.765 342.349 60.7663 342.347C60.7669 342.346 60.7666 342.347 60.7652 342.348C60.7638 342.349 60.7618 342.351 60.7595 342.352L60.5504 341.954ZM60.8689 341.875C60.7523 341.875 60.6287 341.896 60.526 341.968L60.7839 342.337C60.7818 342.339 60.8009 342.325 60.8689 342.325V341.875ZM61.1709 341.875H60.8689V342.325H61.1709V341.875ZM61.6661 342.069C61.5296 341.939 61.3597 341.875 61.1709 341.875V342.325C61.2507 342.325 61.3074 342.349 61.3554 342.395L61.6661 342.069ZM61.9782 342.492C61.893 342.313 61.7859 342.162 61.6499 342.055L61.3716 342.409C61.4369 342.46 61.5061 342.547 61.5719 342.685L61.9782 342.492ZM62.296 343.186C62.1614 342.877 62.0544 342.643 61.9759 342.487L61.5742 342.69C61.6467 342.834 61.7495 343.058 61.8834 343.365L62.296 343.186ZM62.3472 343.306L62.2969 343.188L61.8825 343.363L61.9329 343.482L62.3472 343.306ZM62.7434 344.005C62.6298 343.886 62.4958 343.662 62.3476 343.307L61.9325 343.481C62.0864 343.849 62.2459 344.135 62.4176 344.315L62.7434 344.005ZM63.0714 344.16C62.9664 344.16 62.8571 344.118 62.7389 344L62.4221 344.32C62.606 344.502 62.8239 344.61 63.0714 344.61V344.16ZM63.337 344.021C63.3188 344.073 63.2933 344.101 63.2629 344.12C63.2286 344.141 63.1699 344.16 63.0714 344.16V344.61C63.2245 344.61 63.3714 344.58 63.4965 344.504C63.6255 344.426 63.7133 344.309 63.7622 344.168L63.337 344.021ZM63.3298 343.389C63.3925 343.677 63.3852 343.882 63.337 344.021L63.7622 344.168C63.8483 343.919 63.841 343.622 63.7695 343.294L63.3298 343.389ZM63.0202 342.207C63.1699 342.687 63.2719 343.078 63.3284 343.382L63.7709 343.3C63.7098 342.971 63.6021 342.561 63.4498 342.073L63.0202 342.207ZM62.7189 341.381C62.8111 341.567 62.9116 341.839 63.0192 342.203L63.4508 342.076C63.3402 341.701 63.231 341.401 63.1218 341.181L62.7189 341.381ZM62.4882 340.995C62.5479 341.052 62.6257 341.169 62.7142 341.371L63.1265 341.191C63.0304 340.971 62.9236 340.788 62.7988 340.669L62.4882 340.995ZM62.3414 340.925C62.3829 340.925 62.4301 340.939 62.4881 340.995L62.7988 340.669C62.6722 340.549 62.518 340.475 62.3414 340.475V340.925ZM62.0257 341.013C62.1846 340.946 62.2858 340.925 62.3414 340.925V340.475C62.1957 340.475 62.0283 340.524 61.8516 340.598L62.0257 341.013ZM61.5521 341.169C61.7064 341.131 61.8636 341.079 62.0237 341.014L61.8537 340.597C61.7116 340.655 61.5752 340.7 61.4442 340.732L61.5521 341.169ZM60.9318 341.216C61.1803 341.216 61.3861 341.202 61.5416 341.172L61.4547 340.73C61.3417 340.752 61.1699 340.766 60.9318 340.766V341.216ZM57.4708 341.216H60.9318V340.766H57.4708V341.216ZM56.9491 341.172C57.1016 341.202 57.2763 341.216 57.4708 341.216V340.766C57.2961 340.766 57.1519 340.753 57.036 340.73L56.9491 341.172ZM56.5085 341.01C56.6521 341.076 56.7933 341.129 56.9319 341.168L57.0532 340.734C56.94 340.703 56.8211 340.658 56.6963 340.601L56.5085 341.01ZM56.317 340.96C56.3921 340.976 56.4624 340.995 56.5281 341.018L56.6767 340.593C56.5913 340.563 56.5022 340.539 56.4095 340.519L56.317 340.96ZM56.1493 340.925C56.1868 340.925 56.2329 340.932 56.289 340.952L56.4375 340.527C56.3426 340.494 56.246 340.475 56.1493 340.475V340.925ZM55.978 341.034C56.0621 340.939 56.1189 340.925 56.1493 340.925V340.475C55.9447 340.475 55.775 340.584 55.641 340.736L55.978 341.034ZM55.712 341.48C55.8083 341.27 55.8982 341.125 55.9784 341.033L55.6405 340.736C55.5194 340.874 55.4079 341.063 55.3028 341.293L55.712 341.48ZM55.4467 342.202C55.5281 341.92 55.6164 341.681 55.7105 341.484L55.3043 341.29C55.1971 341.515 55.1008 341.778 55.0144 342.077L55.4467 342.202ZM55.1623 343.343C55.2192 343.036 55.3134 342.656 55.4465 342.203L55.0146 342.076C54.8792 342.538 54.7805 342.934 54.7198 343.261L55.1623 343.343ZM55.1672 344.01C55.1166 343.858 55.1072 343.64 55.1623 343.343L54.7198 343.261C54.6574 343.598 54.6565 343.899 54.7401 344.152L55.1672 344.01ZM55.4571 344.16C55.355 344.16 55.2915 344.14 55.2524 344.116C55.2165 344.095 55.1864 344.061 55.1645 344.002L54.7428 344.16C54.7964 344.303 54.888 344.422 55.0199 344.501C55.1486 344.579 55.2991 344.61 55.4571 344.61V344.16ZM55.7678 344.01C55.672 344.117 55.5716 344.16 55.4571 344.16V344.61C55.7117 344.61 55.9302 344.503 56.1028 344.31L55.7678 344.01ZM56.1557 343.307C56.007 343.663 55.876 343.889 55.7678 344.01L56.1028 344.31C56.2631 344.132 56.4175 343.848 56.5708 343.481L56.1557 343.307ZM56.1782 343.248L56.153 343.314L56.5735 343.474L56.5987 343.408L56.1782 343.248ZM56.5148 342.487C56.4352 342.645 56.3235 342.898 56.1806 343.242L56.5962 343.415C56.7386 343.072 56.845 342.832 56.9165 342.69L56.5148 342.487ZM56.8534 342.055C56.7202 342.16 56.6099 342.307 56.5168 342.483L56.9145 342.694C56.9892 342.553 57.0635 342.463 57.1317 342.409L56.8534 342.055ZM57.3575 341.875C57.1643 341.875 56.989 341.936 56.8444 342.063L57.1406 342.401C57.1975 342.352 57.2654 342.325 57.3575 342.325V341.875ZM57.6596 341.875H57.3575V342.325H57.6596V341.875ZM57.9773 341.968C57.8813 341.901 57.7705 341.875 57.6596 341.875V342.325C57.6996 342.325 57.7147 342.334 57.7194 342.337L57.9773 341.968ZM58.1735 342.222C58.1355 342.116 58.0674 342.014 57.9529 341.954L57.7438 342.352C57.7415 342.351 57.7395 342.349 57.7381 342.348C57.7367 342.347 57.7364 342.346 57.737 342.347C57.7383 342.349 57.7435 342.356 57.7497 342.374L58.1735 342.222ZM58.2244 342.589C58.2244 342.454 58.2112 342.328 58.1735 342.222L57.7497 342.374C57.7624 342.409 57.7744 342.477 57.7744 342.589H58.2244ZM58.2244 347.713V342.589H57.7744V347.713H58.2244ZM58.154 348.378C58.2027 348.194 58.2244 347.97 58.2244 347.713H57.7744C57.7744 347.949 57.7541 348.13 57.7189 348.263L58.154 348.378ZM57.8784 348.892C58.0106 348.743 58.103 348.571 58.154 348.378L57.7189 348.263C57.686 348.387 57.6273 348.497 57.5414 348.594L57.8784 348.892ZM57.3697 349.326C57.5884 349.179 57.7638 349.033 57.8842 348.885L57.5356 348.601C57.4547 348.7 57.3196 348.818 57.1188 348.953L57.3697 349.326ZM57.0547 349.598C57.1358 349.513 57.2428 349.42 57.3782 349.32L57.1103 348.959C56.9604 349.07 56.8325 349.179 56.729 349.288L57.0547 349.598ZM56.9784 349.734C56.9784 349.702 56.9894 349.661 57.0472 349.606L56.7365 349.28C56.6097 349.401 56.5284 349.554 56.5284 349.734H56.9784ZM57.075 349.926C57.0374 349.908 57.0178 349.888 57.0054 349.866C56.9917 349.842 56.9784 349.802 56.9784 349.734H56.5284C56.5284 349.859 56.5529 349.982 56.6147 350.09C56.6778 350.2 56.7714 350.281 56.8848 350.334L57.075 349.926ZM63.75 353.225C65.5311 353.225 66.975 351.781 66.975 350H66.525C66.525 351.533 65.2826 352.775 63.75 352.775V353.225ZM51.525 350C51.525 351.781 52.9689 353.225 54.75 353.225V352.775C53.2174 352.775 51.975 351.533 51.975 350H51.525ZM63.75 338.225C65.2826 338.225 66.525 339.467 66.525 341H66.975C66.975 339.219 65.5311 337.775 63.75 337.775V338.225ZM54.75 337.775C52.9689 337.775 51.525 339.219 51.525 341H51.975C51.975 339.467 53.2174 338.225 54.75 338.225V337.775Z" fill="#0A0B0D" mask="url(#path-7-inside-1_21_563)"/>
<path d="M75.326 342.894C75.6247 342.947 75.878 343.105 76.086 343.366C76.294 343.627 76.398 343.923 76.398 344.254C76.398 344.537 76.3233 344.793 76.174 345.022C76.03 345.246 75.8193 345.425 75.542 345.558C75.2647 345.686 74.942 345.75 74.574 345.75H72.35V340.19H74.47C74.8487 340.19 75.174 340.254 75.446 340.382C75.718 340.51 75.9233 340.683 76.062 340.902C76.2007 341.115 76.27 341.355 76.27 341.622C76.27 341.942 76.1847 342.209 76.014 342.422C75.8433 342.635 75.614 342.793 75.326 342.894ZM73.262 342.526H74.39C74.6887 342.526 74.9207 342.459 75.086 342.326C75.2567 342.187 75.342 341.99 75.342 341.734C75.342 341.483 75.2567 341.289 75.086 341.15C74.9207 341.006 74.6887 340.934 74.39 340.934H73.262V342.526ZM74.494 345.006C74.8033 345.006 75.046 344.931 75.222 344.782C75.398 344.633 75.486 344.425 75.486 344.158C75.486 343.886 75.3927 343.67 75.206 343.51C75.0193 343.35 74.7713 343.27 74.462 343.27H73.262V345.006H74.494ZM79.3011 345.822C78.8851 345.822 78.5091 345.729 78.1731 345.542C77.8371 345.35 77.5731 345.083 77.3811 344.742C77.1891 344.395 77.0931 343.995 77.0931 343.542C77.0931 343.094 77.1917 342.697 77.3891 342.35C77.5864 342.003 77.8557 341.737 78.1971 341.55C78.5384 341.363 78.9197 341.27 79.3411 341.27C79.7624 341.27 80.1437 341.363 80.4851 341.55C80.8264 341.737 81.0957 342.003 81.2931 342.35C81.4904 342.697 81.5891 343.094 81.5891 343.542C81.5891 343.99 81.4877 344.387 81.2851 344.734C81.0824 345.081 80.8051 345.35 80.4531 345.542C80.1064 345.729 79.7224 345.822 79.3011 345.822ZM79.3011 345.03C79.5357 345.03 79.7544 344.974 79.9571 344.862C80.1651 344.75 80.3331 344.582 80.4611 344.358C80.5891 344.134 80.6531 343.862 80.6531 343.542C80.6531 343.222 80.5917 342.953 80.4691 342.734C80.3464 342.51 80.1837 342.342 79.9811 342.23C79.7784 342.118 79.5597 342.062 79.3251 342.062C79.0904 342.062 78.8717 342.118 78.6691 342.23C78.4717 342.342 78.3144 342.51 78.1971 342.734C78.0797 342.953 78.0211 343.222 78.0211 343.542C78.0211 344.017 78.1411 344.385 78.3811 344.646C78.6264 344.902 78.9331 345.03 79.3011 345.03ZM84.4026 345.822C83.9866 345.822 83.6106 345.729 83.2746 345.542C82.9386 345.35 82.6746 345.083 82.4826 344.742C82.2906 344.395 82.1946 343.995 82.1946 343.542C82.1946 343.094 82.2933 342.697 82.4906 342.35C82.688 342.003 82.9573 341.737 83.2986 341.55C83.64 341.363 84.0213 341.27 84.4426 341.27C84.864 341.27 85.2453 341.363 85.5866 341.55C85.928 341.737 86.1973 342.003 86.3946 342.35C86.592 342.697 86.6906 343.094 86.6906 343.542C86.6906 343.99 86.5893 344.387 86.3866 344.734C86.184 345.081 85.9066 345.35 85.5546 345.542C85.208 345.729 84.824 345.822 84.4026 345.822ZM84.4026 345.03C84.6373 345.03 84.856 344.974 85.0586 344.862C85.2666 344.75 85.4346 344.582 85.5626 344.358C85.6906 344.134 85.7546 343.862 85.7546 343.542C85.7546 343.222 85.6933 342.953 85.5706 342.734C85.448 342.51 85.2853 342.342 85.0826 342.23C84.88 342.118 84.6613 342.062 84.4266 342.062C84.192 342.062 83.9733 342.118 83.7706 342.23C83.5733 342.342 83.416 342.51 83.2986 342.734C83.1813 342.953 83.1226 343.222 83.1226 343.542C83.1226 344.017 83.2426 344.385 83.4826 344.646C83.728 344.902 84.0346 345.03 84.4026 345.03ZM89.3362 343.55L91.3682 345.75H90.1362L88.5042 343.854V345.75H87.5922V339.83H88.5042V343.27L90.1042 341.342H91.3682L89.3362 343.55ZM96.0619 343.438C96.0619 343.603 96.0512 343.753 96.0299 343.886H92.6619C92.6885 344.238 92.8192 344.521 93.0539 344.734C93.2885 344.947 93.5765 345.054 93.9179 345.054C94.4085 345.054 94.7552 344.849 94.9579 344.438H95.9419C95.8085 344.843 95.5659 345.177 95.2139 345.438C94.8672 345.694 94.4352 345.822 93.9179 345.822C93.4965 345.822 93.1179 345.729 92.7819 345.542C92.4512 345.35 92.1899 345.083 91.9979 344.742C91.8112 344.395 91.7179 343.995 91.7179 343.542C91.7179 343.089 91.8085 342.691 91.9899 342.35C92.1765 342.003 92.4352 341.737 92.7659 341.55C93.1019 341.363 93.4859 341.27 93.9179 341.27C94.3339 341.27 94.7045 341.361 95.0299 341.542C95.3552 341.723 95.6085 341.979 95.7899 342.31C95.9712 342.635 96.0619 343.011 96.0619 343.438ZM95.1099 343.15C95.1045 342.814 94.9845 342.545 94.7499 342.342C94.5152 342.139 94.2245 342.038 93.8779 342.038C93.5632 342.038 93.2939 342.139 93.0699 342.342C92.8459 342.539 92.7125 342.809 92.6699 343.15H95.1099ZM96.6554 343.526C96.6554 343.083 96.746 342.691 96.9274 342.35C97.114 342.009 97.3647 341.745 97.6794 341.558C97.9994 341.366 98.354 341.27 98.7434 341.27C99.0314 341.27 99.314 341.334 99.5914 341.462C99.874 341.585 100.098 341.75 100.263 341.958V339.83H101.183V345.75H100.263V345.086C100.114 345.299 99.906 345.475 99.6394 345.614C99.378 345.753 99.0767 345.822 98.7354 345.822C98.3514 345.822 97.9994 345.726 97.6794 345.534C97.3647 345.337 97.114 345.065 96.9274 344.718C96.746 344.366 96.6554 343.969 96.6554 343.526ZM100.263 343.542C100.263 343.238 100.199 342.974 100.071 342.75C99.9487 342.526 99.786 342.355 99.5834 342.238C99.3807 342.121 99.162 342.062 98.9274 342.062C98.6927 342.062 98.474 342.121 98.2714 342.238C98.0687 342.35 97.9034 342.518 97.7754 342.742C97.6527 342.961 97.5914 343.222 97.5914 343.526C97.5914 343.83 97.6527 344.097 97.7754 344.326C97.9034 344.555 98.0687 344.731 98.2714 344.854C98.4794 344.971 98.698 345.03 98.9274 345.03C99.162 345.03 99.3807 344.971 99.5834 344.854C99.786 344.737 99.9487 344.566 100.071 344.342C100.199 344.113 100.263 343.846 100.263 343.542ZM106.163 344.934L107.411 341.342H108.379L106.699 345.75H105.611L103.939 341.342H104.915L106.163 344.934ZM109.533 340.758C109.367 340.758 109.229 340.702 109.117 340.59C109.005 340.478 108.949 340.339 108.949 340.174C108.949 340.009 109.005 339.87 109.117 339.758C109.229 339.646 109.367 339.59 109.533 339.59C109.693 339.59 109.829 339.646 109.941 339.758C110.053 339.87 110.109 340.009 110.109 340.174C110.109 340.339 110.053 340.478 109.941 340.59C109.829 340.702 109.693 340.758 109.533 340.758ZM109.981 341.342V345.75H109.069V341.342H109.981ZM110.874 343.526C110.874 343.083 110.965 342.691 111.146 342.35C111.333 342.009 111.583 341.745 111.898 341.558C112.218 341.366 112.57 341.27 112.954 341.27C113.301 341.27 113.602 341.339 113.858 341.478C114.119 341.611 114.327 341.779 114.482 341.982V341.342H115.402V345.75H114.482V345.094C114.327 345.302 114.117 345.475 113.85 345.614C113.583 345.753 113.279 345.822 112.938 345.822C112.559 345.822 112.213 345.726 111.898 345.534C111.583 345.337 111.333 345.065 111.146 344.718C110.965 344.366 110.874 343.969 110.874 343.526ZM114.482 343.542C114.482 343.238 114.418 342.974 114.29 342.75C114.167 342.526 114.005 342.355 113.802 342.238C113.599 342.121 113.381 342.062 113.146 342.062C112.911 342.062 112.693 342.121 112.49 342.238C112.287 342.35 112.122 342.518 111.994 342.742C111.871 342.961 111.81 343.222 111.81 343.526C111.81 343.83 111.871 344.097 111.994 344.326C112.122 344.555 112.287 344.731 112.49 344.854C112.698 344.971 112.917 345.03 113.146 345.03C113.381 345.03 113.599 344.971 113.802 344.854C114.005 344.737 114.167 344.566 114.29 344.342C114.418 344.113 114.482 343.846 114.482 343.542ZM119.878 345.75C119.67 345.75 119.523 345.734 119.438 345.702C119.358 345.665 119.318 345.598 119.318 345.502C119.318 345.443 119.342 345.393 119.39 345.35C119.443 345.302 119.513 345.254 119.598 345.206C119.769 345.137 119.891 345.073 119.966 345.014C120.041 344.955 120.091 344.883 120.118 344.798C120.145 344.707 120.158 344.587 120.158 344.438V341.054C120.158 340.958 120.15 340.889 120.134 340.846C120.118 340.798 120.091 340.763 120.054 340.742C120.017 340.715 119.966 340.702 119.902 340.702H119.574C119.473 340.702 119.387 340.729 119.318 340.782C119.254 340.83 119.195 340.91 119.142 341.022C119.094 341.129 119.025 341.313 118.934 341.574L118.918 341.63C118.838 341.811 118.763 341.939 118.694 342.014C118.63 342.089 118.547 342.126 118.446 342.126C118.313 342.126 118.227 342.075 118.19 341.974C118.153 341.867 118.153 341.723 118.19 341.542C118.227 341.361 118.286 341.134 118.366 340.862C118.419 340.675 118.475 340.515 118.534 340.382C118.593 340.249 118.649 340.15 118.702 340.086C118.761 340.017 118.822 339.982 118.886 339.982C118.923 339.982 118.963 339.99 119.006 340.006C119.049 340.017 119.089 340.03 119.126 340.046C119.201 340.078 119.273 340.105 119.342 340.126C119.417 340.142 119.51 340.15 119.622 340.15H121.902C122.041 340.15 122.147 340.142 122.222 340.126C122.302 340.105 122.382 340.078 122.462 340.046C122.553 340.003 122.625 339.982 122.678 339.982C122.742 339.982 122.798 340.009 122.846 340.062C122.894 340.11 122.947 340.198 123.006 340.326C123.065 340.454 123.126 340.633 123.19 340.862C123.281 341.15 123.345 341.385 123.382 341.566C123.419 341.742 123.419 341.881 123.382 341.982C123.35 342.078 123.27 342.126 123.142 342.126C123.046 342.126 122.961 342.089 122.886 342.014C122.811 341.939 122.737 341.811 122.662 341.63L122.622 341.534C122.537 341.299 122.47 341.129 122.422 341.022C122.374 340.91 122.318 340.83 122.254 340.782C122.19 340.729 122.11 340.702 122.014 340.702H121.678C121.609 340.702 121.555 340.715 121.518 340.742C121.481 340.763 121.454 340.798 121.438 340.846C121.422 340.889 121.414 340.958 121.414 341.054V344.422C121.414 344.582 121.427 344.707 121.454 344.798C121.481 344.883 121.531 344.955 121.606 345.014C121.681 345.073 121.803 345.137 121.974 345.206C122.075 345.259 122.147 345.307 122.19 345.35C122.233 345.393 122.254 345.443 122.254 345.502C122.254 345.587 122.219 345.651 122.15 345.694C122.081 345.737 121.95 345.758 121.758 345.758C121.571 345.758 121.398 345.758 121.238 345.758C121.083 345.758 120.934 345.755 120.79 345.75C120.651 345.75 120.507 345.75 120.358 345.75C120.209 345.75 120.049 345.75 119.878 345.75ZM125.083 345.846C124.677 345.846 124.323 345.753 124.019 345.566C123.715 345.379 123.483 345.131 123.323 344.822C123.163 344.507 123.083 344.161 123.083 343.782C123.083 343.393 123.173 343.046 123.355 342.742C123.541 342.438 123.789 342.203 124.099 342.038C124.413 341.873 124.752 341.79 125.115 341.79C125.451 341.79 125.744 341.859 125.995 341.998C126.251 342.137 126.443 342.313 126.571 342.526C126.704 342.739 126.771 342.95 126.771 343.158C126.771 343.355 126.723 343.499 126.627 343.59C126.536 343.675 126.373 343.734 126.139 343.766L124.539 343.998C124.485 344.003 124.448 344.017 124.427 344.038C124.405 344.054 124.395 344.083 124.395 344.126C124.395 344.265 124.435 344.406 124.515 344.55C124.6 344.694 124.725 344.817 124.891 344.918C125.056 345.014 125.245 345.062 125.459 345.062C125.693 345.062 125.899 345.014 126.075 344.918C126.256 344.822 126.4 344.707 126.507 344.574C126.512 344.569 126.515 344.566 126.515 344.566C126.552 344.523 126.592 344.502 126.635 344.502C126.715 344.502 126.768 344.531 126.795 344.59C126.821 344.649 126.824 344.707 126.803 344.766C126.739 344.953 126.632 345.129 126.483 345.294C126.339 345.454 126.147 345.587 125.907 345.694C125.672 345.795 125.397 345.846 125.083 345.846ZM125.427 343.318C125.517 343.302 125.581 343.275 125.619 343.238C125.656 343.201 125.675 343.147 125.675 343.078C125.675 342.966 125.645 342.849 125.587 342.726C125.528 342.603 125.443 342.502 125.331 342.422C125.224 342.342 125.101 342.302 124.963 342.302C124.829 342.302 124.709 342.339 124.603 342.414C124.496 342.483 124.411 342.587 124.347 342.726C124.288 342.865 124.259 343.03 124.259 343.222C124.259 343.355 124.272 343.435 124.299 343.462C124.331 343.489 124.387 343.494 124.467 343.478L125.427 343.318ZM130.188 345.83C130.161 345.83 130.086 345.822 129.964 345.806C129.713 345.769 129.486 345.75 129.284 345.75H127.388C127.286 345.75 127.209 345.734 127.156 345.702C127.108 345.665 127.084 345.619 127.084 345.566C127.084 345.518 127.097 345.467 127.124 345.414C127.15 345.355 127.18 345.302 127.212 345.254L129.172 342.566C129.198 342.523 129.206 342.486 129.196 342.454C129.19 342.422 129.164 342.406 129.116 342.406H128.228C128.153 342.406 128.089 342.419 128.036 342.446C127.988 342.473 127.942 342.523 127.9 342.598C127.862 342.673 127.817 342.787 127.764 342.942C127.721 343.043 127.673 343.115 127.62 343.158C127.572 343.195 127.508 343.214 127.428 343.214C127.364 343.214 127.313 343.198 127.276 343.166C127.238 343.134 127.214 343.065 127.204 342.958C127.198 342.846 127.222 342.686 127.276 342.478C127.334 342.275 127.38 342.126 127.412 342.03C127.444 341.929 127.481 341.865 127.524 341.838C127.566 341.806 127.625 341.79 127.7 341.79C127.737 341.79 127.806 341.798 127.908 341.814C128.153 341.851 128.39 341.87 128.62 341.87H130.548C130.622 341.87 130.678 341.889 130.716 341.926C130.753 341.963 130.772 342.003 130.772 342.046C130.772 342.11 130.737 342.19 130.668 342.286L128.684 345.054C128.662 345.091 128.654 345.129 128.66 345.166C128.67 345.198 128.7 345.214 128.748 345.214H129.66C129.74 345.214 129.806 345.198 129.86 345.166C129.913 345.134 129.958 345.081 129.996 345.006C130.038 344.931 130.086 344.809 130.14 344.638C130.182 344.537 130.23 344.467 130.284 344.43C130.337 344.387 130.404 344.366 130.484 344.366C130.548 344.366 130.598 344.382 130.636 344.414C130.673 344.446 130.694 344.521 130.7 344.638C130.705 344.75 130.678 344.91 130.62 345.118C130.566 345.331 130.521 345.489 130.484 345.59C130.452 345.691 130.414 345.755 130.372 345.782C130.329 345.814 130.268 345.83 130.188 345.83ZM133.29 345.846C132.864 345.846 132.482 345.758 132.146 345.582C131.816 345.406 131.557 345.163 131.37 344.854C131.189 344.545 131.098 344.195 131.098 343.806C131.098 343.417 131.189 343.067 131.37 342.758C131.557 342.449 131.816 342.209 132.146 342.038C132.482 341.862 132.864 341.774 133.29 341.774C133.717 341.774 134.096 341.862 134.426 342.038C134.757 342.209 135.016 342.449 135.202 342.758C135.389 343.067 135.482 343.417 135.482 343.806C135.482 344.201 135.389 344.553 135.202 344.862C135.016 345.171 134.757 345.414 134.426 345.59C134.096 345.761 133.717 345.846 133.29 345.846ZM133.394 345.326C133.56 345.326 133.706 345.283 133.834 345.198C133.962 345.113 134.061 344.99 134.13 344.83C134.2 344.665 134.234 344.473 134.234 344.254C134.234 343.971 134.192 343.678 134.106 343.374C134.021 343.07 133.896 342.817 133.73 342.614C133.57 342.411 133.384 342.31 133.17 342.31C133.01 342.31 132.866 342.353 132.738 342.438C132.61 342.523 132.512 342.646 132.442 342.806C132.373 342.961 132.338 343.147 132.338 343.366C132.338 343.654 132.381 343.95 132.466 344.254C132.552 344.558 132.674 344.814 132.834 345.022C132.994 345.225 133.181 345.326 133.394 345.326ZM137.472 345.75C137.264 345.75 137.117 345.734 137.032 345.702C136.952 345.665 136.912 345.598 136.912 345.502C136.912 345.443 136.936 345.393 136.984 345.35C137.037 345.302 137.107 345.254 137.192 345.206C137.363 345.137 137.485 345.073 137.56 345.014C137.635 344.955 137.685 344.883 137.712 344.798C137.739 344.707 137.752 344.587 137.752 344.438V341.054C137.752 340.958 137.744 340.889 137.728 340.846C137.712 340.798 137.685 340.763 137.648 340.742C137.611 340.715 137.56 340.702 137.496 340.702H137.168C137.067 340.702 136.981 340.729 136.912 340.782C136.848 340.83 136.789 340.91 136.736 341.022C136.688 341.129 136.619 341.313 136.528 341.574L136.512 341.63C136.432 341.811 136.357 341.939 136.288 342.014C136.224 342.089 136.141 342.126 136.04 342.126C135.907 342.126 135.821 342.075 135.784 341.974C135.747 341.867 135.747 341.723 135.784 341.542C135.821 341.361 135.88 341.134 135.96 340.862C136.013 340.675 136.069 340.515 136.128 340.382C136.187 340.249 136.243 340.15 136.296 340.086C136.355 340.017 136.416 339.982 136.48 339.982C136.517 339.982 136.557 339.99 136.6 340.006C136.643 340.017 136.683 340.03 136.72 340.046C136.795 340.078 136.867 340.105 136.936 340.126C137.011 340.142 137.104 340.15 137.216 340.15H139.496C139.635 340.15 139.741 340.142 139.816 340.126C139.896 340.105 139.976 340.078 140.056 340.046C140.147 340.003 140.219 339.982 140.272 339.982C140.336 339.982 140.392 340.009 140.44 340.062C140.488 340.11 140.541 340.198 140.6 340.326C140.659 340.454 140.72 340.633 140.784 340.862C140.875 341.15 140.939 341.385 140.976 341.566C141.013 341.742 141.013 341.881 140.976 341.982C140.944 342.078 140.864 342.126 140.736 342.126C140.64 342.126 140.555 342.089 140.48 342.014C140.405 341.939 140.331 341.811 140.256 341.63L140.216 341.534C140.131 341.299 140.064 341.129 140.016 341.022C139.968 340.91 139.912 340.83 139.848 340.782C139.784 340.729 139.704 340.702 139.608 340.702H139.272C139.203 340.702 139.149 340.715 139.112 340.742C139.075 340.763 139.048 340.798 139.032 340.846C139.016 340.889 139.008 340.958 139.008 341.054V344.422C139.008 344.582 139.021 344.707 139.048 344.798C139.075 344.883 139.125 344.955 139.2 345.014C139.275 345.073 139.397 345.137 139.568 345.206C139.669 345.259 139.741 345.307 139.784 345.35C139.827 345.393 139.848 345.443 139.848 345.502C139.848 345.587 139.813 345.651 139.744 345.694C139.675 345.737 139.544 345.758 139.352 345.758C139.165 345.758 138.992 345.758 138.832 345.758C138.677 345.758 138.528 345.755 138.384 345.75C138.245 345.75 138.101 345.75 137.952 345.75C137.803 345.75 137.643 345.75 137.472 345.75ZM142.078 345.798C141.859 345.798 141.691 345.787 141.574 345.766C141.456 345.745 141.374 345.715 141.326 345.678C141.283 345.641 141.262 345.59 141.262 345.526C141.262 345.43 141.315 345.358 141.422 345.31C141.55 345.262 141.638 345.206 141.686 345.142C141.739 345.078 141.774 345.003 141.79 344.918C141.806 344.827 141.814 344.694 141.814 344.518V342.974C141.814 342.851 141.798 342.758 141.766 342.694C141.739 342.63 141.683 342.593 141.598 342.582C141.56 342.582 141.504 342.577 141.43 342.566C141.36 342.561 141.307 342.545 141.27 342.518C141.238 342.491 141.222 342.454 141.222 342.406C141.222 342.331 141.248 342.275 141.302 342.238C141.355 342.195 141.438 342.153 141.55 342.11C141.662 342.067 141.776 342.027 141.894 341.99C142.016 341.947 142.128 341.915 142.23 341.894C142.416 341.846 142.563 341.822 142.67 341.822C142.782 341.822 142.862 341.843 142.91 341.886C142.963 341.923 142.99 341.993 142.99 342.094V344.51C142.99 344.686 142.995 344.819 143.006 344.91C143.022 344.995 143.056 345.07 143.11 345.134C143.163 345.198 143.251 345.254 143.374 345.302C143.427 345.329 143.467 345.361 143.494 345.398C143.526 345.43 143.542 345.473 143.542 345.526C143.542 345.59 143.523 345.641 143.486 345.678C143.448 345.715 143.371 345.745 143.254 345.766C143.142 345.787 142.974 345.798 142.75 345.798C142.638 345.798 142.526 345.798 142.414 345.798C142.302 345.798 142.19 345.798 142.078 345.798ZM142.318 341.334C142.088 341.334 141.902 341.283 141.758 341.182C141.614 341.081 141.542 340.947 141.542 340.782C141.542 340.622 141.614 340.494 141.758 340.398C141.902 340.297 142.088 340.246 142.318 340.246C142.536 340.246 142.715 340.297 142.854 340.398C142.992 340.494 143.062 340.622 143.062 340.782C143.062 340.947 142.992 341.081 142.854 341.182C142.72 341.283 142.542 341.334 142.318 341.334ZM144.232 345.774C144.083 345.774 143.968 345.758 143.888 345.726C143.814 345.694 143.776 345.633 143.776 345.542C143.776 345.489 143.795 345.446 143.832 345.414C143.87 345.382 143.926 345.35 144 345.318C144.07 345.297 144.131 345.27 144.184 345.238C144.238 345.201 144.291 345.15 144.344 345.086C144.403 345.022 144.467 344.945 144.536 344.854L145.216 343.926C145.259 343.873 145.28 343.814 145.28 343.75C145.286 343.686 145.27 343.627 145.232 343.574L144.6 342.678L144.552 342.614C144.51 342.55 144.472 342.505 144.44 342.478C144.408 342.446 144.368 342.422 144.32 342.406C144.278 342.385 144.222 342.369 144.152 342.358C144.078 342.331 144.024 342.299 143.992 342.262C143.96 342.225 143.944 342.171 143.944 342.102C143.944 342.006 143.982 341.939 144.056 341.902C144.131 341.865 144.243 341.846 144.392 341.846C144.616 341.846 144.854 341.846 145.104 341.846C145.355 341.846 145.598 341.846 145.832 341.846C145.976 341.846 146.086 341.865 146.16 341.902C146.235 341.934 146.272 341.99 146.272 342.07C146.272 342.118 146.256 342.161 146.224 342.198C146.198 342.23 146.163 342.257 146.12 342.278C146.035 342.299 145.982 342.329 145.96 342.366C145.944 342.403 145.947 342.449 145.968 342.502C145.995 342.55 146.035 342.614 146.088 342.694L146.36 343.078C146.382 343.115 146.406 343.134 146.432 343.134C146.464 343.134 146.491 343.118 146.512 343.086L146.864 342.582C146.928 342.491 146.952 342.422 146.936 342.374C146.926 342.326 146.867 342.289 146.76 342.262C146.718 342.241 146.683 342.217 146.656 342.19C146.635 342.158 146.624 342.121 146.624 342.078C146.624 341.982 146.656 341.918 146.72 341.886C146.79 341.854 146.904 341.838 147.064 341.838C147.182 341.843 147.307 341.846 147.44 341.846C147.574 341.846 147.696 341.843 147.808 341.838C147.942 341.838 148.043 341.857 148.112 341.894C148.182 341.931 148.216 341.993 148.216 342.078C148.216 342.131 148.195 342.177 148.152 342.214C148.115 342.246 148.062 342.275 147.992 342.302C147.907 342.323 147.83 342.361 147.76 342.414C147.691 342.462 147.622 342.531 147.552 342.622L146.896 343.51C146.859 343.558 146.84 343.611 146.84 343.67C146.846 343.729 146.864 343.787 146.896 343.846L147.64 344.902C147.71 344.993 147.766 345.062 147.808 345.11C147.851 345.153 147.894 345.185 147.936 345.206C147.984 345.227 148.046 345.246 148.12 345.262C148.184 345.289 148.23 345.321 148.256 345.358C148.288 345.395 148.304 345.449 148.304 345.518C148.304 345.614 148.259 345.681 148.168 345.718C148.078 345.755 147.907 345.774 147.656 345.774C147.475 345.774 147.291 345.774 147.104 345.774C146.923 345.774 146.742 345.774 146.56 345.774C146.363 345.774 146.216 345.755 146.12 345.718C146.03 345.681 145.984 345.625 145.984 345.55C145.984 345.491 145.995 345.449 146.016 345.422C146.043 345.395 146.078 345.371 146.12 345.35C146.2 345.323 146.254 345.294 146.28 345.262C146.307 345.23 146.312 345.19 146.296 345.142C146.28 345.094 146.246 345.03 146.192 344.95L145.776 344.358C145.739 344.315 145.704 344.299 145.672 344.31C145.64 344.315 145.606 344.345 145.568 344.398L145.128 345.014C145.059 345.121 145.03 345.198 145.04 345.246C145.056 345.294 145.11 345.329 145.2 345.35C145.2 345.35 145.203 345.353 145.208 345.358C145.214 345.358 145.216 345.358 145.216 345.358C145.264 345.379 145.302 345.406 145.328 345.438C145.355 345.47 145.368 345.507 145.368 345.55C145.368 345.635 145.328 345.694 145.248 345.726C145.168 345.758 145.067 345.774 144.944 345.774C144.832 345.774 144.718 345.774 144.6 345.774C144.483 345.774 144.36 345.774 144.232 345.774Z" fill="#22272E" fill-opacity="0.5"/>
<path d="M77.4062 351.25H77.0195L75.464 348.891V351.25H75.0773V348.283H75.464L77.0195 350.638V348.283H77.4062V351.25ZM80.165 348.288V348.602H78.8773V349.601H79.9228V349.915H78.8773V351.25H78.4905V348.288H80.165ZM82.8804 348.288V348.602H82.0729V351.25H81.6861V348.602H80.8744V348.288H82.8804ZM88.1403 348.878C88.3216 348.878 88.4831 348.917 88.6248 348.993C88.7664 349.067 88.8783 349.179 88.9605 349.329C89.0427 349.479 89.0838 349.662 89.0838 349.877V351.25H88.7013V349.932C88.7013 349.7 88.6432 349.523 88.527 349.401C88.4137 349.277 88.2593 349.214 88.0638 349.214C87.8626 349.214 87.7025 349.279 87.5835 349.41C87.4645 349.537 87.405 349.723 87.405 349.966V351.25H87.0225V349.932C87.0225 349.7 86.9644 349.523 86.8483 349.401C86.7349 349.277 86.5805 349.214 86.385 349.214C86.1838 349.214 86.0238 349.279 85.9048 349.41C85.7858 349.537 85.7263 349.723 85.7263 349.966V351.25H85.3395V348.921H85.7263V349.257C85.8028 349.135 85.9048 349.041 86.0323 348.976C86.1626 348.911 86.3057 348.878 86.4615 348.878C86.657 348.878 86.8298 348.922 86.98 349.01C87.1302 349.098 87.2421 349.227 87.3158 349.397C87.3809 349.233 87.4886 349.105 87.6388 349.014C87.7889 348.924 87.9561 348.878 88.1403 348.878ZM91.1589 351.288C90.9408 351.288 90.7424 351.239 90.5639 351.139C90.3883 351.04 90.2494 350.9 90.1474 350.719C90.0483 350.535 89.9987 350.322 89.9987 350.081C89.9987 349.843 90.0497 349.634 90.1517 349.452C90.2565 349.268 90.3982 349.128 90.5767 349.031C90.7552 348.932 90.9549 348.883 91.1759 348.883C91.3969 348.883 91.5967 348.932 91.7752 349.031C91.9537 349.128 92.0939 349.267 92.1959 349.448C92.3008 349.629 92.3532 349.84 92.3532 350.081C92.3532 350.322 92.2993 350.535 92.1917 350.719C92.0868 350.9 91.9438 351.04 91.7624 351.139C91.5811 351.239 91.3799 351.288 91.1589 351.288ZM91.1589 350.948C91.2978 350.948 91.4281 350.916 91.5499 350.85C91.6718 350.785 91.7695 350.688 91.8432 350.557C91.9197 350.427 91.9579 350.268 91.9579 350.081C91.9579 349.894 91.9211 349.736 91.8474 349.605C91.7738 349.475 91.6774 349.379 91.5584 349.316C91.4394 349.251 91.3105 349.218 91.1717 349.218C91.03 349.218 90.8997 349.251 90.7807 349.316C90.6645 349.379 90.571 349.475 90.5002 349.605C90.4293 349.736 90.3939 349.894 90.3939 350.081C90.3939 350.271 90.4279 350.431 90.4959 350.561C90.5668 350.692 90.6603 350.79 90.7764 350.855C90.8926 350.917 91.0201 350.948 91.1589 350.948ZM94.1537 350.893L94.8762 348.921H95.2884L94.3747 351.25H93.9242L93.0104 348.921H93.4269L94.1537 350.893ZM96.2937 348.543C96.2201 348.543 96.1577 348.517 96.1067 348.466C96.0557 348.415 96.0302 348.353 96.0302 348.279C96.0302 348.206 96.0557 348.143 96.1067 348.092C96.1577 348.041 96.2201 348.016 96.2937 348.016C96.3646 348.016 96.4241 348.041 96.4722 348.092C96.5232 348.143 96.5487 348.206 96.5487 348.279C96.5487 348.353 96.5232 348.415 96.4722 348.466C96.4241 348.517 96.3646 348.543 96.2937 348.543ZM96.4807 348.921V351.25H96.094V348.921H96.4807ZM99.6899 349.996C99.6899 350.07 99.6856 350.148 99.6771 350.23H97.8156C97.8298 350.459 97.9077 350.639 98.0494 350.77C98.1939 350.897 98.3681 350.961 98.5721 350.961C98.7393 350.961 98.8781 350.923 98.9886 350.846C99.102 350.767 99.1813 350.662 99.2266 350.532H99.6431C99.5808 350.756 99.4561 350.938 99.2691 351.08C99.0821 351.219 98.8498 351.288 98.5721 351.288C98.3511 351.288 98.1528 351.239 97.9771 351.139C97.8043 351.04 97.6683 350.9 97.5691 350.719C97.47 350.535 97.4204 350.322 97.4204 350.081C97.4204 349.84 97.4686 349.629 97.5649 349.448C97.6612 349.267 97.7958 349.128 97.9686 349.031C98.1443 348.932 98.3455 348.883 98.5721 348.883C98.7931 348.883 98.9886 348.931 99.1586 349.027C99.3286 349.124 99.459 349.257 99.5496 349.427C99.6431 349.594 99.6899 349.784 99.6899 349.996ZM99.2904 349.915C99.2904 349.768 99.2578 349.642 99.1926 349.537C99.1275 349.43 99.0382 349.349 98.9249 349.295C98.8144 349.238 98.6911 349.21 98.5551 349.21C98.3596 349.21 98.1925 349.272 98.0536 349.397C97.9176 349.522 97.8397 349.694 97.8199 349.915H99.2904ZM102.655 349.24V350.612C102.655 350.726 102.679 350.807 102.727 350.855C102.776 350.9 102.859 350.923 102.978 350.923H103.263V351.25H102.914C102.699 351.25 102.538 351.2 102.43 351.101C102.322 351.002 102.268 350.839 102.268 350.612V349.24H101.967V348.921H102.268V348.334H102.655V348.921H103.263V349.24H102.655ZM104.356 348.543C104.283 348.543 104.22 348.517 104.169 348.466C104.118 348.415 104.093 348.353 104.093 348.279C104.093 348.206 104.118 348.143 104.169 348.092C104.22 348.041 104.283 348.016 104.356 348.016C104.427 348.016 104.487 348.041 104.535 348.092C104.586 348.143 104.611 348.206 104.611 348.279C104.611 348.353 104.586 348.415 104.535 348.466C104.487 348.517 104.427 348.543 104.356 348.543ZM104.543 348.921V351.25H104.157V348.921H104.543ZM105.483 350.081C105.483 349.84 105.531 349.631 105.627 349.452C105.724 349.271 105.857 349.131 106.027 349.031C106.2 348.932 106.397 348.883 106.618 348.883C106.904 348.883 107.139 348.952 107.323 349.091C107.51 349.23 107.633 349.422 107.693 349.669H107.276C107.237 349.527 107.159 349.415 107.043 349.333C106.929 349.251 106.788 349.21 106.618 349.21C106.397 349.21 106.218 349.286 106.082 349.439C105.946 349.59 105.878 349.804 105.878 350.081C105.878 350.362 105.946 350.578 106.082 350.731C106.218 350.884 106.397 350.961 106.618 350.961C106.788 350.961 106.929 350.921 107.043 350.842C107.156 350.763 107.234 350.649 107.276 350.502H107.693C107.631 350.74 107.506 350.931 107.319 351.076C107.132 351.217 106.898 351.288 106.618 351.288C106.397 351.288 106.2 351.239 106.027 351.139C105.857 351.04 105.724 350.9 105.627 350.719C105.531 350.537 105.483 350.325 105.483 350.081ZM109.934 351.25L109.021 350.221V351.25H108.634V348.105H109.021V349.954L109.917 348.921H110.457L109.361 350.081L110.461 351.25H109.934ZM113.371 349.996C113.371 350.07 113.367 350.148 113.358 350.23H111.497C111.511 350.459 111.589 350.639 111.731 350.77C111.875 350.897 112.049 350.961 112.253 350.961C112.421 350.961 112.559 350.923 112.67 350.846C112.783 350.767 112.863 350.662 112.908 350.532H113.324C113.262 350.756 113.137 350.938 112.95 351.08C112.763 351.219 112.531 351.288 112.253 351.288C112.032 351.288 111.834 351.239 111.658 351.139C111.486 351.04 111.35 350.9 111.25 350.719C111.151 350.535 111.102 350.322 111.102 350.081C111.102 349.84 111.15 349.629 111.246 349.448C111.343 349.267 111.477 349.128 111.65 349.031C111.826 348.932 112.027 348.883 112.253 348.883C112.474 348.883 112.67 348.931 112.84 349.027C113.01 349.124 113.14 349.257 113.231 349.427C113.324 349.594 113.371 349.784 113.371 349.996ZM112.972 349.915C112.972 349.768 112.939 349.642 112.874 349.537C112.809 349.43 112.72 349.349 112.606 349.295C112.496 349.238 112.372 349.21 112.236 349.21C112.041 349.21 111.874 349.272 111.735 349.397C111.599 349.522 111.521 349.694 111.501 349.915H112.972ZM114.778 349.24V350.612C114.778 350.726 114.803 350.807 114.851 350.855C114.899 350.9 114.982 350.923 115.101 350.923H115.386V351.25H115.038C114.822 351.25 114.661 351.2 114.553 351.101C114.446 351.002 114.392 350.839 114.392 350.612V349.24H114.09V348.921H114.392V348.334H114.778V348.921H115.386V349.24H114.778ZM116.48 348.543C116.406 348.543 116.344 348.517 116.293 348.466C116.242 348.415 116.216 348.353 116.216 348.279C116.216 348.206 116.242 348.143 116.293 348.092C116.344 348.041 116.406 348.016 116.48 348.016C116.55 348.016 116.61 348.041 116.658 348.092C116.709 348.143 116.735 348.206 116.735 348.279C116.735 348.353 116.709 348.415 116.658 348.466C116.61 348.517 116.55 348.543 116.48 348.543ZM116.667 348.921V351.25H116.28V348.921H116.667ZM118.885 348.878C119.169 348.878 119.398 348.965 119.574 349.138C119.75 349.308 119.837 349.554 119.837 349.877V351.25H119.455V349.932C119.455 349.7 119.397 349.523 119.281 349.401C119.165 349.277 119.006 349.214 118.805 349.214C118.601 349.214 118.438 349.278 118.316 349.405C118.197 349.533 118.137 349.719 118.137 349.962V351.25H117.751V348.921H118.137V349.252C118.214 349.133 118.317 349.041 118.448 348.976C118.581 348.911 118.727 348.878 118.885 348.878ZM121.855 348.883C122.056 348.883 122.232 348.927 122.382 349.014C122.535 349.102 122.648 349.213 122.722 349.346V348.921H123.113V351.301C123.113 351.514 123.067 351.702 122.977 351.866C122.886 352.033 122.756 352.164 122.586 352.257C122.419 352.351 122.223 352.398 121.999 352.398C121.693 352.398 121.438 352.325 121.234 352.181C121.03 352.036 120.91 351.839 120.873 351.59H121.255C121.298 351.732 121.386 351.845 121.519 351.93C121.652 352.018 121.812 352.062 121.999 352.062C122.212 352.062 122.385 351.995 122.518 351.862C122.654 351.729 122.722 351.542 122.722 351.301V350.812C122.645 350.948 122.532 351.062 122.382 351.152C122.232 351.243 122.056 351.288 121.855 351.288C121.648 351.288 121.459 351.237 121.289 351.135C121.122 351.033 120.991 350.89 120.894 350.706C120.798 350.522 120.75 350.312 120.75 350.077C120.75 349.839 120.798 349.631 120.894 349.452C120.991 349.271 121.122 349.131 121.289 349.031C121.459 348.932 121.648 348.883 121.855 348.883ZM122.722 350.081C122.722 349.906 122.686 349.753 122.615 349.622C122.545 349.492 122.448 349.393 122.326 349.325C122.207 349.254 122.076 349.218 121.931 349.218C121.787 349.218 121.655 349.252 121.536 349.32C121.417 349.388 121.322 349.488 121.251 349.618C121.18 349.748 121.145 349.901 121.145 350.077C121.145 350.255 121.18 350.411 121.251 350.544C121.322 350.675 121.417 350.775 121.536 350.846C121.655 350.914 121.787 350.948 121.931 350.948C122.076 350.948 122.207 350.914 122.326 350.846C122.448 350.775 122.545 350.675 122.615 350.544C122.686 350.411 122.722 350.257 122.722 350.081ZM126.574 351.288C126.395 351.288 126.235 351.259 126.094 351.199C125.952 351.137 125.84 351.052 125.758 350.944C125.676 350.833 125.63 350.707 125.622 350.566H126.021C126.033 350.682 126.087 350.777 126.183 350.85C126.282 350.924 126.411 350.961 126.57 350.961C126.717 350.961 126.833 350.928 126.918 350.863C127.003 350.798 127.046 350.716 127.046 350.617C127.046 350.515 127 350.44 126.91 350.391C126.819 350.34 126.679 350.291 126.489 350.243C126.316 350.197 126.174 350.152 126.064 350.107C125.956 350.059 125.863 349.989 125.783 349.898C125.707 349.805 125.669 349.683 125.669 349.533C125.669 349.414 125.704 349.305 125.775 349.206C125.846 349.107 125.946 349.029 126.077 348.972C126.207 348.912 126.356 348.883 126.523 348.883C126.781 348.883 126.989 348.948 127.148 349.078C127.306 349.209 127.391 349.387 127.403 349.614H127.016C127.007 349.492 126.958 349.394 126.867 349.32C126.779 349.247 126.66 349.21 126.51 349.21C126.371 349.21 126.261 349.24 126.179 349.299C126.096 349.359 126.055 349.437 126.055 349.533C126.055 349.609 126.079 349.673 126.128 349.724C126.179 349.772 126.241 349.812 126.315 349.843C126.391 349.872 126.496 349.904 126.629 349.941C126.796 349.986 126.932 350.032 127.037 350.077C127.142 350.119 127.231 350.185 127.305 350.272C127.381 350.36 127.421 350.475 127.424 350.617C127.424 350.744 127.388 350.859 127.318 350.961C127.247 351.063 127.146 351.144 127.016 351.203C126.888 351.26 126.741 351.288 126.574 351.288ZM129.411 351.288C129.192 351.288 128.994 351.239 128.816 351.139C128.64 351.04 128.501 350.9 128.399 350.719C128.3 350.535 128.25 350.322 128.25 350.081C128.25 349.843 128.301 349.634 128.403 349.452C128.508 349.268 128.65 349.128 128.828 349.031C129.007 348.932 129.207 348.883 129.428 348.883C129.649 348.883 129.848 348.932 130.027 349.031C130.205 349.128 130.346 349.267 130.448 349.448C130.552 349.629 130.605 349.84 130.605 350.081C130.605 350.322 130.551 350.535 130.443 350.719C130.338 350.9 130.195 351.04 130.014 351.139C129.833 351.239 129.632 351.288 129.411 351.288ZM129.411 350.948C129.549 350.948 129.68 350.916 129.802 350.85C129.923 350.785 130.021 350.688 130.095 350.557C130.171 350.427 130.21 350.268 130.21 350.081C130.21 349.894 130.173 349.736 130.099 349.605C130.025 349.475 129.929 349.379 129.81 349.316C129.691 349.251 129.562 349.218 129.423 349.218C129.282 349.218 129.151 349.251 129.032 349.316C128.916 349.379 128.823 349.475 128.752 349.605C128.681 349.736 128.646 349.894 128.646 350.081C128.646 350.271 128.68 350.431 128.748 350.561C128.818 350.692 128.912 350.79 129.028 350.855C129.144 350.917 129.272 350.948 129.411 350.948ZM131.925 348.105V351.25H131.538V348.105H131.925ZM135.075 348.921V351.25H134.688V350.906C134.614 351.025 134.511 351.118 134.378 351.186C134.247 351.251 134.103 351.284 133.944 351.284C133.763 351.284 133.6 351.247 133.455 351.173C133.311 351.097 133.196 350.984 133.111 350.833C133.029 350.683 132.988 350.501 132.988 350.285V348.921H133.37V350.234C133.37 350.464 133.429 350.641 133.545 350.765C133.661 350.887 133.82 350.948 134.021 350.948C134.228 350.948 134.39 350.884 134.509 350.757C134.628 350.629 134.688 350.444 134.688 350.2V348.921H135.075ZM136.624 349.24V350.612C136.624 350.726 136.649 350.807 136.697 350.855C136.745 350.9 136.828 350.923 136.947 350.923H137.232V351.25H136.884C136.668 351.25 136.507 351.2 136.399 351.101C136.292 351.002 136.238 350.839 136.238 350.612V349.24H135.936V348.921H136.238V348.334H136.624V348.921H137.232V349.24H136.624ZM138.326 348.543C138.252 348.543 138.19 348.517 138.139 348.466C138.088 348.415 138.062 348.353 138.062 348.279C138.062 348.206 138.088 348.143 138.139 348.092C138.19 348.041 138.252 348.016 138.326 348.016C138.396 348.016 138.456 348.041 138.504 348.092C138.555 348.143 138.581 348.206 138.581 348.279C138.581 348.353 138.555 348.415 138.504 348.466C138.456 348.517 138.396 348.543 138.326 348.543ZM138.513 348.921V351.25H138.126V348.921H138.513ZM140.612 351.288C140.394 351.288 140.196 351.239 140.017 351.139C139.842 351.04 139.703 350.9 139.601 350.719C139.502 350.535 139.452 350.322 139.452 350.081C139.452 349.843 139.503 349.634 139.605 349.452C139.71 349.268 139.852 349.128 140.03 349.031C140.209 348.932 140.408 348.883 140.629 348.883C140.85 348.883 141.05 348.932 141.229 349.031C141.407 349.128 141.547 349.267 141.649 349.448C141.754 349.629 141.807 349.84 141.807 350.081C141.807 350.322 141.753 350.535 141.645 350.719C141.54 350.9 141.397 351.04 141.216 351.139C141.035 351.239 140.833 351.288 140.612 351.288ZM140.612 350.948C140.751 350.948 140.882 350.916 141.003 350.85C141.125 350.785 141.223 350.688 141.297 350.557C141.373 350.427 141.411 350.268 141.411 350.081C141.411 349.894 141.375 349.736 141.301 349.605C141.227 349.475 141.131 349.379 141.012 349.316C140.893 349.251 140.764 349.218 140.625 349.218C140.484 349.218 140.353 349.251 140.234 349.316C140.118 349.379 140.025 349.475 139.954 349.605C139.883 349.736 139.847 349.894 139.847 350.081C139.847 350.271 139.881 350.431 139.949 350.561C140.02 350.692 140.114 350.79 140.23 350.855C140.346 350.917 140.474 350.948 140.612 350.948ZM143.875 348.878C144.158 348.878 144.388 348.965 144.563 349.138C144.739 349.308 144.827 349.554 144.827 349.877V351.25H144.444V349.932C144.444 349.7 144.386 349.523 144.27 349.401C144.154 349.277 143.995 349.214 143.794 349.214C143.59 349.214 143.427 349.278 143.305 349.405C143.186 349.533 143.127 349.719 143.127 349.962V351.25H142.74V348.921H143.127V349.252C143.203 349.133 143.307 349.041 143.437 348.976C143.57 348.911 143.716 348.878 143.875 348.878Z" fill="white"/>
<path d="M77.4062 351.25H77.0195L75.464 348.891V351.25H75.0773V348.283H75.464L77.0195 350.638V348.283H77.4062V351.25ZM80.165 348.288V348.602H78.8773V349.601H79.9228V349.915H78.8773V351.25H78.4905V348.288H80.165ZM82.8804 348.288V348.602H82.0729V351.25H81.6861V348.602H80.8744V348.288H82.8804ZM88.1403 348.878C88.3216 348.878 88.4831 348.917 88.6248 348.993C88.7664 349.067 88.8783 349.179 88.9605 349.329C89.0427 349.479 89.0838 349.662 89.0838 349.877V351.25H88.7013V349.932C88.7013 349.7 88.6432 349.523 88.527 349.401C88.4137 349.277 88.2593 349.214 88.0638 349.214C87.8626 349.214 87.7025 349.279 87.5835 349.41C87.4645 349.537 87.405 349.723 87.405 349.966V351.25H87.0225V349.932C87.0225 349.7 86.9644 349.523 86.8483 349.401C86.7349 349.277 86.5805 349.214 86.385 349.214C86.1838 349.214 86.0238 349.279 85.9048 349.41C85.7858 349.537 85.7263 349.723 85.7263 349.966V351.25H85.3395V348.921H85.7263V349.257C85.8028 349.135 85.9048 349.041 86.0323 348.976C86.1626 348.911 86.3057 348.878 86.4615 348.878C86.657 348.878 86.8298 348.922 86.98 349.01C87.1302 349.098 87.2421 349.227 87.3158 349.397C87.3809 349.233 87.4886 349.105 87.6388 349.014C87.7889 348.924 87.9561 348.878 88.1403 348.878ZM91.1589 351.288C90.9408 351.288 90.7424 351.239 90.5639 351.139C90.3883 351.04 90.2494 350.9 90.1474 350.719C90.0483 350.535 89.9987 350.322 89.9987 350.081C89.9987 349.843 90.0497 349.634 90.1517 349.452C90.2565 349.268 90.3982 349.128 90.5767 349.031C90.7552 348.932 90.9549 348.883 91.1759 348.883C91.3969 348.883 91.5967 348.932 91.7752 349.031C91.9537 349.128 92.0939 349.267 92.1959 349.448C92.3008 349.629 92.3532 349.84 92.3532 350.081C92.3532 350.322 92.2993 350.535 92.1917 350.719C92.0868 350.9 91.9438 351.04 91.7624 351.139C91.5811 351.239 91.3799 351.288 91.1589 351.288ZM91.1589 350.948C91.2978 350.948 91.4281 350.916 91.5499 350.85C91.6718 350.785 91.7695 350.688 91.8432 350.557C91.9197 350.427 91.9579 350.268 91.9579 350.081C91.9579 349.894 91.9211 349.736 91.8474 349.605C91.7738 349.475 91.6774 349.379 91.5584 349.316C91.4394 349.251 91.3105 349.218 91.1717 349.218C91.03 349.218 90.8997 349.251 90.7807 349.316C90.6645 349.379 90.571 349.475 90.5002 349.605C90.4293 349.736 90.3939 349.894 90.3939 350.081C90.3939 350.271 90.4279 350.431 90.4959 350.561C90.5668 350.692 90.6603 350.79 90.7764 350.855C90.8926 350.917 91.0201 350.948 91.1589 350.948ZM94.1537 350.893L94.8762 348.921H95.2884L94.3747 351.25H93.9242L93.0104 348.921H93.4269L94.1537 350.893ZM96.2937 348.543C96.2201 348.543 96.1577 348.517 96.1067 348.466C96.0557 348.415 96.0302 348.353 96.0302 348.279C96.0302 348.206 96.0557 348.143 96.1067 348.092C96.1577 348.041 96.2201 348.016 96.2937 348.016C96.3646 348.016 96.4241 348.041 96.4722 348.092C96.5232 348.143 96.5487 348.206 96.5487 348.279C96.5487 348.353 96.5232 348.415 96.4722 348.466C96.4241 348.517 96.3646 348.543 96.2937 348.543ZM96.4807 348.921V351.25H96.094V348.921H96.4807ZM99.6899 349.996C99.6899 350.07 99.6856 350.148 99.6771 350.23H97.8156C97.8298 350.459 97.9077 350.639 98.0494 350.77C98.1939 350.897 98.3681 350.961 98.5721 350.961C98.7393 350.961 98.8781 350.923 98.9886 350.846C99.102 350.767 99.1813 350.662 99.2266 350.532H99.6431C99.5808 350.756 99.4561 350.938 99.2691 351.08C99.0821 351.219 98.8498 351.288 98.5721 351.288C98.3511 351.288 98.1528 351.239 97.9771 351.139C97.8043 351.04 97.6683 350.9 97.5691 350.719C97.47 350.535 97.4204 350.322 97.4204 350.081C97.4204 349.84 97.4686 349.629 97.5649 349.448C97.6612 349.267 97.7958 349.128 97.9686 349.031C98.1443 348.932 98.3455 348.883 98.5721 348.883C98.7931 348.883 98.9886 348.931 99.1586 349.027C99.3286 349.124 99.459 349.257 99.5496 349.427C99.6431 349.594 99.6899 349.784 99.6899 349.996ZM99.2904 349.915C99.2904 349.768 99.2578 349.642 99.1926 349.537C99.1275 349.43 99.0382 349.349 98.9249 349.295C98.8144 349.238 98.6911 349.21 98.5551 349.21C98.3596 349.21 98.1925 349.272 98.0536 349.397C97.9176 349.522 97.8397 349.694 97.8199 349.915H99.2904ZM102.655 349.24V350.612C102.655 350.726 102.679 350.807 102.727 350.855C102.776 350.9 102.859 350.923 102.978 350.923H103.263V351.25H102.914C102.699 351.25 102.538 351.2 102.43 351.101C102.322 351.002 102.268 350.839 102.268 350.612V349.24H101.967V348.921H102.268V348.334H102.655V348.921H103.263V349.24H102.655ZM104.356 348.543C104.283 348.543 104.22 348.517 104.169 348.466C104.118 348.415 104.093 348.353 104.093 348.279C104.093 348.206 104.118 348.143 104.169 348.092C104.22 348.041 104.283 348.016 104.356 348.016C104.427 348.016 104.487 348.041 104.535 348.092C104.586 348.143 104.611 348.206 104.611 348.279C104.611 348.353 104.586 348.415 104.535 348.466C104.487 348.517 104.427 348.543 104.356 348.543ZM104.543 348.921V351.25H104.157V348.921H104.543ZM105.483 350.081C105.483 349.84 105.531 349.631 105.627 349.452C105.724 349.271 105.857 349.131 106.027 349.031C106.2 348.932 106.397 348.883 106.618 348.883C106.904 348.883 107.139 348.952 107.323 349.091C107.51 349.23 107.633 349.422 107.693 349.669H107.276C107.237 349.527 107.159 349.415 107.043 349.333C106.929 349.251 106.788 349.21 106.618 349.21C106.397 349.21 106.218 349.286 106.082 349.439C105.946 349.59 105.878 349.804 105.878 350.081C105.878 350.362 105.946 350.578 106.082 350.731C106.218 350.884 106.397 350.961 106.618 350.961C106.788 350.961 106.929 350.921 107.043 350.842C107.156 350.763 107.234 350.649 107.276 350.502H107.693C107.631 350.74 107.506 350.931 107.319 351.076C107.132 351.217 106.898 351.288 106.618 351.288C106.397 351.288 106.2 351.239 106.027 351.139C105.857 351.04 105.724 350.9 105.627 350.719C105.531 350.537 105.483 350.325 105.483 350.081ZM109.934 351.25L109.021 350.221V351.25H108.634V348.105H109.021V349.954L109.917 348.921H110.457L109.361 350.081L110.461 351.25H109.934ZM113.371 349.996C113.371 350.07 113.367 350.148 113.358 350.23H111.497C111.511 350.459 111.589 350.639 111.731 350.77C111.875 350.897 112.049 350.961 112.253 350.961C112.421 350.961 112.559 350.923 112.67 350.846C112.783 350.767 112.863 350.662 112.908 350.532H113.324C113.262 350.756 113.137 350.938 112.95 351.08C112.763 351.219 112.531 351.288 112.253 351.288C112.032 351.288 111.834 351.239 111.658 351.139C111.486 351.04 111.35 350.9 111.25 350.719C111.151 350.535 111.102 350.322 111.102 350.081C111.102 349.84 111.15 349.629 111.246 349.448C111.343 349.267 111.477 349.128 111.65 349.031C111.826 348.932 112.027 348.883 112.253 348.883C112.474 348.883 112.67 348.931 112.84 349.027C113.01 349.124 113.14 349.257 113.231 349.427C113.324 349.594 113.371 349.784 113.371 349.996ZM112.972 349.915C112.972 349.768 112.939 349.642 112.874 349.537C112.809 349.43 112.72 349.349 112.606 349.295C112.496 349.238 112.372 349.21 112.236 349.21C112.041 349.21 111.874 349.272 111.735 349.397C111.599 349.522 111.521 349.694 111.501 349.915H112.972ZM114.778 349.24V350.612C114.778 350.726 114.803 350.807 114.851 350.855C114.899 350.9 114.982 350.923 115.101 350.923H115.386V351.25H115.038C114.822 351.25 114.661 351.2 114.553 351.101C114.446 351.002 114.392 350.839 114.392 350.612V349.24H114.09V348.921H114.392V348.334H114.778V348.921H115.386V349.24H114.778ZM116.48 348.543C116.406 348.543 116.344 348.517 116.293 348.466C116.242 348.415 116.216 348.353 116.216 348.279C116.216 348.206 116.242 348.143 116.293 348.092C116.344 348.041 116.406 348.016 116.48 348.016C116.55 348.016 116.61 348.041 116.658 348.092C116.709 348.143 116.735 348.206 116.735 348.279C116.735 348.353 116.709 348.415 116.658 348.466C116.61 348.517 116.55 348.543 116.48 348.543ZM116.667 348.921V351.25H116.28V348.921H116.667ZM118.885 348.878C119.169 348.878 119.398 348.965 119.574 349.138C119.75 349.308 119.837 349.554 119.837 349.877V351.25H119.455V349.932C119.455 349.7 119.397 349.523 119.281 349.401C119.165 349.277 119.006 349.214 118.805 349.214C118.601 349.214 118.438 349.278 118.316 349.405C118.197 349.533 118.137 349.719 118.137 349.962V351.25H117.751V348.921H118.137V349.252C118.214 349.133 118.317 349.041 118.448 348.976C118.581 348.911 118.727 348.878 118.885 348.878ZM121.855 348.883C122.056 348.883 122.232 348.927 122.382 349.014C122.535 349.102 122.648 349.213 122.722 349.346V348.921H123.113V351.301C123.113 351.514 123.067 351.702 122.977 351.866C122.886 352.033 122.756 352.164 122.586 352.257C122.419 352.351 122.223 352.398 121.999 352.398C121.693 352.398 121.438 352.325 121.234 352.181C121.03 352.036 120.91 351.839 120.873 351.59H121.255C121.298 351.732 121.386 351.845 121.519 351.93C121.652 352.018 121.812 352.062 121.999 352.062C122.212 352.062 122.385 351.995 122.518 351.862C122.654 351.729 122.722 351.542 122.722 351.301V350.812C122.645 350.948 122.532 351.062 122.382 351.152C122.232 351.243 122.056 351.288 121.855 351.288C121.648 351.288 121.459 351.237 121.289 351.135C121.122 351.033 120.991 350.89 120.894 350.706C120.798 350.522 120.75 350.312 120.75 350.077C120.75 349.839 120.798 349.631 120.894 349.452C120.991 349.271 121.122 349.131 121.289 349.031C121.459 348.932 121.648 348.883 121.855 348.883ZM122.722 350.081C122.722 349.906 122.686 349.753 122.615 349.622C122.545 349.492 122.448 349.393 122.326 349.325C122.207 349.254 122.076 349.218 121.931 349.218C121.787 349.218 121.655 349.252 121.536 349.32C121.417 349.388 121.322 349.488 121.251 349.618C121.18 349.748 121.145 349.901 121.145 350.077C121.145 350.255 121.18 350.411 121.251 350.544C121.322 350.675 121.417 350.775 121.536 350.846C121.655 350.914 121.787 350.948 121.931 350.948C122.076 350.948 122.207 350.914 122.326 350.846C122.448 350.775 122.545 350.675 122.615 350.544C122.686 350.411 122.722 350.257 122.722 350.081ZM126.574 351.288C126.395 351.288 126.235 351.259 126.094 351.199C125.952 351.137 125.84 351.052 125.758 350.944C125.676 350.833 125.63 350.707 125.622 350.566H126.021C126.033 350.682 126.087 350.777 126.183 350.85C126.282 350.924 126.411 350.961 126.57 350.961C126.717 350.961 126.833 350.928 126.918 350.863C127.003 350.798 127.046 350.716 127.046 350.617C127.046 350.515 127 350.44 126.91 350.391C126.819 350.34 126.679 350.291 126.489 350.243C126.316 350.197 126.174 350.152 126.064 350.107C125.956 350.059 125.863 349.989 125.783 349.898C125.707 349.805 125.669 349.683 125.669 349.533C125.669 349.414 125.704 349.305 125.775 349.206C125.846 349.107 125.946 349.029 126.077 348.972C126.207 348.912 126.356 348.883 126.523 348.883C126.781 348.883 126.989 348.948 127.148 349.078C127.306 349.209 127.391 349.387 127.403 349.614H127.016C127.007 349.492 126.958 349.394 126.867 349.32C126.779 349.247 126.66 349.21 126.51 349.21C126.371 349.21 126.261 349.24 126.179 349.299C126.096 349.359 126.055 349.437 126.055 349.533C126.055 349.609 126.079 349.673 126.128 349.724C126.179 349.772 126.241 349.812 126.315 349.843C126.391 349.872 126.496 349.904 126.629 349.941C126.796 349.986 126.932 350.032 127.037 350.077C127.142 350.119 127.231 350.185 127.305 350.272C127.381 350.36 127.421 350.475 127.424 350.617C127.424 350.744 127.388 350.859 127.318 350.961C127.247 351.063 127.146 351.144 127.016 351.203C126.888 351.26 126.741 351.288 126.574 351.288ZM129.411 351.288C129.192 351.288 128.994 351.239 128.816 351.139C128.64 351.04 128.501 350.9 128.399 350.719C128.3 350.535 128.25 350.322 128.25 350.081C128.25 349.843 128.301 349.634 128.403 349.452C128.508 349.268 128.65 349.128 128.828 349.031C129.007 348.932 129.207 348.883 129.428 348.883C129.649 348.883 129.848 348.932 130.027 349.031C130.205 349.128 130.346 349.267 130.448 349.448C130.552 349.629 130.605 349.84 130.605 350.081C130.605 350.322 130.551 350.535 130.443 350.719C130.338 350.9 130.195 351.04 130.014 351.139C129.833 351.239 129.632 351.288 129.411 351.288ZM129.411 350.948C129.549 350.948 129.68 350.916 129.802 350.85C129.923 350.785 130.021 350.688 130.095 350.557C130.171 350.427 130.21 350.268 130.21 350.081C130.21 349.894 130.173 349.736 130.099 349.605C130.025 349.475 129.929 349.379 129.81 349.316C129.691 349.251 129.562 349.218 129.423 349.218C129.282 349.218 129.151 349.251 129.032 349.316C128.916 349.379 128.823 349.475 128.752 349.605C128.681 349.736 128.646 349.894 128.646 350.081C128.646 350.271 128.68 350.431 128.748 350.561C128.818 350.692 128.912 350.79 129.028 350.855C129.144 350.917 129.272 350.948 129.411 350.948ZM131.925 348.105V351.25H131.538V348.105H131.925ZM135.075 348.921V351.25H134.688V350.906C134.614 351.025 134.511 351.118 134.378 351.186C134.247 351.251 134.103 351.284 133.944 351.284C133.763 351.284 133.6 351.247 133.455 351.173C133.311 351.097 133.196 350.984 133.111 350.833C133.029 350.683 132.988 350.501 132.988 350.285V348.921H133.37V350.234C133.37 350.464 133.429 350.641 133.545 350.765C133.661 350.887 133.82 350.948 134.021 350.948C134.228 350.948 134.39 350.884 134.509 350.757C134.628 350.629 134.688 350.444 134.688 350.2V348.921H135.075ZM136.624 349.24V350.612C136.624 350.726 136.649 350.807 136.697 350.855C136.745 350.9 136.828 350.923 136.947 350.923H137.232V351.25H136.884C136.668 351.25 136.507 351.2 136.399 351.101C136.292 351.002 136.238 350.839 136.238 350.612V349.24H135.936V348.921H136.238V348.334H136.624V348.921H137.232V349.24H136.624ZM138.326 348.543C138.252 348.543 138.19 348.517 138.139 348.466C138.088 348.415 138.062 348.353 138.062 348.279C138.062 348.206 138.088 348.143 138.139 348.092C138.19 348.041 138.252 348.016 138.326 348.016C138.396 348.016 138.456 348.041 138.504 348.092C138.555 348.143 138.581 348.206 138.581 348.279C138.581 348.353 138.555 348.415 138.504 348.466C138.456 348.517 138.396 348.543 138.326 348.543ZM138.513 348.921V351.25H138.126V348.921H138.513ZM140.612 351.288C140.394 351.288 140.196 351.239 140.017 351.139C139.842 351.04 139.703 350.9 139.601 350.719C139.502 350.535 139.452 350.322 139.452 350.081C139.452 349.843 139.503 349.634 139.605 349.452C139.71 349.268 139.852 349.128 140.03 349.031C140.209 348.932 140.408 348.883 140.629 348.883C140.85 348.883 141.05 348.932 141.229 349.031C141.407 349.128 141.547 349.267 141.649 349.448C141.754 349.629 141.807 349.84 141.807 350.081C141.807 350.322 141.753 350.535 141.645 350.719C141.54 350.9 141.397 351.04 141.216 351.139C141.035 351.239 140.833 351.288 140.612 351.288ZM140.612 350.948C140.751 350.948 140.882 350.916 141.003 350.85C141.125 350.785 141.223 350.688 141.297 350.557C141.373 350.427 141.411 350.268 141.411 350.081C141.411 349.894 141.375 349.736 141.301 349.605C141.227 349.475 141.131 349.379 141.012 349.316C140.893 349.251 140.764 349.218 140.625 349.218C140.484 349.218 140.353 349.251 140.234 349.316C140.118 349.379 140.025 349.475 139.954 349.605C139.883 349.736 139.847 349.894 139.847 350.081C139.847 350.271 139.881 350.431 139.949 350.561C140.02 350.692 140.114 350.79 140.23 350.855C140.346 350.917 140.474 350.948 140.612 350.948ZM143.875 348.878C144.158 348.878 144.388 348.965 144.563 349.138C144.739 349.308 144.827 349.554 144.827 349.877V351.25H144.444V349.932C144.444 349.7 144.386 349.523 144.27 349.401C144.154 349.277 143.995 349.214 143.794 349.214C143.59 349.214 143.427 349.278 143.305 349.405C143.186 349.533 143.127 349.719 143.127 349.962V351.25H142.74V348.921H143.127V349.252C143.203 349.133 143.307 349.041 143.437 348.976C143.57 348.911 143.716 348.878 143.875 348.878Z" fill="#22272E" fill-opacity="0.5"/>
<defs>
<linearGradient id="paint0_linear_21_563" x1="51.75" y1="339.5" x2="67.4597" y2="340.384" gradientUnits="userSpaceOnUse">
<stop stop-color="#F7C0EC"/>
<stop offset="1" stop-color="#A7BDEA"/>
</linearGradient>
</defs>
</svg>
