<svg width="24" height="24" viewBox="0 0 24 24" fill="none" xmlns="http://www.w3.org/2000/svg">
<path d="M16.26 17.112C20.79 17.796 24 19.548 24 21.6V24H0V21.6C0 19.548 3.21 17.796 7.74 17.112L12 22.8L16.26 17.112ZM6 7.20001H18V9.60001C18 10.873 17.3679 12.0939 16.2426 12.9941C15.1174 13.8943 13.5913 14.4 12 14.4C10.4087 14.4 8.88258 13.8943 7.75736 12.9941C6.63214 12.0939 6 10.873 6 9.60001V7.20001ZM6 6.00001L6.615 1.08001C6.65231 0.782987 6.82667 0.507749 7.10404 0.308047C7.3814 0.108345 7.74185 -0.00148091 8.115 1.50844e-05H15.9C16.665 1.50844e-05 17.31 0.468015 17.385 1.08001L18 6.00001H6ZM12 1.20001H10.5V2.40001H9V3.60001H10.5V4.80001H12V3.60001H13.5V2.40001H12V1.20001Z" fill="#ADADAD"/>
</svg>
