<svg width="154" height="191" viewBox="0 0 154 191" fill="none" xmlns="http://www.w3.org/2000/svg">
<path d="M83.1875 129.518H70.3306C59.6121 129.518 50.9255 120.832 50.9255 110.113V96.9633C50.9255 93.4497 48.0773 90.5926 44.5548 90.5926H31.4051C20.6866 90.5926 12 81.906 12 71.1875V58.3306C12 47.6121 20.6866 38.9255 31.4051 38.9255H38.9471C41.7154 38.9255 43.9603 41.1704 43.9603 43.9387C43.9603 46.7071 41.7154 48.9519 38.9471 48.9519H31.4051C26.2233 48.9519 22.0175 53.1577 22.0175 58.3395V71.1964C22.0175 76.3781 26.2233 80.5839 31.4051 80.5839H44.5548C53.6051 80.5839 60.9519 87.9218 60.9519 96.9811V110.131C60.9519 115.313 65.1577 119.518 70.3395 119.518H83.1963C88.3781 119.518 92.5839 115.313 92.5839 110.131V100.406C92.5839 92.1986 89.3896 84.4791 83.5868 78.6762L62.8774 57.958C55.1845 50.2563 50.9433 40.0258 50.9433 29.1387V19.4051C50.9433 8.6866 59.6299 0 70.3484 0H83.2052C93.9237 0 102.61 8.6866 102.61 19.4051V32.5548C102.61 36.0684 105.459 38.9255 108.981 38.9255H122.131C132.849 38.9255 141.536 47.6121 141.536 58.3306V71.1875C141.536 81.906 132.849 90.5926 122.131 90.5926H114.598C111.829 90.5926 109.584 88.3477 109.584 85.5794C109.584 82.811 111.829 80.5662 114.598 80.5662H122.131C127.313 80.5662 131.518 76.3604 131.518 71.1786V58.3217C131.518 53.1399 127.313 48.9342 122.131 48.9342H108.963C99.913 48.9342 92.575 41.5963 92.575 32.5459V19.4051C92.575 14.2233 88.3692 10.0175 83.1875 10.0175H70.3306C65.1488 10.0175 60.9431 14.2144 60.9431 19.4051V29.1298C60.9431 37.3373 64.1373 45.0567 69.9402 50.8596L90.6496 71.569C98.3513 79.2618 102.584 89.5012 102.584 100.388V110.113C102.593 120.823 93.906 129.518 83.1875 129.518Z" fill="white"/>
<path d="M11.6243 178.601C9.25218 178.601 7.06385 178.167 5.05927 177.298C3.0881 176.396 1.46774 175.127 0.198169 173.49L4.70847 168.077C5.67735 169.347 6.69634 170.316 7.76545 170.984C8.83456 171.619 9.98719 171.936 11.2234 171.936C14.5309 171.936 16.1847 169.998 16.1847 166.123V149.435H3.85652V142.92H24.2531V165.672C24.2531 170.015 23.184 173.256 21.0458 175.394C18.9076 177.532 15.7671 178.601 11.6243 178.601ZM49.3111 178.601C46.5381 178.601 43.9656 178.15 41.5935 177.248C39.2548 176.346 37.2168 175.077 35.4795 173.44C33.7756 171.803 32.4393 169.881 31.4704 167.676C30.5349 165.471 30.0672 163.066 30.0672 160.46C30.0672 157.854 30.5349 155.448 31.4704 153.243C32.4393 151.038 33.7923 149.117 35.5296 147.48C37.2669 145.843 39.3049 144.574 41.6436 143.672C43.9823 142.77 46.5214 142.319 49.261 142.319C52.034 142.319 54.5731 142.77 56.8784 143.672C59.2171 144.574 61.2384 145.843 62.9423 147.48C64.6796 149.117 66.0327 151.038 67.0015 153.243C67.9704 155.415 68.4549 157.821 68.4549 160.46C68.4549 163.066 67.9704 165.488 67.0015 167.727C66.0327 169.932 64.6796 171.853 62.9423 173.49C61.2384 175.093 59.2171 176.346 56.8784 177.248C54.5731 178.15 52.0507 178.601 49.3111 178.601ZM49.261 171.686C50.8313 171.686 52.2679 171.418 53.5709 170.884C54.9072 170.349 56.0766 169.581 57.0789 168.578C58.0812 167.576 58.8496 166.39 59.3841 165.02C59.9521 163.651 60.2361 162.13 60.2361 160.46C60.2361 158.789 59.9521 157.269 59.3841 155.9C58.8496 154.53 58.0812 153.344 57.0789 152.341C56.11 151.339 54.9574 150.571 53.621 150.036C52.2846 149.502 50.8313 149.234 49.261 149.234C47.6908 149.234 46.2374 149.502 44.9011 150.036C43.5981 150.571 42.4454 151.339 41.4432 152.341C40.4409 153.344 39.6557 154.53 39.0878 155.9C38.5532 157.269 38.2859 158.789 38.2859 160.46C38.2859 162.097 38.5532 163.617 39.0878 165.02C39.6557 166.39 40.4242 167.576 41.393 168.578C42.3953 169.581 43.5647 170.349 44.9011 170.884C46.2374 171.418 47.6908 171.686 49.261 171.686ZM74.5563 178V142.92H81.2716L101.969 168.178H98.7115V142.92H106.73V178H100.065L79.3172 152.742H82.5746V178H74.5563ZM132.069 178.601C129.296 178.601 126.723 178.15 124.351 177.248C122.012 176.346 119.974 175.077 118.237 173.44C116.533 171.803 115.197 169.881 114.228 167.676C113.292 165.471 112.825 163.066 112.825 160.46C112.825 157.854 113.292 155.448 114.228 153.243C115.197 151.038 116.55 149.117 118.287 147.48C120.024 145.843 122.062 144.574 124.401 143.672C126.74 142.77 129.279 142.319 132.018 142.319C134.791 142.319 137.331 142.77 139.636 143.672C141.974 144.574 143.996 145.843 145.7 147.48C147.437 149.117 148.79 151.038 149.759 153.243C150.728 155.415 151.212 157.821 151.212 160.46C151.212 163.066 150.728 165.488 149.759 167.727C148.79 169.932 147.437 171.853 145.7 173.49C143.996 175.093 141.974 176.346 139.636 177.248C137.331 178.15 134.808 178.601 132.069 178.601ZM132.018 171.686C133.589 171.686 135.025 171.418 136.328 170.884C137.665 170.349 138.834 169.581 139.836 168.578C140.839 167.576 141.607 166.39 142.142 165.02C142.709 163.651 142.993 162.13 142.993 160.46C142.993 158.789 142.709 157.269 142.142 155.9C141.607 154.53 140.839 153.344 139.836 152.341C138.867 151.339 137.715 150.571 136.378 150.036C135.042 149.502 133.589 149.234 132.018 149.234C130.448 149.234 128.995 149.502 127.658 150.036C126.355 150.571 125.203 151.339 124.201 152.341C123.198 153.344 122.413 154.53 121.845 155.9C121.311 157.269 121.043 158.789 121.043 160.46C121.043 162.097 121.311 163.617 121.845 165.02C122.413 166.39 123.182 167.576 124.15 168.578C125.153 169.581 126.322 170.349 127.658 170.884C128.995 171.418 130.448 171.686 132.018 171.686Z" fill="white"/>
</svg>
