<svg xmlns="http://www.w3.org/2000/svg" data-name="Layer 1" viewBox="0 0 64 64"><circle cx="32" cy="32" r="29" fill="#94e6ff"/><path fill="#5cb7e6" d="M32,6A29,29,0,0,1,61,33.5c0-.5,0-1,0-1.5A29,29,0,0,0,3,32c0,.5,0,1,0,1.5A29,29,0,0,1,32,6Z"/><circle cx="37.03" cy="46.63" r="3" fill="#ffcc40"/><circle cx="47.68" cy="15.83" r="3" fill="#ffcc40"/><circle cx="13.12" cy="32" r="3" fill="#fc7a71"/><path fill="#0a1827" d="M55.09,12.87a30,30,0,0,0-46.18,0l0,0A29.93,29.93,0,0,0,8.77,51a1.13,1.13,0,0,0,.1.13,30,30,0,0,0,46.26,0,.71.71,0,0,0,.1-.14,29.91,29.91,0,0,0-.12-38.05Zm-1,36.3A37.48,37.48,0,0,0,49,47.49,41.93,41.93,0,0,0,51.86,33H60A27.78,27.78,0,0,1,54.09,49.17ZM4,33H9.27a4,4,0,0,0,3,2.91A41.16,41.16,0,0,0,15,47.49a37.32,37.32,0,0,0-5.05,1.68A27.78,27.78,0,0,1,4,33ZM9.91,14.83A37.32,37.32,0,0,0,15,16.51,41.16,41.16,0,0,0,12.3,28.09a4,4,0,0,0-3,2.91H4A27.78,27.78,0,0,1,9.91,14.83ZM47.07,47A61.59,61.59,0,0,0,41,46a4,4,0,0,0-2.57-3.11c.26-3.11.4-6.43.42-9.89h11A39.77,39.77,0,0,1,47.07,47ZM32,60H32c-.79-.06-2.68-3.16-3.89-12.42,1.61-.08,3.34-.11,5-.09a4,4,0,0,0,2.37,2.85C34.22,58.05,32.57,59.93,32,60ZM16.93,47A38.87,38.87,0,0,1,14.29,35.8,4,4,0,0,0,17,33h8.2c0,4.44.26,8.79.67,12.71l-.71,0A65.51,65.51,0,0,0,16.93,47Zm0-30a65.51,65.51,0,0,0,8.21,1.26l.72.05c-.42,3.92-.65,8.27-.68,12.71H17a4,4,0,0,0-2.69-2.8A38.87,38.87,0,0,1,16.93,17Zm15-13h.16c.81.18,2.65,3.35,3.83,12.41-2.51.13-5.31.13-7.82,0C29.27,7.37,31.11,4.2,31.92,4ZM36.41,42.7a4,4,0,0,0-3.19,2.79c-1.81,0-3.65,0-5.37.09-.41-3.88-.64-8.18-.67-12.58h9.64C36.8,36.4,36.66,39.65,36.41,42.7ZM27.18,31c0-4.4.26-8.71.67-12.58,1.33.07,2.71.11,4.15.11s2.82,0,4.15-.11c.41,3.87.64,8.18.67,12.58ZM13.12,30h.1a2,2,0,0,1,1.9,2h0a2,2,0,0,1-1.95,2h-.05a2,2,0,1,1,0-4ZM37,48.63a2,2,0,1,1,2-2s0,.1,0,.14v0h0A2,2,0,0,1,37,48.63ZM38.82,31c0-4.44-.26-8.79-.67-12.71l.71-.05c1.8-.17,3.54-.4,5.22-.68a4,4,0,0,0,3.6,2.27,2.58,2.58,0,0,0,.39,0A41.08,41.08,0,0,1,49.86,31ZM49.68,15.83a2,2,0,0,1-1.25,1.85h0a2,2,0,0,1-.74.14,2,2,0,1,1,2-2Zm-6-.24c-1.61.27-3.29.5-5,.65-.25,0-.51,0-.77.06-.56-4.4-1.49-9.14-3-11.91,3.84,1,7.41,4,10.11,8.48A4,4,0,0,0,43.7,15.59ZM29.09,4.38c-1.5,2.76-2.44,7.51-3,11.92-.26,0-.52,0-.77-.06a63.72,63.72,0,0,1-7.56-1.12C20.54,9.39,24.63,5.55,29.09,4.38ZM25.32,47.76c.25,0,.51,0,.77-.06.56,4.41,1.49,9.15,3,11.92-4.47-1.17-8.56-5-11.33-10.74A63.72,63.72,0,0,1,25.32,47.76Zm9.61,11.85a30.49,30.49,0,0,0,2.55-9,4,4,0,0,0,3.3-2.6c1.92.23,3.75.52,5.47.89C43.47,54.6,39.39,58.44,34.93,59.61ZM51.86,31A42.74,42.74,0,0,0,50,19.12a4,4,0,0,0,1.73-3.29s0-.06,0-.09c.88-.29,1.68-.59,2.43-.9A27.81,27.81,0,0,1,60,31Zm.89-17.78c-.51.21-1.06.4-1.64.6a4,4,0,0,0-3.43-2,4.33,4.33,0,0,0-.89.11,23.67,23.67,0,0,0-5.22-6.26A28.21,28.21,0,0,1,52.75,13.22ZM22.46,5.68a25.48,25.48,0,0,0-6.69,9,37.17,37.17,0,0,1-4.52-1.43A28,28,0,0,1,22.46,5.68ZM11.25,50.78a37.17,37.17,0,0,1,4.52-1.43,25.62,25.62,0,0,0,6.69,9A28.23,28.23,0,0,1,11.25,50.78Zm30.29,7.54a25.48,25.48,0,0,0,6.69-9,37.17,37.17,0,0,1,4.52,1.43A28,28,0,0,1,41.54,58.32Z"/></svg>