<svg width="23" height="18" viewBox="0 0 23 18" fill="none" xmlns="http://www.w3.org/2000/svg">
<path d="M3.51686 1.50753C5.02522 0.794024 6.62094 0.287046 8.26186 0C8.46626 0.37359 8.70506 0.87607 8.86975 1.27582C10.6389 1.00687 12.3919 1.00687 14.1286 1.27582C14.2932 0.876161 14.5374 0.37359 14.7436 0C16.3862 0.287178 17.9833 0.795447 19.4923 1.51126C22.4953 6.09907 23.3093 10.5728 22.9023 14.9832C20.9106 16.4869 18.9804 17.4004 17.0827 17.9982C16.6111 17.3425 16.1942 16.6483 15.8363 15.9228C16.5177 15.6605 17.1745 15.3373 17.799 14.9571C17.6347 14.8339 17.4742 14.7055 17.3178 14.5722C13.5334 16.3618 9.42148 16.3618 5.68218 14.5722C5.52513 14.7047 5.3647 14.833 5.20107 14.9571C5.8266 15.3383 6.48467 15.6622 7.16739 15.9247C6.80747 16.6531 6.39132 17.348 5.92098 18C4.02151 17.4023 2.08951 16.4888 0.097765 14.9832C-0.379845 9.87048 0.913546 5.43781 3.51686 1.50753ZM15.3207 12.2709C16.4568 12.2709 17.3885 11.1986 17.3885 9.89292C17.3885 8.58722 16.4766 7.51313 15.3207 7.51313C14.1647 7.51313 13.2331 8.58531 13.253 9.89292C13.2512 11.1986 14.1647 12.2709 15.3207 12.2709ZM7.67941 12.2709C8.81548 12.2709 9.74707 11.1986 9.74707 9.89292C9.74707 8.58722 8.83534 7.51313 7.67941 7.51313C6.52339 7.51313 5.5918 8.58531 5.61165 9.89292C5.61165 11.1986 6.52339 12.2709 7.67941 12.2709Z" fill="#5A535B"/>
</svg>
