<svg width="578" height="166" viewBox="0 0 578 166" fill="none" xmlns="http://www.w3.org/2000/svg">
<g filter="url(#filter0_d_2_95)">
<path d="M61.2951 132.463C-86.7289 49.0913 136.078 -35.4166 238.615 43.4071C341.153 122.231 420.64 213.35 566 102.626" stroke="url(#paint0_linear_2_95)" stroke-width="3" stroke-linecap="round"/>
</g>
<path d="M79.5 87.4414C79.5 88.4844 79.3008 89.4629 78.9023 90.377C78.5039 91.291 77.959 92.0938 77.2676 92.7852C76.5879 93.4648 75.791 94.0039 74.877 94.4023C73.9629 94.8008 72.9844 95 71.9414 95H59.3379V69.793H71.9414C72.9844 69.793 73.9629 69.9922 74.877 70.3906C75.791 70.7891 76.5879 71.334 77.2676 72.0254C77.959 72.7051 78.5039 73.502 78.9023 74.416C79.3008 75.3301 79.5 76.3086 79.5 77.3516C79.5 77.8203 79.4355 78.3008 79.3066 78.793C79.1777 79.2852 78.9961 79.7598 78.7617 80.2168C78.5273 80.6738 78.2461 81.0898 77.918 81.4648C77.5898 81.8398 77.2266 82.1504 76.8281 82.3965C77.2383 82.6191 77.6074 82.9238 77.9355 83.3105C78.2637 83.6855 78.5449 84.1016 78.7793 84.5586C79.0137 85.0156 79.1895 85.4961 79.3066 86C79.4355 86.4922 79.5 86.9727 79.5 87.4414ZM64.3828 89.9551H71.9414C72.293 89.9551 72.6211 89.8906 72.9258 89.7617C73.2305 89.6328 73.4941 89.457 73.7168 89.2344C73.9512 89 74.1328 88.7305 74.2617 88.4258C74.3906 88.1211 74.4551 87.793 74.4551 87.4414C74.4551 87.0898 74.3906 86.7617 74.2617 86.457C74.1328 86.1523 73.9512 85.8887 73.7168 85.666C73.4941 85.4316 73.2305 85.25 72.9258 85.1211C72.6211 84.9922 72.293 84.9277 71.9414 84.9277H64.3828V89.9551ZM64.3828 79.8828H71.9414C72.293 79.8828 72.6211 79.8184 72.9258 79.6895C73.2305 79.5605 73.4941 79.3848 73.7168 79.1621C73.9512 78.9277 74.1328 78.6582 74.2617 78.3535C74.3906 78.0371 74.4551 77.7031 74.4551 77.3516C74.4551 77 74.3906 76.6719 74.2617 76.3672C74.1328 76.0625 73.9512 75.7988 73.7168 75.5762C73.4941 75.3418 73.2305 75.1602 72.9258 75.0312C72.6211 74.9023 72.293 74.8379 71.9414 74.8379H64.3828V79.8828ZM87.6035 95H82.8047V76.1738H83.9648L85.5469 78.4062C86.3203 77.7031 87.1992 77.1641 88.1836 76.7891C89.168 76.4023 90.1875 76.209 91.2422 76.209H95.4785V80.9902H91.2422C90.7383 80.9902 90.2637 81.084 89.8184 81.2715C89.373 81.459 88.9863 81.7168 88.6582 82.0449C88.3301 82.373 88.0723 82.7598 87.8848 83.2051C87.6973 83.6504 87.6035 84.125 87.6035 84.6289V95ZM103.371 71.0586C103.371 71.5039 103.283 71.9199 103.107 72.3066C102.943 72.6934 102.715 73.0332 102.422 73.3262C102.129 73.6074 101.783 73.8359 101.385 74.0117C100.998 74.1758 100.582 74.2578 100.137 74.2578C99.6914 74.2578 99.2695 74.1758 98.8711 74.0117C98.4844 73.8359 98.1445 73.6074 97.8516 73.3262C97.5703 73.0332 97.3418 72.6934 97.166 72.3066C97.002 71.9199 96.9199 71.5039 96.9199 71.0586C96.9199 70.625 97.002 70.2148 97.166 69.8281C97.3418 69.4297 97.5703 69.0898 97.8516 68.8086C98.1445 68.5156 98.4844 68.2871 98.8711 68.123C99.2695 67.9473 99.6914 67.8594 100.137 67.8594C100.582 67.8594 100.998 67.9473 101.385 68.123C101.783 68.2871 102.129 68.5156 102.422 68.8086C102.715 69.0898 102.943 69.4297 103.107 69.8281C103.283 70.2148 103.371 70.625 103.371 71.0586ZM102.545 95H97.7109V76.1738H102.545V95ZM124.412 95H123.252L121.389 92.416C120.932 92.8262 120.445 93.2129 119.93 93.5762C119.426 93.9277 118.893 94.2383 118.33 94.5078C117.768 94.7656 117.188 94.9707 116.59 95.123C116.004 95.2754 115.406 95.3516 114.797 95.3516C113.473 95.3516 112.225 95.1055 111.053 94.6133C109.893 94.1094 108.873 93.418 107.994 92.5391C107.127 91.6484 106.441 90.5996 105.938 89.3926C105.434 88.1738 105.182 86.8496 105.182 85.4199C105.182 84.002 105.434 82.6836 105.938 81.4648C106.441 80.2461 107.127 79.1914 107.994 78.3008C108.873 77.4102 109.893 76.7129 111.053 76.209C112.225 75.7051 113.473 75.4531 114.797 75.4531C115.219 75.4531 115.652 75.4883 116.098 75.5586C116.555 75.6289 116.994 75.7461 117.416 75.9102C117.85 76.0625 118.254 76.2676 118.629 76.5254C119.004 76.7832 119.32 77.0996 119.578 77.4746V68.6855H124.412V95ZM119.578 85.4199C119.578 84.7637 119.449 84.1309 119.191 83.5215C118.945 82.9004 118.605 82.3555 118.172 81.8867C117.738 81.4062 117.229 81.0254 116.643 80.7441C116.068 80.4512 115.453 80.3047 114.797 80.3047C114.141 80.3047 113.52 80.4219 112.934 80.6562C112.359 80.8906 111.855 81.2305 111.422 81.6758C111 82.1094 110.666 82.6426 110.42 83.2754C110.174 83.9082 110.051 84.623 110.051 85.4199C110.051 86.1113 110.174 86.7676 110.42 87.3887C110.666 88.0098 111 88.5547 111.422 89.0234C111.855 89.4922 112.359 89.8613 112.934 90.1309C113.52 90.4004 114.141 90.5352 114.797 90.5352C115.453 90.5352 116.068 90.3945 116.643 90.1133C117.229 89.8203 117.738 89.4395 118.172 88.9707C118.605 88.4902 118.945 87.9453 119.191 87.3359C119.449 86.7148 119.578 86.0762 119.578 85.4199ZM141.48 85.4199C141.48 84.7637 141.352 84.1309 141.094 83.5215C140.848 82.9004 140.508 82.3555 140.074 81.8867C139.641 81.4062 139.131 81.0254 138.545 80.7441C137.971 80.4512 137.355 80.3047 136.699 80.3047C136.043 80.3047 135.422 80.416 134.836 80.6387C134.262 80.8613 133.758 81.1895 133.324 81.623C132.902 82.0566 132.568 82.5957 132.322 83.2402C132.076 83.873 131.953 84.5996 131.953 85.4199C131.953 86.2051 132.076 86.9141 132.322 87.5469C132.568 88.168 132.902 88.7012 133.324 89.1465C133.758 89.5918 134.262 89.9375 134.836 90.1836C135.422 90.418 136.043 90.5352 136.699 90.5352C137.355 90.5352 137.971 90.3945 138.545 90.1133C139.131 89.8203 139.641 89.4395 140.074 88.9707C140.508 88.4902 140.848 87.9453 141.094 87.3359C141.352 86.7148 141.48 86.0762 141.48 85.4199ZM146.314 92.627C146.314 93.9512 146.062 95.1934 145.559 96.3535C145.055 97.5137 144.363 98.5273 143.484 99.3945C142.617 100.262 141.598 100.947 140.426 101.451C139.266 101.955 138.023 102.207 136.699 102.207L134.291 102.172V97.373L136.664 97.4082C137.414 97.4082 138.053 97.3086 138.58 97.1094C139.107 96.9219 139.553 96.6582 139.916 96.3184C140.279 95.9902 140.566 95.6094 140.777 95.1758C141 94.7422 141.176 94.2852 141.305 93.8047C141.117 94.1094 140.848 94.3613 140.496 94.5605C140.145 94.748 139.752 94.9004 139.318 95.0176C138.896 95.1465 138.451 95.2344 137.982 95.2812C137.525 95.3281 137.098 95.3516 136.699 95.3516C135.375 95.3516 134.127 95.123 132.955 94.666C131.795 94.209 130.775 93.5586 129.896 92.7148C129.029 91.8594 128.344 90.8164 127.84 89.5859C127.336 88.3555 127.084 86.9668 127.084 85.4199C127.084 84.002 127.336 82.6836 127.84 81.4648C128.344 80.2461 129.029 79.1914 129.896 78.3008C130.775 77.4102 131.795 76.7129 132.955 76.209C134.127 75.7051 135.375 75.4531 136.699 75.4531C137.309 75.4531 137.912 75.5293 138.51 75.6816C139.107 75.834 139.688 76.0449 140.25 76.3145C140.812 76.584 141.346 76.9004 141.85 77.2637C142.365 77.627 142.846 78.0195 143.291 78.4414L145.154 76.209H146.314V92.627ZM155.648 71.0586C155.648 71.5039 155.561 71.9199 155.385 72.3066C155.221 72.6934 154.992 73.0332 154.699 73.3262C154.406 73.6074 154.061 73.8359 153.662 74.0117C153.275 74.1758 152.859 74.2578 152.414 74.2578C151.969 74.2578 151.547 74.1758 151.148 74.0117C150.762 73.8359 150.422 73.6074 150.129 73.3262C149.848 73.0332 149.619 72.6934 149.443 72.3066C149.279 71.9199 149.197 71.5039 149.197 71.0586C149.197 70.625 149.279 70.2148 149.443 69.8281C149.619 69.4297 149.848 69.0898 150.129 68.8086C150.422 68.5156 150.762 68.2871 151.148 68.123C151.547 67.9473 151.969 67.8594 152.414 67.8594C152.859 67.8594 153.275 67.9473 153.662 68.123C154.061 68.2871 154.406 68.5156 154.699 68.8086C154.992 69.0898 155.221 69.4297 155.385 69.8281C155.561 70.2148 155.648 70.625 155.648 71.0586ZM154.822 95H149.988V76.1738H154.822V95ZM163.295 95H158.496V76.1738H159.656L161.238 78.002C162.012 77.2988 162.885 76.7598 163.857 76.3848C164.842 75.998 165.867 75.8047 166.934 75.8047C168.082 75.8047 169.166 76.0273 170.186 76.4727C171.205 76.9062 172.096 77.5098 172.857 78.2832C173.619 79.0449 174.217 79.9414 174.65 80.9727C175.096 81.9922 175.318 83.082 175.318 84.2422V95H170.52V84.2422C170.52 83.75 170.426 83.2871 170.238 82.8535C170.051 82.4082 169.793 82.0215 169.465 81.6934C169.137 81.3652 168.756 81.1074 168.322 80.9199C167.889 80.7324 167.426 80.6387 166.934 80.6387C166.43 80.6387 165.955 80.7324 165.51 80.9199C165.064 81.1074 164.678 81.3652 164.35 81.6934C164.021 82.0215 163.764 82.4082 163.576 82.8535C163.389 83.2871 163.295 83.75 163.295 84.2422V95ZM192.141 85.4199C192.141 84.7637 192.012 84.1309 191.754 83.5215C191.508 82.9004 191.168 82.3555 190.734 81.8867C190.301 81.4062 189.791 81.0254 189.205 80.7441C188.631 80.4512 188.016 80.3047 187.359 80.3047C186.703 80.3047 186.082 80.416 185.496 80.6387C184.922 80.8613 184.418 81.1895 183.984 81.623C183.562 82.0566 183.229 82.5957 182.982 83.2402C182.736 83.873 182.613 84.5996 182.613 85.4199C182.613 86.2051 182.736 86.9141 182.982 87.5469C183.229 88.168 183.562 88.7012 183.984 89.1465C184.418 89.5918 184.922 89.9375 185.496 90.1836C186.082 90.418 186.703 90.5352 187.359 90.5352C188.016 90.5352 188.631 90.3945 189.205 90.1133C189.791 89.8203 190.301 89.4395 190.734 88.9707C191.168 88.4902 191.508 87.9453 191.754 87.3359C192.012 86.7148 192.141 86.0762 192.141 85.4199ZM196.975 92.627C196.975 93.9512 196.723 95.1934 196.219 96.3535C195.715 97.5137 195.023 98.5273 194.145 99.3945C193.277 100.262 192.258 100.947 191.086 101.451C189.926 101.955 188.684 102.207 187.359 102.207L184.951 102.172V97.373L187.324 97.4082C188.074 97.4082 188.713 97.3086 189.24 97.1094C189.768 96.9219 190.213 96.6582 190.576 96.3184C190.939 95.9902 191.227 95.6094 191.438 95.1758C191.66 94.7422 191.836 94.2852 191.965 93.8047C191.777 94.1094 191.508 94.3613 191.156 94.5605C190.805 94.748 190.412 94.9004 189.979 95.0176C189.557 95.1465 189.111 95.2344 188.643 95.2812C188.186 95.3281 187.758 95.3516 187.359 95.3516C186.035 95.3516 184.787 95.123 183.615 94.666C182.455 94.209 181.436 93.5586 180.557 92.7148C179.689 91.8594 179.004 90.8164 178.5 89.5859C177.996 88.3555 177.744 86.9668 177.744 85.4199C177.744 84.002 177.996 82.6836 178.5 81.4648C179.004 80.2461 179.689 79.1914 180.557 78.3008C181.436 77.4102 182.455 76.7129 183.615 76.209C184.787 75.7051 186.035 75.4531 187.359 75.4531C187.969 75.4531 188.572 75.5293 189.17 75.6816C189.768 75.834 190.348 76.0449 190.91 76.3145C191.473 76.584 192.006 76.9004 192.51 77.2637C193.025 77.627 193.506 78.0195 193.951 78.4414L195.814 76.209H196.975V92.627ZM220.178 95C219.018 95 217.928 94.7832 216.908 94.3496C215.889 93.9043 214.992 93.3008 214.219 92.5391C213.457 91.7656 212.854 90.8691 212.408 89.8496C211.975 88.8301 211.758 87.7402 211.758 86.5801V80.9902H209.42V76.209H211.758V68.6855H216.539V76.209H223.816V80.9902H216.539V86.5801C216.539 87.084 216.633 87.5586 216.82 88.0039C217.008 88.4375 217.266 88.8184 217.594 89.1465C217.922 89.4746 218.309 89.7383 218.754 89.9375C219.199 90.125 219.674 90.2188 220.178 90.2188H223.816V95H220.178ZM231.322 95H226.523V68.6855H231.322V77C231.896 76.5664 232.488 76.2617 233.098 76.0859C233.707 75.8984 234.328 75.8047 234.961 75.8047C236.121 75.8047 237.211 76.0273 238.23 76.4727C239.25 76.9062 240.135 77.5098 240.885 78.2832C241.646 79.0449 242.244 79.9414 242.678 80.9727C243.123 81.9922 243.346 83.082 243.346 84.2422V95H238.512V84.2422H238.547C238.547 83.75 238.453 83.2871 238.266 82.8535C238.078 82.4082 237.82 82.0215 237.492 81.6934C237.164 81.3652 236.783 81.1074 236.35 80.9199C235.916 80.7324 235.453 80.6387 234.961 80.6387C234.457 80.6387 233.982 80.7324 233.537 80.9199C233.092 81.1074 232.705 81.3652 232.377 81.6934C232.049 82.0215 231.791 82.4082 231.604 82.8535C231.416 83.2871 231.322 83.75 231.322 84.2422V95ZM254.262 90.3945C254.449 90.4531 254.637 90.4941 254.824 90.5176C255.012 90.5293 255.199 90.5352 255.387 90.5352C255.855 90.5352 256.307 90.4707 256.74 90.3418C257.174 90.2129 257.578 90.0312 257.953 89.7969C258.34 89.5508 258.68 89.2578 258.973 88.918C259.277 88.5664 259.523 88.1797 259.711 87.7578L263.227 91.291C262.781 91.9238 262.266 92.4922 261.68 92.9961C261.105 93.5 260.479 93.9277 259.799 94.2793C259.131 94.6309 258.422 94.8945 257.672 95.0703C256.934 95.2578 256.172 95.3516 255.387 95.3516C254.062 95.3516 252.814 95.1055 251.643 94.6133C250.482 94.1211 249.463 93.4355 248.584 92.5566C247.717 91.6777 247.031 90.6348 246.527 89.4277C246.023 88.209 245.771 86.873 245.771 85.4199C245.771 83.9316 246.023 82.5723 246.527 81.3418C247.031 80.1113 247.717 79.0625 248.584 78.1953C249.463 77.3281 250.482 76.6543 251.643 76.1738C252.814 75.6934 254.062 75.4531 255.387 75.4531C256.172 75.4531 256.939 75.5469 257.689 75.7344C258.439 75.9219 259.148 76.1914 259.816 76.543C260.496 76.8945 261.129 77.3281 261.715 77.8438C262.301 78.3477 262.816 78.916 263.262 79.5488L254.262 90.3945ZM256.723 80.498C256.5 80.416 256.277 80.3633 256.055 80.3398C255.844 80.3164 255.621 80.3047 255.387 80.3047C254.73 80.3047 254.109 80.4277 253.523 80.6738C252.949 80.9082 252.445 81.248 252.012 81.6934C251.59 82.1387 251.256 82.6777 251.01 83.3105C250.764 83.9316 250.641 84.6348 250.641 85.4199C250.641 85.5957 250.646 85.7949 250.658 86.0176C250.682 86.2402 250.711 86.4688 250.746 86.7031C250.793 86.9258 250.846 87.1426 250.904 87.3535C250.963 87.5645 251.039 87.752 251.133 87.916L256.723 80.498ZM82.5938 142.197C82.5938 143.182 82.4062 144.113 82.0312 144.992C81.6562 145.859 81.1406 146.615 80.4844 147.26C79.8398 147.904 79.0781 148.414 78.1992 148.789C77.332 149.164 76.4004 149.352 75.4043 149.352C74.5137 149.352 73.6582 149.199 72.8379 148.895C72.0176 148.578 71.2734 148.121 70.6055 147.523C69.9492 148.121 69.2109 148.578 68.3906 148.895C67.582 149.199 66.7266 149.352 65.8242 149.352C64.8281 149.352 63.8965 149.164 63.0293 148.789C62.1621 148.414 61.4004 147.904 60.7441 147.26C60.0996 146.615 59.5898 145.859 59.2148 144.992C58.8398 144.113 58.6523 143.182 58.6523 142.197V130.209H63.4512V142.197C63.4512 142.525 63.5098 142.836 63.627 143.129C63.7559 143.41 63.9258 143.662 64.1367 143.885C64.3594 144.096 64.6113 144.266 64.8926 144.395C65.1855 144.512 65.4961 144.57 65.8242 144.57C66.1523 144.57 66.4629 144.512 66.7559 144.395C67.0488 144.266 67.3066 144.096 67.5293 143.885C67.752 143.662 67.9219 143.41 68.0391 143.129C68.168 142.836 68.2324 142.525 68.2324 142.197V130.209H73.0137V142.197C73.0137 142.525 73.0781 142.836 73.207 143.129C73.3359 143.41 73.5059 143.662 73.7168 143.885C73.9395 144.096 74.1914 144.266 74.4727 144.395C74.7656 144.512 75.0762 144.57 75.4043 144.57C75.7324 144.57 76.043 144.512 76.3359 144.395C76.6289 144.266 76.8809 144.096 77.0918 143.885C77.3145 143.662 77.4902 143.41 77.6191 143.129C77.748 142.836 77.8125 142.525 77.8125 142.197V130.209H82.5938V142.197ZM104.268 139.42C104.268 140.826 104.016 142.139 103.512 143.357C103.008 144.564 102.322 145.613 101.455 146.504C100.588 147.383 99.5684 148.08 98.3965 148.596C97.2363 149.1 95.9883 149.352 94.6523 149.352C93.3281 149.352 92.0801 149.1 90.9082 148.596C89.748 148.08 88.7285 147.383 87.8496 146.504C86.9824 145.613 86.2969 144.564 85.793 143.357C85.2891 142.139 85.0371 140.826 85.0371 139.42C85.0371 137.99 85.2891 136.666 85.793 135.447C86.2969 134.229 86.9824 133.18 87.8496 132.301C88.7285 131.41 89.748 130.713 90.9082 130.209C92.0801 129.705 93.3281 129.453 94.6523 129.453C95.9883 129.453 97.2363 129.693 98.3965 130.174C99.5684 130.643 100.588 131.316 101.455 132.195C102.322 133.062 103.008 134.111 103.512 135.342C104.016 136.561 104.268 137.92 104.268 139.42ZM99.4336 139.42C99.4336 138.646 99.3047 137.949 99.0469 137.328C98.8008 136.695 98.4609 136.156 98.0273 135.711C97.5938 135.254 97.084 134.908 96.498 134.674C95.9238 134.428 95.3086 134.305 94.6523 134.305C93.9961 134.305 93.375 134.428 92.7891 134.674C92.2148 134.908 91.7109 135.254 91.2773 135.711C90.8555 136.156 90.5215 136.695 90.2754 137.328C90.0293 137.949 89.9062 138.646 89.9062 139.42C89.9062 140.146 90.0293 140.82 90.2754 141.441C90.5215 142.062 90.8555 142.602 91.2773 143.059C91.7109 143.516 92.2148 143.879 92.7891 144.148C93.375 144.406 93.9961 144.535 94.6523 144.535C95.3086 144.535 95.9238 144.412 96.498 144.166C97.084 143.92 97.5938 143.574 98.0273 143.129C98.4609 142.684 98.8008 142.145 99.0469 141.512C99.3047 140.879 99.4336 140.182 99.4336 139.42ZM111.721 149H106.922V130.174H108.082L109.664 132.406C110.438 131.703 111.316 131.164 112.301 130.789C113.285 130.402 114.305 130.209 115.359 130.209H119.596V134.99H115.359C114.855 134.99 114.381 135.084 113.936 135.271C113.49 135.459 113.104 135.717 112.775 136.045C112.447 136.373 112.189 136.76 112.002 137.205C111.814 137.65 111.721 138.125 111.721 138.629V149ZM126.662 149H121.828V122.686H126.662V149ZM148.529 149H147.369L145.506 146.416C145.049 146.826 144.562 147.213 144.047 147.576C143.543 147.928 143.01 148.238 142.447 148.508C141.885 148.766 141.305 148.971 140.707 149.123C140.121 149.275 139.523 149.352 138.914 149.352C137.59 149.352 136.342 149.105 135.17 148.613C134.01 148.109 132.99 147.418 132.111 146.539C131.244 145.648 130.559 144.6 130.055 143.393C129.551 142.174 129.299 140.85 129.299 139.42C129.299 138.002 129.551 136.684 130.055 135.465C130.559 134.246 131.244 133.191 132.111 132.301C132.99 131.41 134.01 130.713 135.17 130.209C136.342 129.705 137.59 129.453 138.914 129.453C139.336 129.453 139.77 129.488 140.215 129.559C140.672 129.629 141.111 129.746 141.533 129.91C141.967 130.062 142.371 130.268 142.746 130.525C143.121 130.783 143.438 131.1 143.695 131.475V122.686H148.529V149ZM143.695 139.42C143.695 138.764 143.566 138.131 143.309 137.521C143.062 136.9 142.723 136.355 142.289 135.887C141.855 135.406 141.346 135.025 140.76 134.744C140.186 134.451 139.57 134.305 138.914 134.305C138.258 134.305 137.637 134.422 137.051 134.656C136.477 134.891 135.973 135.23 135.539 135.676C135.117 136.109 134.783 136.643 134.537 137.275C134.291 137.908 134.168 138.623 134.168 139.42C134.168 140.111 134.291 140.768 134.537 141.389C134.783 142.01 135.117 142.555 135.539 143.023C135.973 143.492 136.477 143.861 137.051 144.131C137.637 144.4 138.258 144.535 138.914 144.535C139.57 144.535 140.186 144.395 140.76 144.113C141.346 143.82 141.855 143.439 142.289 142.971C142.723 142.49 143.062 141.945 143.309 141.336C143.566 140.715 143.695 140.076 143.695 139.42ZM162.539 149H151.57V144.219H162.539C162.867 144.219 163.148 144.102 163.383 143.867C163.617 143.633 163.734 143.352 163.734 143.023C163.734 142.684 163.617 142.461 163.383 142.355C163.148 142.25 162.867 142.197 162.539 142.197H157.547C156.715 142.197 155.936 142.039 155.209 141.723C154.482 141.406 153.85 140.979 153.311 140.439C152.771 139.889 152.344 139.25 152.027 138.523C151.723 137.797 151.57 137.018 151.57 136.186C151.57 135.354 151.723 134.574 152.027 133.848C152.344 133.121 152.771 132.488 153.311 131.949C153.85 131.41 154.482 130.988 155.209 130.684C155.936 130.367 156.715 130.209 157.547 130.209H167.268V134.99H157.547C157.219 134.99 156.938 135.107 156.703 135.342C156.469 135.576 156.352 135.857 156.352 136.186C156.352 136.525 156.469 136.818 156.703 137.064C156.938 137.299 157.219 137.416 157.547 137.416H162.539C163.359 137.416 164.133 137.557 164.859 137.838C165.586 138.107 166.219 138.488 166.758 138.98C167.297 139.473 167.725 140.064 168.041 140.756C168.357 141.447 168.516 142.203 168.516 143.023C168.516 143.855 168.357 144.635 168.041 145.361C167.725 146.076 167.297 146.709 166.758 147.26C166.219 147.799 165.586 148.227 164.859 148.543C164.133 148.848 163.359 149 162.539 149ZM204.938 142.197C204.938 143.182 204.75 144.113 204.375 144.992C204 145.859 203.484 146.615 202.828 147.26C202.184 147.904 201.422 148.414 200.543 148.789C199.676 149.164 198.744 149.352 197.748 149.352C196.857 149.352 196.002 149.199 195.182 148.895C194.361 148.578 193.617 148.121 192.949 147.523C192.293 148.121 191.555 148.578 190.734 148.895C189.926 149.199 189.07 149.352 188.168 149.352C187.172 149.352 186.24 149.164 185.373 148.789C184.506 148.414 183.744 147.904 183.088 147.26C182.443 146.615 181.934 145.859 181.559 144.992C181.184 144.113 180.996 143.182 180.996 142.197V130.209H185.795V142.197C185.795 142.525 185.854 142.836 185.971 143.129C186.1 143.41 186.27 143.662 186.48 143.885C186.703 144.096 186.955 144.266 187.236 144.395C187.529 144.512 187.84 144.57 188.168 144.57C188.496 144.57 188.807 144.512 189.1 144.395C189.393 144.266 189.65 144.096 189.873 143.885C190.096 143.662 190.266 143.41 190.383 143.129C190.512 142.836 190.576 142.525 190.576 142.197V130.209H195.357V142.197C195.357 142.525 195.422 142.836 195.551 143.129C195.68 143.41 195.85 143.662 196.061 143.885C196.283 144.096 196.535 144.266 196.816 144.395C197.109 144.512 197.42 144.57 197.748 144.57C198.076 144.57 198.387 144.512 198.68 144.395C198.973 144.266 199.225 144.096 199.436 143.885C199.658 143.662 199.834 143.41 199.963 143.129C200.092 142.836 200.156 142.525 200.156 142.197V130.209H204.938V142.197ZM214.078 125.059C214.078 125.504 213.99 125.92 213.814 126.307C213.65 126.693 213.422 127.033 213.129 127.326C212.836 127.607 212.49 127.836 212.092 128.012C211.705 128.176 211.289 128.258 210.844 128.258C210.398 128.258 209.977 128.176 209.578 128.012C209.191 127.836 208.852 127.607 208.559 127.326C208.277 127.033 208.049 126.693 207.873 126.307C207.709 125.92 207.627 125.504 207.627 125.059C207.627 124.625 207.709 124.215 207.873 123.828C208.049 123.43 208.277 123.09 208.559 122.809C208.852 122.516 209.191 122.287 209.578 122.123C209.977 121.947 210.398 121.859 210.844 121.859C211.289 121.859 211.705 121.947 212.092 122.123C212.49 122.287 212.836 122.516 213.129 122.809C213.422 123.09 213.65 123.43 213.814 123.828C213.99 124.215 214.078 124.625 214.078 125.059ZM213.252 149H208.418V130.174H213.252V149ZM226.365 149C225.205 149 224.115 148.783 223.096 148.35C222.076 147.904 221.18 147.301 220.406 146.539C219.645 145.766 219.041 144.869 218.596 143.85C218.162 142.83 217.945 141.74 217.945 140.58V134.99H215.607V130.209H217.945V122.686H222.727V130.209H230.004V134.99H222.727V140.58C222.727 141.084 222.82 141.559 223.008 142.004C223.195 142.438 223.453 142.818 223.781 143.146C224.109 143.475 224.496 143.738 224.941 143.938C225.387 144.125 225.861 144.219 226.365 144.219H230.004V149H226.365ZM237.51 149H232.711V122.686H237.51V131C238.084 130.566 238.676 130.262 239.285 130.086C239.895 129.898 240.516 129.805 241.148 129.805C242.309 129.805 243.398 130.027 244.418 130.473C245.438 130.906 246.322 131.51 247.072 132.283C247.834 133.045 248.432 133.941 248.865 134.973C249.311 135.992 249.533 137.082 249.533 138.242V149H244.699V138.242H244.734C244.734 137.75 244.641 137.287 244.453 136.854C244.266 136.408 244.008 136.021 243.68 135.693C243.352 135.365 242.971 135.107 242.537 134.92C242.104 134.732 241.641 134.639 241.148 134.639C240.645 134.639 240.17 134.732 239.725 134.92C239.279 135.107 238.893 135.365 238.564 135.693C238.236 136.021 237.979 136.408 237.791 136.854C237.604 137.287 237.51 137.75 237.51 138.242V149ZM270.539 144.395C270.727 144.453 270.914 144.494 271.102 144.518C271.289 144.529 271.477 144.535 271.664 144.535C272.133 144.535 272.584 144.471 273.018 144.342C273.451 144.213 273.855 144.031 274.23 143.797C274.617 143.551 274.957 143.258 275.25 142.918C275.555 142.566 275.801 142.18 275.988 141.758L279.504 145.291C279.059 145.924 278.543 146.492 277.957 146.996C277.383 147.5 276.756 147.928 276.076 148.279C275.408 148.631 274.699 148.895 273.949 149.07C273.211 149.258 272.449 149.352 271.664 149.352C270.34 149.352 269.092 149.105 267.92 148.613C266.76 148.121 265.74 147.436 264.861 146.557C263.994 145.678 263.309 144.635 262.805 143.428C262.301 142.209 262.049 140.873 262.049 139.42C262.049 137.932 262.301 136.572 262.805 135.342C263.309 134.111 263.994 133.062 264.861 132.195C265.74 131.328 266.76 130.654 267.92 130.174C269.092 129.693 270.34 129.453 271.664 129.453C272.449 129.453 273.217 129.547 273.967 129.734C274.717 129.922 275.426 130.191 276.094 130.543C276.773 130.895 277.406 131.328 277.992 131.844C278.578 132.348 279.094 132.916 279.539 133.549L270.539 144.395ZM273 134.498C272.777 134.416 272.555 134.363 272.332 134.34C272.121 134.316 271.898 134.305 271.664 134.305C271.008 134.305 270.387 134.428 269.801 134.674C269.227 134.908 268.723 135.248 268.289 135.693C267.867 136.139 267.533 136.678 267.287 137.311C267.041 137.932 266.918 138.635 266.918 139.42C266.918 139.596 266.924 139.795 266.936 140.018C266.959 140.24 266.988 140.469 267.023 140.703C267.07 140.926 267.123 141.143 267.182 141.354C267.24 141.564 267.316 141.752 267.41 141.916L273 134.498ZM300.053 149H298.893L297.029 146.416C296.572 146.826 296.086 147.213 295.57 147.576C295.066 147.928 294.533 148.238 293.971 148.508C293.408 148.766 292.828 148.971 292.23 149.123C291.645 149.275 291.047 149.352 290.438 149.352C289.113 149.352 287.865 149.129 286.693 148.684C285.533 148.238 284.514 147.594 283.635 146.75C282.768 145.895 282.082 144.852 281.578 143.621C281.074 142.391 280.822 140.99 280.822 139.42C280.822 137.955 281.074 136.613 281.578 135.395C282.082 134.164 282.768 133.109 283.635 132.23C284.514 131.352 285.533 130.672 286.693 130.191C287.865 129.699 289.113 129.453 290.438 129.453C291.047 129.453 291.65 129.529 292.248 129.682C292.846 129.834 293.426 130.045 293.988 130.314C294.551 130.584 295.084 130.9 295.588 131.264C296.104 131.627 296.584 132.02 297.029 132.441L298.893 130.209H300.053V149ZM295.219 139.42C295.219 138.764 295.09 138.131 294.832 137.521C294.586 136.9 294.246 136.355 293.812 135.887C293.379 135.406 292.869 135.025 292.283 134.744C291.709 134.451 291.094 134.305 290.438 134.305C289.781 134.305 289.16 134.416 288.574 134.639C288 134.861 287.496 135.189 287.062 135.623C286.641 136.057 286.307 136.596 286.061 137.24C285.814 137.873 285.691 138.6 285.691 139.42C285.691 140.24 285.814 140.973 286.061 141.617C286.307 142.25 286.641 142.783 287.062 143.217C287.496 143.65 288 143.979 288.574 144.201C289.16 144.424 289.781 144.535 290.438 144.535C291.094 144.535 291.709 144.395 292.283 144.113C292.869 143.82 293.379 143.439 293.812 142.971C294.246 142.49 294.586 141.945 294.832 141.336C295.09 140.715 295.219 140.076 295.219 139.42ZM314.062 149H303.094V144.219H314.062C314.391 144.219 314.672 144.102 314.906 143.867C315.141 143.633 315.258 143.352 315.258 143.023C315.258 142.684 315.141 142.461 314.906 142.355C314.672 142.25 314.391 142.197 314.062 142.197H309.07C308.238 142.197 307.459 142.039 306.732 141.723C306.006 141.406 305.373 140.979 304.834 140.439C304.295 139.889 303.867 139.25 303.551 138.523C303.246 137.797 303.094 137.018 303.094 136.186C303.094 135.354 303.246 134.574 303.551 133.848C303.867 133.121 304.295 132.488 304.834 131.949C305.373 131.41 306.006 130.988 306.732 130.684C307.459 130.367 308.238 130.209 309.07 130.209H318.791V134.99H309.07C308.742 134.99 308.461 135.107 308.227 135.342C307.992 135.576 307.875 135.857 307.875 136.186C307.875 136.525 307.992 136.818 308.227 137.064C308.461 137.299 308.742 137.416 309.07 137.416H314.062C314.883 137.416 315.656 137.557 316.383 137.838C317.109 138.107 317.742 138.488 318.281 138.98C318.82 139.473 319.248 140.064 319.564 140.756C319.881 141.447 320.039 142.203 320.039 143.023C320.039 143.855 319.881 144.635 319.564 145.361C319.248 146.076 318.82 146.709 318.281 147.26C317.742 147.799 317.109 148.227 316.383 148.543C315.656 148.848 314.883 149 314.062 149ZM330.094 144.395C330.281 144.453 330.469 144.494 330.656 144.518C330.844 144.529 331.031 144.535 331.219 144.535C331.688 144.535 332.139 144.471 332.572 144.342C333.006 144.213 333.41 144.031 333.785 143.797C334.172 143.551 334.512 143.258 334.805 142.918C335.109 142.566 335.355 142.18 335.543 141.758L339.059 145.291C338.613 145.924 338.098 146.492 337.512 146.996C336.938 147.5 336.311 147.928 335.631 148.279C334.963 148.631 334.254 148.895 333.504 149.07C332.766 149.258 332.004 149.352 331.219 149.352C329.895 149.352 328.646 149.105 327.475 148.613C326.314 148.121 325.295 147.436 324.416 146.557C323.549 145.678 322.863 144.635 322.359 143.428C321.855 142.209 321.604 140.873 321.604 139.42C321.604 137.932 321.855 136.572 322.359 135.342C322.863 134.111 323.549 133.062 324.416 132.195C325.295 131.328 326.314 130.654 327.475 130.174C328.646 129.693 329.895 129.453 331.219 129.453C332.004 129.453 332.771 129.547 333.521 129.734C334.271 129.922 334.98 130.191 335.648 130.543C336.328 130.895 336.961 131.328 337.547 131.844C338.133 132.348 338.648 132.916 339.094 133.549L330.094 144.395ZM332.555 134.498C332.332 134.416 332.109 134.363 331.887 134.34C331.676 134.316 331.453 134.305 331.219 134.305C330.562 134.305 329.941 134.428 329.355 134.674C328.781 134.908 328.277 135.248 327.844 135.693C327.422 136.139 327.088 136.678 326.842 137.311C326.596 137.932 326.473 138.635 326.473 139.42C326.473 139.596 326.479 139.795 326.49 140.018C326.514 140.24 326.543 140.469 326.578 140.703C326.625 140.926 326.678 141.143 326.736 141.354C326.795 141.564 326.871 141.752 326.965 141.916L332.555 134.498Z" fill="url(#paint1_linear_2_95)"/>
<defs>
<filter id="filter0_d_2_95" x="0.499207" y="0.5" width="577.001" height="165" filterUnits="userSpaceOnUse" color-interpolation-filters="sRGB">
<feFlood flood-opacity="0" result="BackgroundImageFix"/>
<feColorMatrix in="SourceAlpha" type="matrix" values="0 0 0 0 0 0 0 0 0 0 0 0 0 0 0 0 0 0 127 0" result="hardAlpha"/>
<feOffset/>
<feGaussianBlur stdDeviation="5"/>
<feComposite in2="hardAlpha" operator="out"/>
<feColorMatrix type="matrix" values="0 0 0 0 0.811765 0 0 0 0 0.27451 0 0 0 0 0.898039 0 0 0 1 0"/>
<feBlend mode="normal" in2="BackgroundImageFix" result="effect1_dropShadow_2_95"/>
<feBlend mode="normal" in="SourceGraphic" in2="effect1_dropShadow_2_95" result="shape"/>
</filter>
<linearGradient id="paint0_linear_2_95" x1="-9.86842" y1="154" x2="538.976" y2="-72.4863" gradientUnits="userSpaceOnUse">
<stop stop-color="#CF46E5"/>
<stop offset="0.515625" stop-color="#7C9BEA"/>
<stop offset="1" stop-color="#5CEBC9"/>
</linearGradient>
<linearGradient id="paint1_linear_2_95" x1="45.3553" y1="55" x2="361.028" y2="146.202" gradientUnits="userSpaceOnUse">
<stop stop-color="#CF46E5"/>
<stop offset="0.997717" stop-color="#7C9BEA"/>
</linearGradient>
</defs>
</svg>
