<svg width="122" height="67" viewBox="0 0 122 67" fill="none" xmlns="http://www.w3.org/2000/svg">
<g filter="url(#filter0_d_2_5)">
<path d="M10.043 49.925C9.88283 50.4536 10.1815 51.0118 10.7101 51.172C11.2386 51.3321 11.7969 51.0334 11.957 50.5049L10.043 49.925ZM34.665 38.5499L34.7169 37.5513L34.665 38.5499ZM79.4551 51.8088L79.3756 52.8056L79.4551 51.8088ZM111.14 41.8088C111.471 41.3666 111.381 40.7399 110.939 40.4091C110.496 40.0783 109.87 40.1686 109.539 40.6109L111.14 41.8088ZM11 50.2149C11.957 50.5049 11.9569 50.5055 11.9567 50.5061C11.9566 50.5062 11.9565 50.5067 11.9564 50.507C11.9562 50.5075 11.9561 50.5079 11.9561 50.508C11.956 50.5083 11.9561 50.5078 11.9565 50.5066C11.9573 50.5042 11.959 50.4989 11.9617 50.4907C11.9671 50.4743 11.9764 50.4464 11.9901 50.408C12.0175 50.331 12.0622 50.2117 12.127 50.0563C12.2566 49.7453 12.4664 49.2909 12.779 48.7433C13.4044 47.6478 14.4387 46.1835 16.0632 44.7451C19.2891 41.8887 24.9422 39.0463 34.6131 39.5486L34.7169 37.5513C24.5685 37.0242 18.3891 40.0142 14.7373 43.2477C12.923 44.8542 11.7572 46.4992 11.0421 47.7517C10.6845 48.3781 10.439 48.9075 10.2809 49.2867C10.2019 49.4764 10.1445 49.6288 10.1059 49.7373C10.0866 49.7915 10.072 49.8348 10.0616 49.8664C10.0564 49.8822 10.0523 49.895 10.0492 49.9048C10.0477 49.9097 10.0464 49.9139 10.0453 49.9172C10.0448 49.9189 10.0444 49.9204 10.044 49.9217C10.0438 49.9223 10.0435 49.9232 10.0434 49.9235C10.0432 49.9243 10.043 49.925 11 50.2149ZM34.6131 39.5486C43.5308 40.0118 49.9125 42.8783 56.492 45.8863C63.0739 48.8953 69.8534 52.046 79.3756 52.8056L79.5346 50.8119C70.4015 50.0834 63.9106 47.0787 57.3236 44.0673C50.7342 41.0549 44.0485 38.036 34.7169 37.5513L34.6131 39.5486ZM79.3756 52.8056C90.421 53.6866 98.3414 50.9844 103.518 48.0255C106.101 46.5488 107.993 45.0129 109.245 43.8382C109.871 43.2508 110.337 42.7532 110.651 42.3978C110.808 42.22 110.926 42.0778 111.008 41.9775C111.048 41.9273 111.08 41.8876 111.102 41.8593C111.113 41.8451 111.122 41.8337 111.128 41.8253C111.131 41.8211 111.134 41.8176 111.136 41.8148C111.137 41.8135 111.138 41.8123 111.139 41.8113C111.139 41.8108 111.139 41.8102 111.14 41.8099C111.14 41.8093 111.14 41.8088 110.34 41.2099C109.539 40.6109 109.539 40.6105 109.539 40.6101C109.54 40.61 109.54 40.6097 109.54 40.6096C109.54 40.6093 109.54 40.6093 109.54 40.6094C109.54 40.6096 109.539 40.6106 109.538 40.6123C109.535 40.6157 109.53 40.622 109.523 40.6311C109.509 40.6492 109.486 40.6786 109.454 40.7183C109.39 40.7977 109.289 40.9186 109.151 41.0745C108.876 41.3865 108.453 41.8385 107.876 42.3797C106.722 43.4623 104.955 44.9001 102.525 46.2892C97.675 49.0617 90.1532 51.6589 79.5346 50.8119L79.3756 52.8056Z" fill="#CF46E5"/>
</g>
<g filter="url(#filter1_d_2_5)">
<path d="M26.6 21.97C26.48 22.05 26.23 22.15 25.85 22.27C25.49 22.37 24.87 22.47 23.99 22.57C23.73 22.59 23.36 22.61 22.88 22.63C22.4 22.65 21.88 22.67 21.32 22.69C20.78 22.71 20.28 22.72 19.82 22.72C19.38 22.7 19.07 22.67 18.89 22.63C18.89 22.63 18.84 22.68 18.74 22.78C18.66 22.88 18.62 23.01 18.62 23.17C18.48 23.41 18.31 23.77 18.11 24.25C17.91 24.71 17.69 25.22 17.45 25.78C17.23 26.34 17.02 26.9 16.82 27.46C16.62 28 16.45 28.48 16.31 28.9C16.19 29.3 16.13 29.58 16.13 29.74C15.95 30.22 15.84 30.63 15.8 30.97C15.76 31.31 15.69 31.51 15.59 31.57C15.53 31.87 15.34 32.02 15.02 32.02C14.72 32.02 14.49 31.93 14.33 31.75C13.89 31.53 13.59 31.25 13.43 30.91C13.27 30.55 13.26 30.15 13.4 29.71C13.46 29.45 13.56 29.07 13.7 28.57C13.86 28.05 14.03 27.48 14.21 26.86C14.41 26.24 14.61 25.64 14.81 25.06C15.03 24.46 15.24 23.97 15.44 23.59C15.66 23.21 15.8 22.87 15.86 22.57C15.92 22.25 16 21.96 16.1 21.7C16.08 21.48 16.08 21.34 16.1 21.28C16.12 21.2 16.2 21.07 16.34 20.89C16.44 20.81 16.56 20.67 16.7 20.47C16.86 20.25 17.04 19.92 17.24 19.48C17.3 19.28 17.39 19.01 17.51 18.67C17.65 18.31 17.78 17.95 17.9 17.59C18.02 17.21 18.13 16.89 18.23 16.63C18.33 16.37 18.38 16.23 18.38 16.21C18.42 16.13 18.48 15.98 18.56 15.76C18.64 15.52 18.7 15.33 18.74 15.19C18.82 14.91 18.88 14.68 18.92 14.5C18.98 14.32 18.97 14.23 18.89 14.23C18.73 14.27 18.41 14.3 17.93 14.32C17.69 14.36 17.51 14.39 17.39 14.41C17.29 14.41 17.2 14.42 17.12 14.44C16.92 14.46 16.74 14.44 16.58 14.38C16.42 14.32 16.34 14.2 16.34 14.02C16.38 13.7 16.49 13.37 16.67 13.03C16.87 12.69 17.12 12.51 17.42 12.49C17.56 12.45 17.71 12.42 17.87 12.4C18.05 12.36 18.29 12.3 18.59 12.22C18.97 12.14 19.3 12.12 19.58 12.16C19.88 12.18 20.09 12.21 20.21 12.25C20.31 12.19 20.39 12.13 20.45 12.07C20.53 11.99 20.58 11.91 20.6 11.83C20.7 11.47 20.88 11.2 21.14 11.02C21.4 10.82 21.67 10.72 21.95 10.72C22.25 10.7 22.49 10.78 22.67 10.96C22.85 11.12 22.9 11.39 22.82 11.77C22.84 11.83 22.86 11.88 22.88 11.92C22.92 11.96 23.07 11.96 23.33 11.92C23.61 11.86 24.09 11.76 24.77 11.62C25.13 11.58 25.58 11.54 26.12 11.5C26.68 11.46 27.12 11.49 27.44 11.59C27.78 11.53 28.08 11.51 28.34 11.53C28.62 11.53 28.81 11.49 28.91 11.41C29.33 11.49 29.63 11.55 29.81 11.59C30.01 11.61 30.17 11.67 30.29 11.77C30.37 11.85 30.4 11.93 30.38 12.01C30.36 12.07 30.35 12.1 30.35 12.1C30.27 12.06 30.26 12.06 30.32 12.1C30.38 12.12 30.46 12.17 30.56 12.25C30.7 12.31 30.77 12.44 30.77 12.64C30.79 12.82 30.78 13.01 30.74 13.21C30.72 13.39 30.7 13.51 30.68 13.57C30.66 13.75 30.56 13.86 30.38 13.9C30.2 13.92 29.75 13.92 29.03 13.9C28.17 13.78 27.37 13.74 26.63 13.78C25.91 13.8 25 13.89 23.9 14.05C23.46 14.07 23.08 14.13 22.76 14.23C22.46 14.31 22.31 14.35 22.31 14.35C22.23 14.35 22.09 14.49 21.89 14.77C21.69 15.03 21.5 15.42 21.32 15.94C21.24 16.08 21.1 16.37 20.9 16.81C20.72 17.25 20.53 17.73 20.33 18.25C20.13 18.75 19.95 19.2 19.79 19.6C19.63 19.98 19.53 20.19 19.49 20.23C19.77 20.31 20.2 20.35 20.78 20.35C21.38 20.35 22.04 20.33 22.76 20.29C23.48 20.23 24.16 20.17 24.8 20.11C25.1 20.05 25.41 20 25.73 19.96C26.05 19.92 26.27 19.91 26.39 19.93C26.63 19.95 26.81 20.11 26.93 20.41C27.05 20.69 27.09 20.99 27.05 21.31C27.01 21.61 26.86 21.83 26.6 21.97ZM34.7616 30.94C34.5616 30.74 34.4016 30.47 34.2816 30.13C34.1616 29.77 34.0416 29.36 33.9216 28.9C33.8816 28.74 33.8616 28.56 33.8616 28.36C33.8816 28.16 33.8816 28 33.8616 27.88C33.8016 28.02 33.7016 28.2 33.5616 28.42C33.4416 28.64 33.3216 28.8 33.2016 28.9C33.1216 28.98 32.9416 29.14 32.6616 29.38C32.3816 29.6 32.1016 29.78 31.8216 29.92C31.1616 30.34 30.5716 30.54 30.0516 30.52C29.5516 30.48 29.1116 30.22 28.7316 29.74C28.4116 29.48 28.1516 29.15 27.9516 28.75C27.7516 28.35 27.7116 27.87 27.8316 27.31C27.8716 26.61 27.9716 25.93 28.1316 25.27C28.2916 24.59 28.6216 23.69 29.1216 22.57C29.5416 21.75 29.8616 21.11 30.0816 20.65C30.3016 20.19 30.4416 19.92 30.5016 19.84C30.8016 19.74 31.1716 19.75 31.6116 19.87C32.0516 19.97 32.2916 20.16 32.3316 20.44C32.4516 20.64 32.4516 21.02 32.3316 21.58C32.2116 22.12 31.9716 22.74 31.6116 23.44C31.3316 24.12 31.0616 24.78 30.8016 25.42C30.5616 26.06 30.4116 26.6 30.3516 27.04C30.3116 27.48 30.4316 27.75 30.7116 27.85C30.8916 27.95 31.1516 27.94 31.4916 27.82C31.8516 27.7 32.2716 27.34 32.7516 26.74C33.2316 26.14 33.7416 25.19 34.2816 23.89C34.4416 23.49 34.5616 23.14 34.6416 22.84C34.7216 22.52 34.7716 22.17 34.7916 21.79C34.7516 21.55 34.8116 21.3 34.9716 21.04C35.1516 20.78 35.3616 20.58 35.6016 20.44C35.6816 20.34 35.7916 20.25 35.9316 20.17C36.0716 20.07 36.1616 20.07 36.2016 20.17L36.6816 20.14C36.7616 20.12 36.8516 20.2 36.9516 20.38C37.0516 20.56 37.1516 20.69 37.2516 20.77C37.4716 20.95 37.5716 21.34 37.5516 21.94C37.5316 22.54 37.2916 23.38 36.8316 24.46C36.4516 25.28 36.1916 25.9 36.0516 26.32C35.9316 26.74 35.8616 27.15 35.8416 27.55C35.8416 27.91 35.8716 28.22 35.9316 28.48C35.9916 28.72 36.1716 28.97 36.4716 29.23C36.6916 29.37 36.8116 29.61 36.8316 29.95C36.8716 30.27 36.8816 30.55 36.8616 30.79C36.8216 30.97 36.6616 31.09 36.3816 31.15C36.1216 31.23 35.8316 31.25 35.5116 31.21C35.2116 31.17 34.9616 31.08 34.7616 30.94ZM49.0752 30.28C48.6352 30.24 48.2652 30.15 47.9652 30.01C47.6852 29.85 47.4552 29.54 47.2752 29.08C47.1952 28.76 47.1552 28.43 47.1552 28.09C47.1752 27.73 47.2052 27.39 47.2452 27.07C47.2852 26.73 47.3052 26.44 47.3052 26.2C47.3052 26.16 47.3052 26.08 47.3052 25.96C47.3052 25.84 47.3052 25.73 47.3052 25.63C47.2652 25.33 47.1852 25.15 47.0652 25.09C46.9652 25.01 46.7852 25.02 46.5252 25.12C46.1052 25.32 45.6452 25.59 45.1452 25.93C44.6652 26.25 44.1552 26.63 43.6152 27.07C43.0952 27.49 42.5552 27.94 41.9952 28.42C41.5552 28.9 41.2252 29.29 41.0052 29.59C40.8052 29.89 40.5952 30.04 40.3752 30.04C40.2152 30.12 40.0452 30.1 39.8652 29.98C39.6852 29.86 39.4952 29.72 39.2952 29.56C39.1552 29.4 38.9852 29.2 38.7852 28.96C38.6052 28.7 38.4952 28.53 38.4552 28.45C38.4552 28.13 38.4752 27.84 38.5152 27.58C38.5752 27.32 38.6552 27.05 38.7552 26.77C38.8752 26.49 39.0152 26.17 39.1752 25.81C39.2552 25.67 39.3252 25.53 39.3852 25.39C39.4652 25.23 39.5552 25.06 39.6552 24.88C39.7352 24.6 39.8452 24.28 39.9852 23.92C40.1452 23.56 40.2952 23.22 40.4352 22.9C40.6552 22.38 40.8252 21.93 40.9452 21.55C41.0652 21.17 41.1652 20.76 41.2452 20.32C41.2252 20.28 41.2352 20.22 41.2752 20.14C41.3152 20.06 41.3752 20.01 41.4552 19.99H41.4852H41.5152C41.6552 19.89 41.9152 19.88 42.2952 19.96C42.6952 20.02 42.9952 20.13 43.1952 20.29C43.6152 20.65 43.8152 21.12 43.7952 21.7C43.7752 22.28 43.4752 23.04 42.8952 23.98C42.7552 24.3 42.6052 24.6 42.4452 24.88C42.3052 25.14 42.2352 25.32 42.2352 25.42C42.2352 25.42 42.3152 25.36 42.4752 25.24C42.6352 25.12 42.8252 24.98 43.0452 24.82C43.2652 24.64 43.4552 24.5 43.6152 24.4C43.7152 24.3 43.9352 24.12 44.2752 23.86C44.6152 23.58 44.9852 23.29 45.3852 22.99C45.7852 22.69 46.1052 22.46 46.3452 22.3C46.5652 22.14 46.8452 21.98 47.1852 21.82C47.5252 21.64 47.7352 21.55 47.8152 21.55C48.0152 21.55 48.2552 21.62 48.5352 21.76C48.8352 21.9 49.1052 22.07 49.3452 22.27C49.6052 22.45 49.7552 22.62 49.7952 22.78C49.7952 22.86 49.7852 22.97 49.7652 23.11C49.7452 23.23 49.7352 23.34 49.7352 23.44C49.7152 23.76 49.7052 24.15 49.7052 24.61C49.7252 25.05 49.7352 25.5 49.7352 25.96C49.7352 26.4 49.6952 26.8 49.6152 27.16C49.6152 27.16 49.6252 27.18 49.6452 27.22C49.6652 27.24 49.6852 27.28 49.7052 27.34C49.6852 27.36 49.6752 27.4 49.6752 27.46C49.6952 27.5 49.7052 27.52 49.7052 27.52C49.7452 27.66 49.7852 27.8 49.8252 27.94C49.8852 28.08 49.9552 28.24 50.0352 28.42C50.1152 28.58 50.2052 28.79 50.3052 29.05C50.2852 29.31 50.1352 29.57 49.8552 29.83C49.5952 30.07 49.3352 30.22 49.0752 30.28ZM53.0347 32.53C52.8547 32.45 52.6447 32.29 52.4047 32.05C52.0047 31.71 51.7347 31.28 51.5947 30.76C51.4747 30.22 51.4647 29.7 51.5647 29.2C51.8047 28.6 52.0647 28.19 52.3447 27.97C52.6447 27.73 52.9547 27.63 53.2747 27.67C53.6147 27.69 53.9347 27.81 54.2347 28.03C54.0947 28.45 53.9847 28.83 53.9047 29.17C53.8247 29.51 53.8547 29.8 53.9947 30.04C54.1347 30.28 54.4647 30.47 54.9847 30.61C55.3847 30.65 55.7247 30.67 56.0047 30.67C56.3047 30.65 56.6547 30.63 57.0547 30.61C57.5147 30.57 57.8747 30.52 58.1347 30.46C58.4147 30.4 58.6647 30.34 58.8847 30.28C59.4447 30.12 59.9247 29.9 60.3247 29.62C60.7247 29.32 61.0547 28.98 61.3147 28.6C61.4747 28.32 61.5847 28.07 61.6447 27.85C61.7047 27.61 61.7347 27.36 61.7347 27.1C61.7347 26.8 61.7047 26.54 61.6447 26.32C61.5847 26.08 61.4747 25.8 61.3147 25.48C61.1747 25.14 60.9447 24.67 60.6247 24.07C60.6047 23.93 60.4447 23.69 60.1447 23.35C59.8647 23.01 59.5847 22.68 59.3047 22.36C59.1647 22.04 58.9847 21.68 58.7647 21.28C58.5447 20.86 58.2947 20.56 58.0147 20.38C57.9347 20.26 57.8447 20.07 57.7447 19.81C57.6647 19.55 57.5947 19.41 57.5347 19.39C57.5347 19.39 57.5047 19.34 57.4447 19.24C57.4047 19.14 57.3547 19.02 57.2947 18.88C57.0347 18.3 57.0247 17.58 57.2647 16.72C57.5047 15.84 57.9447 15.02 58.5847 14.26C58.8047 13.9 59.0847 13.54 59.4247 13.18C59.7647 12.8 60.0747 12.49 60.3547 12.25C60.6547 11.99 60.8447 11.86 60.9247 11.86C60.9247 11.86 60.9847 11.84 61.1047 11.8C61.2447 11.74 61.4147 11.64 61.6147 11.5C61.8347 11.36 62.0447 11.25 62.2447 11.17C62.4447 11.07 62.7347 10.98 63.1147 10.9L63.2947 10.87L63.4147 10.84C63.7547 10.74 64.0347 10.67 64.2547 10.63C64.4747 10.57 64.6847 10.54 64.8847 10.54C65.0847 10.54 65.3247 10.55 65.6047 10.57C66.5047 10.81 67.1947 11.14 67.6747 11.56C68.1747 11.96 68.4447 12.69 68.4847 13.75L68.2447 14.59L67.7347 15.16C67.6747 15.14 67.5147 15.2 67.2547 15.34C67.0147 15.48 66.6747 15.59 66.2347 15.67C65.8147 15.73 65.2747 15.63 64.6147 15.37C64.5347 15.35 64.5047 15.3 64.5247 15.22C64.5447 15.12 64.6247 15.06 64.7647 15.04C64.8247 15 64.9147 14.91 65.0347 14.77C65.1747 14.63 65.3047 14.47 65.4247 14.29C65.6847 13.93 65.7447 13.66 65.6047 13.48C65.4847 13.28 65.2447 13.18 64.8847 13.18C64.2047 13.2 63.5547 13.33 62.9347 13.57C62.3147 13.79 61.7447 14.19 61.2247 14.77C60.8047 15.31 60.4947 15.79 60.2947 16.21C60.0947 16.61 59.9947 16.98 59.9947 17.32C60.0347 17.46 60.0547 17.67 60.0547 17.95C60.0747 18.21 60.1547 18.48 60.2947 18.76C60.9547 19.68 61.4647 20.39 61.8247 20.89C62.2047 21.39 62.4647 21.75 62.6047 21.97C62.6447 22.03 62.6747 22.08 62.6947 22.12C62.7147 22.16 62.7247 22.2 62.7247 22.24C62.8047 22.38 62.9147 22.58 63.0547 22.84C63.1947 23.1 63.3247 23.35 63.4447 23.59C63.5647 23.83 63.6247 23.99 63.6247 24.07C63.6247 24.07 63.6547 24.13 63.7147 24.25C63.7747 24.35 63.8447 24.5 63.9247 24.7C64.0247 24.88 64.1147 25.14 64.1947 25.48C64.2947 25.8 64.3747 26.15 64.4347 26.53C64.4947 26.89 64.5247 27.22 64.5247 27.52C64.5247 27.76 64.4647 28.07 64.3447 28.45C64.2247 28.81 64.0647 29.18 63.8647 29.56C63.6847 29.92 63.4547 30.22 63.1747 30.46C62.8947 30.7 62.4847 30.99 61.9447 31.33C61.4047 31.67 60.8147 31.98 60.1747 32.26C59.5347 32.54 58.9147 32.73 58.3147 32.83C57.7147 32.93 57.1447 33.01 56.6047 33.07C56.0847 33.13 55.5947 33.15 55.1347 33.13C54.6947 33.13 54.2947 33.08 53.9347 32.98C53.5747 32.88 53.2747 32.73 53.0347 32.53ZM74.6982 31.18C74.5582 31.26 74.3682 31.23 74.1282 31.09C73.9082 30.95 73.6882 30.74 73.4682 30.46C73.3282 30.22 73.2182 29.98 73.1382 29.74C73.0782 29.48 73.0482 29.1 73.0482 28.6C73.0682 28.2 73.0682 27.93 73.0482 27.79C73.0482 27.63 72.9582 27.62 72.7782 27.76C72.6182 27.88 72.2882 28.18 71.7882 28.66C71.2882 29.16 70.8082 29.59 70.3482 29.95C69.9082 30.29 69.5482 30.45 69.2682 30.43C69.1282 30.43 68.9382 30.34 68.6982 30.16C68.4582 29.98 68.2282 29.76 68.0082 29.5C67.7882 29.22 67.6282 28.96 67.5282 28.72C67.4082 28.24 67.3982 27.62 67.4982 26.86C67.6182 26.1 67.8082 25.31 68.0682 24.49C68.3282 23.65 68.6182 22.87 68.9382 22.15C69.2782 21.41 69.6082 20.82 69.9282 20.38C70.2682 19.92 70.5582 19.7 70.7982 19.72C71.1382 19.76 71.4282 19.93 71.6682 20.23C71.9282 20.51 72.1282 20.82 72.2682 21.16C72.3482 21.3 72.3782 21.42 72.3582 21.52C72.3582 21.62 72.2782 21.74 72.1182 21.88C71.9382 22.12 71.7182 22.47 71.4582 22.93C71.2182 23.37 70.9682 23.85 70.7082 24.37C70.4682 24.89 70.2482 25.39 70.0482 25.87C69.8682 26.33 69.7382 26.71 69.6582 27.01C69.5782 27.31 69.5782 27.46 69.6582 27.46C69.9382 27.46 70.1982 27.39 70.4382 27.25C70.6782 27.09 70.9782 26.84 71.3382 26.5C71.7582 26.08 72.1282 25.66 72.4482 25.24C72.7682 24.8 73.0982 24.3 73.4382 23.74C73.6982 23.34 73.9682 22.9 74.2482 22.42C74.5482 21.94 74.7382 21.6 74.8182 21.4C75.0982 20.88 75.3082 20.49 75.4482 20.23C75.5882 19.97 75.7582 19.81 75.9582 19.75C76.0582 19.75 76.1982 19.75 76.3782 19.75C76.5582 19.75 76.6482 19.75 76.6482 19.75C76.7682 19.77 76.9082 19.86 77.0682 20.02C77.2282 20.1 77.3882 20.21 77.5482 20.35C77.7282 20.49 77.8182 20.61 77.8182 20.71C77.7382 20.91 77.6082 21.21 77.4282 21.61C77.2682 21.99 77.1482 22.27 77.0682 22.45C76.6882 23.31 76.3182 24.16 75.9582 25C75.6182 25.82 75.3682 26.66 75.2082 27.52C75.1682 27.8 75.1582 28.13 75.1782 28.51C75.2182 28.87 75.2782 29.13 75.3582 29.29C75.4182 29.41 75.4882 29.55 75.5682 29.71C75.6682 29.85 75.7782 29.97 75.8982 30.07C76.0782 30.19 76.0682 30.34 75.8682 30.52C75.6882 30.7 75.4582 30.86 75.1782 31C74.9182 31.12 74.7582 31.18 74.6982 31.18ZM80.9117 30.37C80.8517 30.39 80.7217 30.38 80.5217 30.34C80.3417 30.3 80.1517 30.25 79.9517 30.19C79.7717 30.13 79.6617 30.08 79.6217 30.04C79.5417 29.96 79.4317 29.82 79.2917 29.62C79.1517 29.4 79.0717 29.11 79.0517 28.75C79.0517 28.39 79.2217 27.96 79.5617 27.46C79.6617 27.26 79.7817 26.96 79.9217 26.56C80.0617 26.16 80.2017 25.74 80.3417 25.3C80.5017 24.84 80.6417 24.43 80.7617 24.07C80.9017 23.71 81.0017 23.46 81.0617 23.32C81.1017 22.98 81.0817 22.74 81.0017 22.6C80.9417 22.44 80.7717 22.35 80.4917 22.33C80.2917 22.33 80.1317 22.26 80.0117 22.12C79.9117 21.98 79.8617 21.73 79.8617 21.37C79.9017 21.09 79.9717 20.85 80.0717 20.65C80.1917 20.43 80.3517 20.25 80.5517 20.11C80.7517 20.01 81.0017 19.94 81.3017 19.9C81.6217 19.86 81.9317 19.85 82.2317 19.87C82.5317 19.89 82.7417 19.96 82.8617 20.08C83.0017 20.16 83.1117 20.34 83.1917 20.62C83.2917 20.88 83.3717 21.15 83.4317 21.43C83.4917 21.71 83.5317 21.92 83.5517 22.06C83.7517 21.9 83.9717 21.68 84.2117 21.4C84.4717 21.1 84.7317 20.82 84.9917 20.56C85.3117 20.34 85.6917 20.12 86.1317 19.9C86.5717 19.66 86.8917 19.54 87.0917 19.54C87.3117 19.54 87.5817 19.65 87.9017 19.87C88.2217 20.07 88.4217 20.25 88.5017 20.41C88.7017 20.75 88.8417 21.11 88.9217 21.49C89.0217 21.85 88.9617 22.17 88.7417 22.45C88.5417 22.71 88.2617 22.97 87.9017 23.23C87.5417 23.47 87.0917 23.54 86.5517 23.44C86.4317 23.4 86.3017 23.25 86.1617 22.99C86.0417 22.73 85.9717 22.54 85.9517 22.42C85.9517 22.36 85.8617 22.42 85.6817 22.6C85.5217 22.76 85.3217 22.96 85.0817 23.2C84.8617 23.44 84.6517 23.66 84.4517 23.86C84.1117 24.28 83.7517 24.85 83.3717 25.57C82.9917 26.29 82.5417 27.16 82.0217 28.18C81.7817 28.68 81.5817 29.16 81.4217 29.62C81.2617 30.06 81.0917 30.31 80.9117 30.37ZM91.0323 34.45C90.7123 34.45 90.4623 34.31 90.2823 34.03C90.1023 33.75 90.0123 33.57 90.0123 33.49C90.0323 33.35 90.0623 33.22 90.1023 33.1C90.1423 33 90.1723 32.9 90.1923 32.8C90.2323 32.6 90.2523 32.36 90.2523 32.08C90.2523 31.82 90.2823 31.32 90.3423 30.58C90.4023 29.78 90.4523 29.12 90.4923 28.6C90.5523 28.08 90.6123 27.62 90.6723 27.22C90.7323 26.82 90.8023 26.42 90.8823 26.02C90.9623 25.6 91.0723 25.09 91.2123 24.49C91.3123 23.81 91.3123 23.39 91.2123 23.23C91.1323 23.07 90.9823 22.98 90.7623 22.96C90.3823 22.92 90.0523 22.82 89.7723 22.66C89.4923 22.48 89.3123 22.27 89.2323 22.03C89.0323 21.83 88.9823 21.65 89.0823 21.49C89.2023 21.33 89.4223 21.2 89.7423 21.1C90.0623 20.98 90.4023 20.93 90.7623 20.95C91.1023 20.93 91.3623 20.91 91.5423 20.89C91.7423 20.85 91.9023 20.75 92.0223 20.59C92.1423 20.41 92.2623 20.11 92.3823 19.69C92.4223 19.51 92.4923 19.28 92.5923 19C92.7123 18.72 92.8223 18.47 92.9223 18.25C93.0223 18.03 93.0723 17.92 93.0723 17.92C93.2523 17.78 93.3423 17.6 93.3423 17.38C93.3623 17.1 93.4923 16.73 93.7323 16.27C93.9923 15.79 94.4023 15.12 94.9623 14.26C95.6423 13.38 96.3123 12.66 96.9723 12.1C97.6523 11.52 98.3623 11.17 99.1023 11.05C99.1823 11.01 99.3623 10.99 99.6423 10.99C99.9223 10.99 100.112 10.99 100.212 10.99C100.632 11.01 100.992 11.13 101.292 11.35C101.612 11.55 101.862 11.82 102.042 12.16C102.202 12.42 102.232 12.8 102.132 13.3C102.052 13.78 101.932 14.14 101.772 14.38C101.672 14.54 101.472 14.76 101.172 15.04C100.892 15.32 100.612 15.57 100.332 15.79C100.052 16.01 99.8723 16.12 99.7923 16.12C99.6923 16.12 99.5423 16.04 99.3423 15.88C99.1423 15.72 99.0223 15.61 98.9823 15.55C98.9023 15.31 98.9223 15.09 99.0423 14.89C99.1823 14.67 99.3223 14.46 99.4623 14.26C99.6623 13.96 99.7723 13.76 99.7923 13.66C99.8123 13.56 99.7923 13.48 99.7323 13.42C99.6723 13.34 99.6123 13.2 99.5523 13L99.8223 13.27C99.6823 13.19 99.5623 13.16 99.4623 13.18C99.3623 13.2 99.2023 13.25 98.9823 13.33C98.6023 13.53 98.3623 13.69 98.2623 13.81C98.1823 13.91 98.0623 14.04 97.9023 14.2C97.4223 14.62 97.0723 15.12 96.8523 15.7C96.6323 16.26 96.3923 16.8 96.1323 17.32C96.0523 17.48 95.9123 17.78 95.7123 18.22C95.5323 18.64 95.3623 19.04 95.2023 19.42C95.0623 19.78 94.9323 20.06 94.8123 20.26C94.6923 20.44 94.6323 20.56 94.6323 20.62C94.5723 20.76 94.6023 20.83 94.7223 20.83C94.8623 20.83 95.1323 20.82 95.5323 20.8C96.5123 20.68 97.1923 20.69 97.5723 20.83C97.9723 20.95 98.2123 21.17 98.2923 21.49C98.6323 21.97 98.5423 22.32 98.0223 22.54C97.5223 22.74 96.7023 22.92 95.5623 23.08C95.2423 23.1 94.9923 23.12 94.8123 23.14C94.6323 23.14 94.4923 23.15 94.3923 23.17C94.3123 23.19 94.2323 23.22 94.1523 23.26C94.0723 23.3 93.9823 23.5 93.8823 23.86C93.8623 24.08 93.8223 24.3 93.7623 24.52C93.7223 24.72 93.6923 24.96 93.6723 25.24C93.5923 25.48 93.5323 25.73 93.4923 25.99C93.4723 26.25 93.4123 26.48 93.3123 26.68C93.1923 27.78 93.1023 28.82 93.0423 29.8C92.9823 30.76 92.9023 31.59 92.8023 32.29C92.7223 32.99 92.5523 33.52 92.2923 33.88C92.1523 34.04 91.9323 34.2 91.6323 34.36C91.3523 34.52 91.1523 34.55 91.0323 34.45Z" fill="#CF46E5"/>
</g>
<defs>
<filter id="filter0_d_2_5" x="-0.000244141" y="27.4906" width="121.34" height="35.4843" filterUnits="userSpaceOnUse" color-interpolation-filters="sRGB">
<feFlood flood-opacity="0" result="BackgroundImageFix"/>
<feColorMatrix in="SourceAlpha" type="matrix" values="0 0 0 0 0 0 0 0 0 0 0 0 0 0 0 0 0 0 127 0" result="hardAlpha"/>
<feOffset/>
<feGaussianBlur stdDeviation="5"/>
<feComposite in2="hardAlpha" operator="out"/>
<feColorMatrix type="matrix" values="0 0 0 0 0.811765 0 0 0 0 0.27451 0 0 0 0 0.898039 0 0 0 1 0"/>
<feBlend mode="normal" in2="BackgroundImageFix" result="effect1_dropShadow_2_5"/>
<feBlend mode="normal" in="SourceGraphic" in2="effect1_dropShadow_2_5" result="shape"/>
</filter>
<filter id="filter1_d_2_5" x="3.19" y="0.540009" width="109.092" height="44.06" filterUnits="userSpaceOnUse" color-interpolation-filters="sRGB">
<feFlood flood-opacity="0" result="BackgroundImageFix"/>
<feColorMatrix in="SourceAlpha" type="matrix" values="0 0 0 0 0 0 0 0 0 0 0 0 0 0 0 0 0 0 127 0" result="hardAlpha"/>
<feOffset/>
<feGaussianBlur stdDeviation="5"/>
<feComposite in2="hardAlpha" operator="out"/>
<feColorMatrix type="matrix" values="0 0 0 0 0.810451 0 0 0 0 0.273119 0 0 0 0 0.897924 0 0 0 1 0"/>
<feBlend mode="normal" in2="BackgroundImageFix" result="effect1_dropShadow_2_5"/>
<feBlend mode="normal" in="SourceGraphic" in2="effect1_dropShadow_2_5" result="shape"/>
</filter>
</defs>
</svg>
