<svg width="74" height="74" viewBox="0 0 74 74" fill="none" xmlns="http://www.w3.org/2000/svg">
<g filter="url(#filter0_d_2_31)">
<circle cx="37" cy="37" r="26" stroke="#CF46E5" stroke-width="2" shape-rendering="crispEdges"/>
</g>
<g filter="url(#filter1_d_2_31)">
<path d="M46.4036 33.269L36.499 42.8329L26.5944 33.269C26.4175 33.0978 26.1799 33.002 25.9325 33.002C25.6852 33.002 25.4476 33.0978 25.2706 33.269C25.1849 33.3522 25.1169 33.4515 25.0704 33.561C25.0239 33.6706 25 33.7882 25 33.907C25 34.0259 25.0239 34.1435 25.0704 34.253C25.1169 34.3626 25.1849 34.4618 25.2706 34.545L35.8074 44.7213C35.9924 44.9 36.2406 45 36.499 45C36.7574 45 37.0056 44.9 37.1906 44.7213L47.7273 34.547C47.8136 34.4637 47.8822 34.3642 47.929 34.2543C47.9759 34.1444 48 34.0263 48 33.907C48 33.7877 47.9759 33.6696 47.929 33.5597C47.8822 33.4498 47.8136 33.3503 47.7273 33.2671C47.5504 33.0959 47.3128 33 47.0654 33C46.8181 33 46.5805 33.0959 46.4036 33.2671V33.269Z" fill="#CF46E5"/>
</g>
<defs>
<filter id="filter0_d_2_31" x="0" y="0" width="74" height="74" filterUnits="userSpaceOnUse" color-interpolation-filters="sRGB">
<feFlood flood-opacity="0" result="BackgroundImageFix"/>
<feColorMatrix in="SourceAlpha" type="matrix" values="0 0 0 0 0 0 0 0 0 0 0 0 0 0 0 0 0 0 127 0" result="hardAlpha"/>
<feOffset/>
<feGaussianBlur stdDeviation="5"/>
<feComposite in2="hardAlpha" operator="out"/>
<feColorMatrix type="matrix" values="0 0 0 0 0.810451 0 0 0 0 0.273119 0 0 0 0 0.897924 0 0 0 1 0"/>
<feBlend mode="normal" in2="BackgroundImageFix" result="effect1_dropShadow_2_31"/>
<feBlend mode="normal" in="SourceGraphic" in2="effect1_dropShadow_2_31" result="shape"/>
</filter>
<filter id="filter1_d_2_31" x="15" y="23" width="43" height="32" filterUnits="userSpaceOnUse" color-interpolation-filters="sRGB">
<feFlood flood-opacity="0" result="BackgroundImageFix"/>
<feColorMatrix in="SourceAlpha" type="matrix" values="0 0 0 0 0 0 0 0 0 0 0 0 0 0 0 0 0 0 127 0" result="hardAlpha"/>
<feOffset/>
<feGaussianBlur stdDeviation="5"/>
<feComposite in2="hardAlpha" operator="out"/>
<feColorMatrix type="matrix" values="0 0 0 0 0.810451 0 0 0 0 0.273119 0 0 0 0 0.897924 0 0 0 1 0"/>
<feBlend mode="normal" in2="BackgroundImageFix" result="effect1_dropShadow_2_31"/>
<feBlend mode="normal" in="SourceGraphic" in2="effect1_dropShadow_2_31" result="shape"/>
</filter>
</defs>
</svg>
