<svg width="164" height="39" viewBox="0 0 164 39" fill="none" xmlns="http://www.w3.org/2000/svg">
<path d="M5.325 18C4.825 18 4.46667 17.9583 4.25 17.875C4.05 17.7917 3.95 17.625 3.95 17.375C3.95 17.2417 4.01667 17.1167 4.15 17C4.28333 16.8833 4.475 16.775 4.725 16.675C5.375 16.525 5.825 16.375 6.075 16.225C6.34167 16.075 6.51667 15.8833 6.6 15.65C6.68333 15.4 6.725 15.0417 6.725 14.575V3.125C6.725 2.775 6.7 2.51667 6.65 2.35C6.6 2.18333 6.50833 2.05833 6.375 1.975C6.25833 1.89167 6.075 1.85 5.825 1.85H4.375C4.00833 1.85 3.71667 1.93333 3.5 2.1C3.3 2.26667 3.11667 2.54167 2.95 2.925C2.8 3.30833 2.575 3.98333 2.275 4.95L2.2 5.175C2.01667 5.625 1.84167 5.95 1.675 6.15C1.525 6.33333 1.325 6.425 1.075 6.425C0.758333 6.425 0.558333 6.29167 0.475 6.025C0.391667 5.75833 0.4 5.35833 0.5 4.825C0.616667 4.275 0.791667 3.6 1.025 2.8C1.19167 2.16667 1.35833 1.63333 1.525 1.2C1.69167 0.766666 1.84167 0.466666 1.975 0.3C2.125 0.116666 2.28333 0.024999 2.45 0.024999C2.55 0.024999 2.65 0.0416659 2.75 0.0749998C2.86667 0.108333 2.96667 0.141666 3.05 0.174999C3.25 0.274999 3.44167 0.358333 3.625 0.425C3.825 0.474999 4.09167 0.499999 4.425 0.499999H11.8C12.1833 0.499999 12.475 0.474999 12.675 0.425C12.8917 0.358333 13.1083 0.274999 13.325 0.174999C13.5417 0.0749988 13.725 0.024999 13.875 0.024999C14.0417 0.024999 14.1833 0.0916658 14.3 0.224999C14.4333 0.358333 14.575 0.641666 14.725 1.075C14.8917 1.49167 15.075 2.06667 15.275 2.8C15.525 3.65 15.7083 4.34167 15.825 4.875C15.9417 5.40833 15.9583 5.8 15.875 6.05C15.7917 6.3 15.5917 6.425 15.275 6.425C15.0417 6.425 14.8333 6.33333 14.65 6.15C14.4833 5.95 14.3083 5.625 14.125 5.175L14.025 4.825C13.7417 3.925 13.5167 3.28333 13.35 2.9C13.2 2.51667 13.025 2.25 12.825 2.1C12.625 1.93333 12.3583 1.85 12.025 1.85H10.55C10.2833 1.85 10.0833 1.89167 9.95 1.975C9.81667 2.05833 9.725 2.18333 9.675 2.35C9.64167 2.5 9.625 2.75833 9.625 3.125V14.475C9.625 15.0083 9.66667 15.4 9.75 15.65C9.83333 15.9 10 16.1 10.25 16.25C10.5 16.3833 10.9583 16.525 11.625 16.675C11.8917 16.7917 12.0833 16.9 12.2 17C12.3333 17.1 12.4 17.2333 12.4 17.4C12.4 17.6 12.3083 17.7583 12.125 17.875C11.9417 17.975 11.6167 18.025 11.15 18.025C10.5833 18.025 10.0417 18.025 9.525 18.025C9.025 18.025 8.54167 18.0167 8.075 18C7.625 18 7.175 18 6.725 18C6.275 18 5.80833 18 5.325 18ZM20.9561 18.275C19.7394 18.275 18.6811 17.9917 17.7811 17.425C16.8977 16.8583 16.2227 16.0917 15.7561 15.125C15.2894 14.1583 15.0561 13.0917 15.0561 11.925C15.0561 10.725 15.3311 9.66667 15.8811 8.75C16.4311 7.83333 17.1561 7.125 18.0561 6.625C18.9727 6.10833 19.9561 5.85 21.0061 5.85C21.9894 5.85 22.8477 6.05 23.5811 6.45C24.3311 6.85 24.9061 7.375 25.3061 8.025C25.7227 8.65833 25.9311 9.3 25.9311 9.95C25.9311 10.5167 25.7894 10.9167 25.5061 11.15C25.2394 11.3833 24.7894 11.5417 24.1561 11.625L18.4811 12.45C18.3477 12.4667 18.2477 12.5083 18.1811 12.575C18.1144 12.625 18.0811 12.7167 18.0811 12.85C18.0811 13.4 18.2227 13.95 18.5061 14.5C18.7894 15.0333 19.2144 15.4917 19.7811 15.875C20.3477 16.2417 20.9977 16.425 21.7311 16.425C22.5311 16.425 23.2227 16.2583 23.8061 15.925C24.4061 15.5917 24.8977 15.1667 25.2811 14.65C25.2977 14.6333 25.3061 14.625 25.3061 14.625C25.4227 14.4917 25.5394 14.425 25.6561 14.425C25.8561 14.425 25.9894 14.5 26.0561 14.65C26.1394 14.8 26.1477 14.95 26.0811 15.1C25.8477 15.6833 25.4977 16.2167 25.0311 16.7C24.5811 17.1667 24.0061 17.55 23.3061 17.85C22.6227 18.1333 21.8394 18.275 20.9561 18.275ZM22.5811 10.5C22.8811 10.45 23.0894 10.375 23.2061 10.275C23.3227 10.1583 23.3811 10 23.3811 9.8C23.3811 9.38333 23.2644 8.96667 23.0311 8.55C22.8144 8.13333 22.4977 7.79167 22.0811 7.525C21.6811 7.24167 21.2061 7.1 20.6561 7.1C20.1561 7.1 19.6894 7.24167 19.2561 7.525C18.8227 7.80833 18.4727 8.20833 18.2061 8.725C17.9394 9.24167 17.8061 9.83333 17.8061 10.5C17.8061 10.8333 17.8477 11.0417 17.9311 11.125C18.0144 11.1917 18.1561 11.2083 18.3561 11.175L22.5811 10.5ZM36.2748 18.225C36.2081 18.225 36.0081 18.2 35.6748 18.15C34.8915 18.05 34.1915 18 33.5748 18H27.7498C27.4998 18 27.3081 17.9583 27.1748 17.875C27.0581 17.775 26.9998 17.65 26.9998 17.5C26.9998 17.4 27.0248 17.275 27.0748 17.125C27.1415 16.975 27.2248 16.8417 27.3248 16.725L34.0498 7.825C34.1165 7.725 34.1331 7.63333 34.0998 7.55C34.0831 7.45 34.0165 7.4 33.8998 7.4H30.1498C29.8831 7.4 29.6748 7.45 29.5248 7.55C29.3915 7.63333 29.2665 7.80833 29.1498 8.075C29.0331 8.34167 28.8915 8.79167 28.7248 9.425C28.6248 9.69167 28.5081 9.88333 28.3748 10C28.2581 10.1 28.0998 10.15 27.8998 10.15C27.7331 10.15 27.5998 10.1 27.4998 10C27.4165 9.9 27.3748 9.68333 27.3748 9.35C27.3748 9.01667 27.4415 8.55 27.5748 7.95C27.7081 7.35 27.8165 6.9 27.8998 6.6C27.9998 6.28333 28.0998 6.08333 28.1998 6C28.2998 5.9 28.4498 5.85 28.6498 5.85C28.7498 5.85 28.9248 5.875 29.1748 5.925C29.8915 6.04167 30.6331 6.1 31.3998 6.1H37.1998C37.4165 6.1 37.5665 6.15 37.6498 6.25C37.7498 6.33333 37.7998 6.43333 37.7998 6.55C37.7998 6.71667 37.7081 6.94167 37.5248 7.225L30.7748 16.25C30.6915 16.3667 30.6581 16.4667 30.6748 16.55C30.7081 16.6333 30.7998 16.675 30.9498 16.675H34.7748C35.0581 16.675 35.2748 16.625 35.4248 16.525C35.5915 16.425 35.7331 16.2333 35.8498 15.95C35.9665 15.65 36.1248 15.1333 36.3248 14.4C36.4248 14.1667 36.5331 14 36.6498 13.9C36.7831 13.7833 36.9498 13.725 37.1498 13.725C37.2998 13.725 37.4165 13.775 37.4998 13.875C37.5998 13.975 37.6498 14.2 37.6498 14.55C37.6498 14.9 37.5748 15.3917 37.4248 16.025C37.2748 16.675 37.1498 17.1583 37.0498 17.475C36.9498 17.7917 36.8415 17.9917 36.7248 18.075C36.6248 18.175 36.4748 18.225 36.2748 18.225ZM45.3574 18.275C44.1074 18.275 42.9991 18.0083 42.0324 17.475C41.0658 16.9417 40.3074 16.2 39.7574 15.25C39.2241 14.3 38.9574 13.2333 38.9574 12.05C38.9574 10.85 39.2241 9.775 39.7574 8.825C40.3074 7.875 41.0658 7.13333 42.0324 6.6C42.9991 6.06667 44.1074 5.8 45.3574 5.8C46.5908 5.8 47.6908 6.06667 48.6574 6.6C49.6241 7.13333 50.3741 7.875 50.9074 8.825C51.4408 9.775 51.7074 10.85 51.7074 12.05C51.7074 13.25 51.4408 14.325 50.9074 15.275C50.3741 16.225 49.6241 16.9667 48.6574 17.5C47.6908 18.0167 46.5908 18.275 45.3574 18.275ZM45.5824 16.975C46.2158 16.975 46.7741 16.8167 47.2574 16.5C47.7574 16.1833 48.1408 15.725 48.4074 15.125C48.6908 14.525 48.8324 13.825 48.8324 13.025C48.8324 12.0917 48.6741 11.1667 48.3574 10.25C48.0574 9.33333 47.6241 8.58333 47.0574 8C46.4908 7.41667 45.8324 7.125 45.0824 7.125C44.4491 7.125 43.8824 7.29167 43.3824 7.625C42.8991 7.94167 42.5158 8.4 42.2324 9C41.9658 9.58333 41.8324 10.275 41.8324 11.075C41.8324 12.025 41.9824 12.9583 42.2824 13.875C42.5991 14.775 43.0408 15.5167 43.6074 16.1C44.1741 16.6833 44.8324 16.975 45.5824 16.975ZM57.7664 18C57.2664 18 56.9081 17.9583 56.6914 17.875C56.4914 17.7917 56.3914 17.625 56.3914 17.375C56.3914 17.2417 56.4581 17.1167 56.5914 17C56.7247 16.8833 56.9164 16.775 57.1664 16.675C57.8164 16.525 58.2664 16.375 58.5164 16.225C58.7831 16.075 58.9581 15.8833 59.0414 15.65C59.1247 15.4 59.1664 15.0417 59.1664 14.575V3.125C59.1664 2.775 59.1414 2.51667 59.0914 2.35C59.0414 2.18333 58.9497 2.05833 58.8164 1.975C58.6997 1.89167 58.5164 1.85 58.2664 1.85H56.8164C56.4497 1.85 56.1581 1.93333 55.9414 2.1C55.7414 2.26667 55.5581 2.54167 55.3914 2.925C55.2414 3.30833 55.0164 3.98333 54.7164 4.95L54.6414 5.175C54.4581 5.625 54.2831 5.95 54.1164 6.15C53.9664 6.33333 53.7664 6.425 53.5164 6.425C53.1997 6.425 52.9997 6.29167 52.9164 6.025C52.8331 5.75833 52.8414 5.35833 52.9414 4.825C53.0581 4.275 53.2331 3.6 53.4664 2.8C53.6331 2.16667 53.7997 1.63333 53.9664 1.2C54.1331 0.766666 54.2831 0.466666 54.4164 0.3C54.5664 0.116666 54.7247 0.024999 54.8914 0.024999C54.9914 0.024999 55.0914 0.0416659 55.1914 0.0749998C55.3081 0.108333 55.4081 0.141666 55.4914 0.174999C55.6914 0.274999 55.8831 0.358333 56.0664 0.425C56.2664 0.474999 56.5331 0.499999 56.8664 0.499999H64.2414C64.6247 0.499999 64.9164 0.474999 65.1164 0.425C65.3331 0.358333 65.5497 0.274999 65.7664 0.174999C65.9831 0.0749988 66.1664 0.024999 66.3164 0.024999C66.4831 0.024999 66.6247 0.0916658 66.7414 0.224999C66.8747 0.358333 67.0164 0.641666 67.1664 1.075C67.3331 1.49167 67.5164 2.06667 67.7164 2.8C67.9664 3.65 68.1497 4.34167 68.2664 4.875C68.3831 5.40833 68.3997 5.8 68.3164 6.05C68.2331 6.3 68.0331 6.425 67.7164 6.425C67.4831 6.425 67.2747 6.33333 67.0914 6.15C66.9247 5.95 66.7497 5.625 66.5664 5.175L66.4664 4.825C66.1831 3.925 65.9581 3.28333 65.7914 2.9C65.6414 2.51667 65.4664 2.25 65.2664 2.1C65.0664 1.93333 64.7997 1.85 64.4664 1.85H62.9914C62.7247 1.85 62.5247 1.89167 62.3914 1.975C62.2581 2.05833 62.1664 2.18333 62.1164 2.35C62.0831 2.5 62.0664 2.75833 62.0664 3.125V14.475C62.0664 15.0083 62.1081 15.4 62.1914 15.65C62.2747 15.9 62.4414 16.1 62.6914 16.25C62.9414 16.3833 63.3997 16.525 64.0664 16.675C64.3331 16.7917 64.5247 16.9 64.6414 17C64.7747 17.1 64.8414 17.2333 64.8414 17.4C64.8414 17.6 64.7497 17.7583 64.5664 17.875C64.3831 17.975 64.0581 18.025 63.5914 18.025C63.0247 18.025 62.4831 18.025 61.9664 18.025C61.4664 18.025 60.9831 18.0167 60.5164 18C60.0664 18 59.6164 18 59.1664 18C58.7164 18 58.2497 18 57.7664 18ZM71.2988 18.125C70.7988 18.125 70.4155 18.1 70.1488 18.05C69.8822 18 69.6905 17.925 69.5738 17.825C69.4738 17.725 69.4238 17.6 69.4238 17.45C69.4238 17.2 69.5738 17.0167 69.8738 16.9C70.3238 16.8 70.6405 16.675 70.8238 16.525C71.0072 16.3583 71.1155 16.1583 71.1488 15.925C71.1988 15.6917 71.2238 15.3167 71.2238 14.8V8.875C71.2238 8.525 71.1822 8.26667 71.0988 8.1C71.0322 7.93333 70.8572 7.84167 70.5738 7.825C70.4738 7.825 70.2738 7.83333 69.9738 7.85C69.7238 7.86667 69.5405 7.85 69.4238 7.8C69.3238 7.73333 69.2738 7.625 69.2738 7.475C69.2572 7.29167 69.3155 7.15 69.4488 7.05C69.5988 6.93333 69.8155 6.825 70.0988 6.725C70.4322 6.625 70.7655 6.51667 71.0988 6.4C71.4322 6.28333 71.7488 6.19167 72.0488 6.125C72.5322 5.99167 72.8988 5.925 73.1488 5.925C73.4322 5.925 73.6322 5.98333 73.7488 6.1C73.8822 6.2 73.9488 6.39167 73.9488 6.675V14.775C73.9488 15.2917 73.9738 15.675 74.0238 15.925C74.0738 16.1583 74.1905 16.35 74.3738 16.5C74.5572 16.65 74.8738 16.7833 75.3238 16.9C75.4738 16.95 75.5905 17.025 75.6738 17.125C75.7572 17.2083 75.7988 17.3167 75.7988 17.45C75.7988 17.6 75.7488 17.725 75.6488 17.825C75.5655 17.925 75.3905 18 75.1238 18.05C74.8572 18.1 74.4738 18.125 73.9738 18.125C73.5238 18.1083 73.0738 18.1 72.6238 18.1C72.1905 18.1 71.7488 18.1083 71.2988 18.125ZM72.2238 4.075C71.6405 4.075 71.1738 3.94167 70.8238 3.675C70.4738 3.40833 70.2988 3.05833 70.2988 2.625C70.2988 2.20833 70.4738 1.875 70.8238 1.625C71.1738 1.35833 71.6405 1.225 72.2238 1.225C72.7572 1.225 73.1988 1.35833 73.5488 1.625C73.8988 1.875 74.0738 2.20833 74.0738 2.625C74.0738 3.05833 73.8988 3.40833 73.5488 3.675C73.2155 3.94167 72.7738 4.075 72.2238 4.075ZM77.6963 18.075C77.3463 18.075 77.0713 18.0333 76.8713 17.95C76.688 17.85 76.5963 17.6917 76.5963 17.475C76.5963 17.325 76.6463 17.2167 76.7463 17.15C76.863 17.0667 77.013 16.9833 77.1963 16.9C77.4796 16.8667 77.7046 16.8083 77.8713 16.725C78.038 16.6417 78.2046 16.5083 78.3713 16.325C78.5546 16.125 78.7713 15.8583 79.0213 15.525L81.4213 12.275C81.538 12.125 81.5963 11.9667 81.5963 11.8C81.613 11.6167 81.563 11.45 81.4463 11.3L79.2963 8.275L79.1463 8.05C78.9963 7.85 78.8713 7.70833 78.7713 7.625C78.688 7.525 78.563 7.45 78.3963 7.4C78.2463 7.35 78.038 7.31667 77.7713 7.3C77.5713 7.23333 77.4296 7.15833 77.3463 7.075C77.263 6.975 77.2213 6.83333 77.2213 6.65C77.2213 6.41667 77.3046 6.25833 77.4713 6.175C77.6546 6.075 77.9296 6.025 78.2963 6.025C78.8963 6.04167 79.5713 6.05 80.3213 6.05C81.088 6.05 81.813 6.04167 82.4963 6.025C82.8296 6.025 83.088 6.06667 83.2713 6.15C83.4546 6.23333 83.5463 6.38333 83.5463 6.6C83.5463 6.71667 83.5046 6.825 83.4213 6.925C83.338 7.00833 83.238 7.075 83.1213 7.125C82.7713 7.15833 82.538 7.225 82.4213 7.325C82.3213 7.425 82.2963 7.55 82.3463 7.7C82.413 7.83333 82.538 8.03333 82.7213 8.3L84.0463 10.15C84.113 10.25 84.188 10.3083 84.2713 10.325C84.3546 10.325 84.4213 10.275 84.4713 10.175L86.0213 7.975C86.2046 7.70833 86.2546 7.50833 86.1713 7.375C86.1046 7.24167 85.8463 7.15 85.3963 7.1C85.2796 7.05 85.1796 6.98333 85.0963 6.9C85.0296 6.81667 84.9963 6.71667 84.9963 6.6C84.9963 6.36667 85.0796 6.20833 85.2463 6.125C85.413 6.04167 85.6796 6 86.0463 6C86.513 6.01667 86.9963 6.03333 87.4963 6.05C88.013 6.05 88.4546 6.03333 88.8213 6C89.1546 6 89.3963 6.05 89.5463 6.15C89.713 6.25 89.7963 6.4 89.7963 6.6C89.7963 6.75 89.7463 6.86667 89.6463 6.95C89.5463 7.03333 89.4046 7.10833 89.2213 7.175C88.9046 7.225 88.6296 7.31667 88.3963 7.45C88.163 7.58333 87.9463 7.78333 87.7463 8.05L85.4463 11.2C85.3463 11.3333 85.2963 11.4833 85.2963 11.65C85.2963 11.8 85.3463 11.95 85.4463 12.1L87.9713 15.65C88.2046 15.9833 88.388 16.225 88.5213 16.375C88.6713 16.5083 88.813 16.6 88.9463 16.65C89.0963 16.7 89.3046 16.75 89.5713 16.8C89.738 16.85 89.8546 16.925 89.9213 17.025C90.0046 17.125 90.0463 17.2583 90.0463 17.425C90.0463 17.6583 89.938 17.825 89.7213 17.925C89.5213 18.025 89.1296 18.075 88.5463 18.075C87.9796 18.0583 87.4046 18.05 86.8213 18.05C86.238 18.05 85.6546 18.0583 85.0713 18.075C84.6213 18.075 84.288 18.025 84.0713 17.925C83.8546 17.825 83.7463 17.675 83.7463 17.475C83.7463 17.325 83.7713 17.2167 83.8213 17.15C83.888 17.0833 83.9796 17.025 84.0963 16.975C84.463 16.925 84.7046 16.8583 84.8213 16.775C84.9546 16.675 85.0046 16.5583 84.9713 16.425C84.938 16.2917 84.838 16.1083 84.6713 15.875L82.8463 13.325C82.763 13.1917 82.6713 13.1417 82.5713 13.175C82.488 13.1917 82.3963 13.2667 82.2963 13.4L80.3963 16.025C80.163 16.3583 80.088 16.5917 80.1713 16.725C80.2546 16.8417 80.4963 16.925 80.8963 16.975C80.8963 16.975 80.9046 16.9833 80.9213 17C80.938 17 80.9546 17 80.9713 17C81.1046 17.05 81.2046 17.1167 81.2713 17.2C81.3546 17.2833 81.3963 17.3833 81.3963 17.5C81.3963 17.7 81.3046 17.85 81.1213 17.95C80.938 18.0333 80.688 18.075 80.3713 18.075C79.9713 18.0583 79.5546 18.05 79.1213 18.05C78.688 18.05 78.213 18.0583 77.6963 18.075Z" fill="white"/>
<path d="M6.07 35H5.37L1.5 29.12V35H0.8V28.01H1.5L5.37 33.88V28.01H6.07V35ZM12.4355 28.01V28.59H9.35547V31.2H11.9555V31.78H9.35547V35H8.65547V28.01H12.4355ZM18.6771 28.01V28.59H16.7371V35H16.0371V28.59H14.0871V28.01H18.6771ZM31.0266 29.44C31.6666 29.44 32.1866 29.6433 32.5866 30.05C32.9932 30.45 33.1966 31.0333 33.1966 31.8V35H32.5066V31.88C32.5066 31.2867 32.3632 30.8333 32.0766 30.52C31.7899 30.2067 31.3999 30.05 30.9066 30.05C30.3932 30.05 29.9832 30.22 29.6766 30.56C29.3699 30.9 29.2166 31.3933 29.2166 32.04V35H28.5266V31.88C28.5266 31.2867 28.3832 30.8333 28.0966 30.52C27.8099 30.2067 27.4166 30.05 26.9166 30.05C26.4032 30.05 25.9932 30.22 25.6866 30.56C25.3799 30.9 25.2266 31.3933 25.2266 32.04V35H24.5266V29.54H25.2266V30.48C25.3999 30.14 25.6466 29.8833 25.9666 29.71C26.2866 29.53 26.6432 29.44 27.0366 29.44C27.5099 29.44 27.9232 29.5533 28.2766 29.78C28.6366 30.0067 28.8966 30.34 29.0566 30.78C29.2032 30.3467 29.4532 30.0167 29.8066 29.79C30.1666 29.5567 30.5732 29.44 31.0266 29.44ZM38.1412 35.08C37.6278 35.08 37.1645 34.9667 36.7512 34.74C36.3445 34.5067 36.0212 34.18 35.7812 33.76C35.5478 33.3333 35.4312 32.8367 35.4312 32.27C35.4312 31.7033 35.5512 31.21 35.7912 30.79C36.0312 30.3633 36.3578 30.0367 36.7712 29.81C37.1845 29.5767 37.6478 29.46 38.1612 29.46C38.6745 29.46 39.1378 29.5767 39.5512 29.81C39.9712 30.0367 40.2978 30.3633 40.5312 30.79C40.7712 31.21 40.8912 31.7033 40.8912 32.27C40.8912 32.83 40.7712 33.3233 40.5312 33.75C40.2912 34.1767 39.9612 34.5067 39.5412 34.74C39.1212 34.9667 38.6545 35.08 38.1412 35.08ZM38.1412 34.47C38.5012 34.47 38.8345 34.39 39.1412 34.23C39.4478 34.0633 39.6945 33.8167 39.8812 33.49C40.0745 33.1567 40.1712 32.75 40.1712 32.27C40.1712 31.79 40.0778 31.3867 39.8912 31.06C39.7045 30.7267 39.4578 30.48 39.1512 30.32C38.8445 30.1533 38.5112 30.07 38.1512 30.07C37.7912 30.07 37.4578 30.1533 37.1512 30.32C36.8445 30.48 36.5978 30.7267 36.4112 31.06C36.2312 31.3867 36.1412 31.79 36.1412 32.27C36.1412 32.75 36.2312 33.1567 36.4112 33.49C36.5978 33.8167 36.8412 34.0633 37.1412 34.23C37.4478 34.39 37.7812 34.47 38.1412 34.47ZM45.1072 34.32L46.9472 29.54H47.6872L45.4972 35H44.7072L42.5172 29.54H43.2672L45.1072 34.32ZM49.9859 28.51C49.8459 28.51 49.7259 28.46 49.6259 28.36C49.5259 28.26 49.4759 28.1367 49.4759 27.99C49.4759 27.8433 49.5259 27.7233 49.6259 27.63C49.7259 27.53 49.8459 27.48 49.9859 27.48C50.1259 27.48 50.2459 27.53 50.3459 27.63C50.4459 27.7233 50.4959 27.8433 50.4959 27.99C50.4959 28.1367 50.4459 28.26 50.3459 28.36C50.2459 28.46 50.1259 28.51 49.9859 28.51ZM50.3359 29.54V35H49.6359V29.54H50.3359ZM57.8611 31.99C57.8611 32.23 57.8544 32.4133 57.8411 32.54H53.3111C53.3311 32.9533 53.4311 33.3067 53.6111 33.6C53.7911 33.8933 54.0278 34.1167 54.3211 34.27C54.6144 34.4167 54.9344 34.49 55.2811 34.49C55.7344 34.49 56.1144 34.38 56.4211 34.16C56.7344 33.94 56.9411 33.6433 57.0411 33.27H57.7811C57.6478 33.8033 57.3611 34.24 56.9211 34.58C56.4878 34.9133 55.9411 35.08 55.2811 35.08C54.7678 35.08 54.3078 34.9667 53.9011 34.74C53.4944 34.5067 53.1744 34.18 52.9411 33.76C52.7144 33.3333 52.6011 32.8367 52.6011 32.27C52.6011 31.7033 52.7144 31.2067 52.9411 30.78C53.1678 30.3533 53.4844 30.0267 53.8911 29.8C54.2978 29.5733 54.7611 29.46 55.2811 29.46C55.8011 29.46 56.2544 29.5733 56.6411 29.8C57.0344 30.0267 57.3344 30.3333 57.5411 30.72C57.7544 31.1 57.8611 31.5233 57.8611 31.99ZM57.1511 31.97C57.1578 31.5633 57.0744 31.2167 56.9011 30.93C56.7344 30.6433 56.5044 30.4267 56.2111 30.28C55.9178 30.1333 55.5978 30.06 55.2511 30.06C54.7311 30.06 54.2878 30.2267 53.9211 30.56C53.5544 30.8933 53.3511 31.3633 53.3111 31.97H57.1511ZM64.7959 30.13V33.52C64.7959 33.8533 64.8593 34.0833 64.9859 34.21C65.1126 34.3367 65.3359 34.4 65.6559 34.4H66.2959V35H65.5459C65.0526 35 64.6859 34.8867 64.4459 34.66C64.2059 34.4267 64.0859 34.0467 64.0859 33.52V30.13H63.3259V29.54H64.0859V28.17H64.7959V29.54H66.2959V30.13H64.7959ZM68.8004 28.51C68.6604 28.51 68.5404 28.46 68.4404 28.36C68.3404 28.26 68.2904 28.1367 68.2904 27.99C68.2904 27.8433 68.3404 27.7233 68.4404 27.63C68.5404 27.53 68.6604 27.48 68.8004 27.48C68.9404 27.48 69.0604 27.53 69.1604 27.63C69.2604 27.7233 69.3104 27.8433 69.3104 27.99C69.3104 28.1367 69.2604 28.26 69.1604 28.36C69.0604 28.46 68.9404 28.51 68.8004 28.51ZM69.1504 29.54V35H68.4504V29.54H69.1504ZM71.4155 32.27C71.4155 31.7033 71.5289 31.21 71.7555 30.79C71.9822 30.3633 72.2955 30.0367 72.6955 29.81C73.0955 29.5767 73.5522 29.46 74.0655 29.46C74.7389 29.46 75.2922 29.6267 75.7255 29.96C76.1655 30.2933 76.4489 30.7467 76.5755 31.32H75.8255C75.7322 30.9267 75.5289 30.62 75.2155 30.4C74.9089 30.1733 74.5255 30.06 74.0655 30.06C73.6989 30.06 73.3689 30.1433 73.0755 30.31C72.7822 30.4767 72.5489 30.7267 72.3755 31.06C72.2089 31.3867 72.1255 31.79 72.1255 32.27C72.1255 32.75 72.2089 33.1567 72.3755 33.49C72.5489 33.8233 72.7822 34.0733 73.0755 34.24C73.3689 34.4067 73.6989 34.49 74.0655 34.49C74.5255 34.49 74.9089 34.38 75.2155 34.16C75.5289 33.9333 75.7322 33.62 75.8255 33.22H76.5755C76.4489 33.78 76.1655 34.23 75.7255 34.57C75.2855 34.91 74.7322 35.08 74.0655 35.08C73.5522 35.08 73.0955 34.9667 72.6955 34.74C72.2955 34.5067 71.9822 34.18 71.7555 33.76C71.5289 33.3333 71.4155 32.8367 71.4155 32.27ZM81.8184 35L79.5684 32.55V35H78.8684V27.6H79.5684V31.98L81.7684 29.54H82.7484L80.1584 32.26L82.7684 35H81.8184ZM89.613 31.99C89.613 32.23 89.6064 32.4133 89.593 32.54H85.063C85.083 32.9533 85.183 33.3067 85.363 33.6C85.543 33.8933 85.7797 34.1167 86.073 34.27C86.3664 34.4167 86.6864 34.49 87.033 34.49C87.4864 34.49 87.8664 34.38 88.173 34.16C88.4864 33.94 88.693 33.6433 88.793 33.27H89.533C89.3997 33.8033 89.113 34.24 88.673 34.58C88.2397 34.9133 87.693 35.08 87.033 35.08C86.5197 35.08 86.0597 34.9667 85.653 34.74C85.2464 34.5067 84.9264 34.18 84.693 33.76C84.4664 33.3333 84.353 32.8367 84.353 32.27C84.353 31.7033 84.4664 31.2067 84.693 30.78C84.9197 30.3533 85.2364 30.0267 85.643 29.8C86.0497 29.5733 86.513 29.46 87.033 29.46C87.553 29.46 88.0064 29.5733 88.393 29.8C88.7864 30.0267 89.0864 30.3333 89.293 30.72C89.5064 31.1 89.613 31.5233 89.613 31.99ZM88.903 31.97C88.9097 31.5633 88.8264 31.2167 88.653 30.93C88.4864 30.6433 88.2564 30.4267 87.963 30.28C87.6697 30.1333 87.3497 30.06 87.003 30.06C86.483 30.06 86.0397 30.2267 85.673 30.56C85.3064 30.8933 85.103 31.3633 85.063 31.97H88.903ZM92.8038 30.13V33.52C92.8038 33.8533 92.8671 34.0833 92.9938 34.21C93.1204 34.3367 93.3438 34.4 93.6637 34.4H94.3038V35H93.5538C93.0604 35 92.6938 34.8867 92.4538 34.66C92.2138 34.4267 92.0938 34.0467 92.0938 33.52V30.13H91.3338V29.54H92.0938V28.17H92.8038V29.54H94.3038V30.13H92.8038ZM96.8082 28.51C96.6682 28.51 96.5482 28.46 96.4482 28.36C96.3482 28.26 96.2982 28.1367 96.2982 27.99C96.2982 27.8433 96.3482 27.7233 96.4482 27.63C96.5482 27.53 96.6682 27.48 96.8082 27.48C96.9482 27.48 97.0682 27.53 97.1682 27.63C97.2682 27.7233 97.3182 27.8433 97.3182 27.99C97.3182 28.1367 97.2682 28.26 97.1682 28.36C97.0682 28.46 96.9482 28.51 96.8082 28.51ZM97.1582 29.54V35H96.4582V29.54H97.1582ZM102.303 29.44C102.957 29.44 103.49 29.6433 103.903 30.05C104.317 30.45 104.523 31.0333 104.523 31.8V35H103.833V31.88C103.833 31.2867 103.683 30.8333 103.383 30.52C103.09 30.2067 102.687 30.05 102.173 30.05C101.647 30.05 101.227 30.2167 100.913 30.55C100.6 30.8833 100.443 31.3733 100.443 32.02V35H99.7434V29.54H100.443V30.47C100.617 30.1367 100.867 29.8833 101.193 29.71C101.52 29.53 101.89 29.44 102.303 29.44ZM109.361 29.46C109.875 29.46 110.321 29.58 110.701 29.82C111.081 30.06 111.355 30.3633 111.521 30.73V29.54H112.221V35.14C112.221 35.64 112.111 36.0833 111.891 36.47C111.678 36.8567 111.378 37.1533 110.991 37.36C110.605 37.5733 110.165 37.68 109.671 37.68C108.971 37.68 108.388 37.5133 107.921 37.18C107.461 36.8467 107.175 36.3933 107.061 35.82H107.751C107.871 36.2 108.098 36.5033 108.431 36.73C108.771 36.9567 109.185 37.07 109.671 37.07C110.025 37.07 110.341 36.9933 110.621 36.84C110.901 36.6933 111.121 36.4733 111.281 36.18C111.441 35.8867 111.521 35.54 111.521 35.14V33.79C111.348 34.1633 111.071 34.4733 110.691 34.72C110.318 34.96 109.875 35.08 109.361 35.08C108.861 35.08 108.411 34.9633 108.011 34.73C107.618 34.4967 107.308 34.1667 107.081 33.74C106.861 33.3133 106.751 32.82 106.751 32.26C106.751 31.7 106.861 31.21 107.081 30.79C107.308 30.3633 107.618 30.0367 108.011 29.81C108.411 29.5767 108.861 29.46 109.361 29.46ZM111.521 32.27C111.521 31.83 111.431 31.4433 111.251 31.11C111.071 30.7767 110.825 30.52 110.511 30.34C110.205 30.16 109.865 30.07 109.491 30.07C109.105 30.07 108.758 30.1567 108.451 30.33C108.145 30.5033 107.901 30.7567 107.721 31.09C107.548 31.4167 107.461 31.8067 107.461 32.26C107.461 32.7067 107.548 33.1 107.721 33.44C107.901 33.7733 108.145 34.03 108.451 34.21C108.758 34.3833 109.105 34.47 109.491 34.47C109.865 34.47 110.205 34.38 110.511 34.2C110.825 34.02 111.071 33.7633 111.251 33.43C111.431 33.0967 111.521 32.71 111.521 32.27ZM120.444 35.08C119.817 35.08 119.304 34.9367 118.904 34.65C118.51 34.3567 118.29 33.96 118.244 33.46H118.964C118.997 33.7667 119.14 34.0167 119.394 34.21C119.654 34.3967 120 34.49 120.434 34.49C120.814 34.49 121.11 34.4 121.324 34.22C121.544 34.04 121.654 33.8167 121.654 33.55C121.654 33.3633 121.594 33.21 121.474 33.09C121.354 32.97 121.2 32.8767 121.014 32.81C120.834 32.7367 120.587 32.66 120.274 32.58C119.867 32.4733 119.537 32.3667 119.284 32.26C119.03 32.1533 118.814 31.9967 118.634 31.79C118.46 31.5767 118.374 31.2933 118.374 30.94C118.374 30.6733 118.454 30.4267 118.614 30.2C118.774 29.9733 119 29.7933 119.294 29.66C119.587 29.5267 119.92 29.46 120.294 29.46C120.88 29.46 121.354 29.61 121.714 29.91C122.074 30.2033 122.267 30.61 122.294 31.13H121.594C121.574 30.81 121.447 30.5533 121.214 30.36C120.987 30.16 120.674 30.06 120.274 30.06C119.92 30.06 119.634 30.1433 119.414 30.31C119.194 30.4767 119.084 30.6833 119.084 30.93C119.084 31.1433 119.147 31.32 119.274 31.46C119.407 31.5933 119.57 31.7 119.764 31.78C119.957 31.8533 120.217 31.9367 120.544 32.03C120.937 32.1367 121.25 32.24 121.484 32.34C121.717 32.44 121.917 32.5867 122.084 32.78C122.25 32.9733 122.337 33.23 122.344 33.55C122.344 33.8433 122.264 34.1067 122.104 34.34C121.944 34.5667 121.72 34.7467 121.434 34.88C121.147 35.0133 120.817 35.08 120.444 35.08ZM127.051 35.08C126.538 35.08 126.075 34.9667 125.661 34.74C125.255 34.5067 124.931 34.18 124.691 33.76C124.458 33.3333 124.341 32.8367 124.341 32.27C124.341 31.7033 124.461 31.21 124.701 30.79C124.941 30.3633 125.268 30.0367 125.681 29.81C126.095 29.5767 126.558 29.46 127.071 29.46C127.585 29.46 128.048 29.5767 128.461 29.81C128.881 30.0367 129.208 30.3633 129.441 30.79C129.681 31.21 129.801 31.7033 129.801 32.27C129.801 32.83 129.681 33.3233 129.441 33.75C129.201 34.1767 128.871 34.5067 128.451 34.74C128.031 34.9667 127.565 35.08 127.051 35.08ZM127.051 34.47C127.411 34.47 127.745 34.39 128.051 34.23C128.358 34.0633 128.605 33.8167 128.791 33.49C128.985 33.1567 129.081 32.75 129.081 32.27C129.081 31.79 128.988 31.3867 128.801 31.06C128.615 30.7267 128.368 30.48 128.061 30.32C127.755 30.1533 127.421 30.07 127.061 30.07C126.701 30.07 126.368 30.1533 126.061 30.32C125.755 30.48 125.508 30.7267 125.321 31.06C125.141 31.3867 125.051 31.79 125.051 32.27C125.051 32.75 125.141 33.1567 125.321 33.49C125.508 33.8167 125.751 34.0633 126.051 34.23C126.358 34.39 126.691 34.47 127.051 34.47ZM132.777 27.6V35H132.077V27.6H132.777ZM140.093 29.54V35H139.393V34.04C139.233 34.38 138.986 34.64 138.653 34.82C138.319 35 137.946 35.09 137.533 35.09C136.879 35.09 136.346 34.89 135.933 34.49C135.519 34.0833 135.313 33.4967 135.313 32.73V29.54H136.003V32.65C136.003 33.2433 136.149 33.6967 136.443 34.01C136.743 34.3233 137.149 34.48 137.663 34.48C138.189 34.48 138.609 34.3133 138.923 33.98C139.236 33.6467 139.393 33.1567 139.393 32.51V29.54H140.093ZM143.601 30.13V33.52C143.601 33.8533 143.664 34.0833 143.791 34.21C143.917 34.3367 144.141 34.4 144.461 34.4H145.101V35H144.351C143.857 35 143.491 34.8867 143.251 34.66C143.011 34.4267 142.891 34.0467 142.891 33.52V30.13H142.131V29.54H142.891V28.17H143.601V29.54H145.101V30.13H143.601ZM147.605 28.51C147.465 28.51 147.345 28.46 147.245 28.36C147.145 28.26 147.095 28.1367 147.095 27.99C147.095 27.8433 147.145 27.7233 147.245 27.63C147.345 27.53 147.465 27.48 147.605 27.48C147.745 27.48 147.865 27.53 147.965 27.63C148.065 27.7233 148.115 27.8433 148.115 27.99C148.115 28.1367 148.065 28.26 147.965 28.36C147.865 28.46 147.745 28.51 147.605 28.51ZM147.955 29.54V35H147.255V29.54H147.955ZM152.93 35.08C152.417 35.08 151.954 34.9667 151.54 34.74C151.134 34.5067 150.81 34.18 150.57 33.76C150.337 33.3333 150.22 32.8367 150.22 32.27C150.22 31.7033 150.34 31.21 150.58 30.79C150.82 30.3633 151.147 30.0367 151.56 29.81C151.974 29.5767 152.437 29.46 152.95 29.46C153.464 29.46 153.927 29.5767 154.34 29.81C154.76 30.0367 155.087 30.3633 155.32 30.79C155.56 31.21 155.68 31.7033 155.68 32.27C155.68 32.83 155.56 33.3233 155.32 33.75C155.08 34.1767 154.75 34.5067 154.33 34.74C153.91 34.9667 153.444 35.08 152.93 35.08ZM152.93 34.47C153.29 34.47 153.624 34.39 153.93 34.23C154.237 34.0633 154.484 33.8167 154.67 33.49C154.864 33.1567 154.96 32.75 154.96 32.27C154.96 31.79 154.867 31.3867 154.68 31.06C154.494 30.7267 154.247 30.48 153.94 30.32C153.634 30.1533 153.3 30.07 152.94 30.07C152.58 30.07 152.247 30.1533 151.94 30.32C151.634 30.48 151.387 30.7267 151.2 31.06C151.02 31.3867 150.93 31.79 150.93 32.27C150.93 32.75 151.02 33.1567 151.2 33.49C151.387 33.8167 151.63 34.0633 151.93 34.23C152.237 34.39 152.57 34.47 152.93 34.47ZM160.516 29.44C161.17 29.44 161.703 29.6433 162.116 30.05C162.53 30.45 162.736 31.0333 162.736 31.8V35H162.046V31.88C162.046 31.2867 161.896 30.8333 161.596 30.52C161.303 30.2067 160.9 30.05 160.386 30.05C159.86 30.05 159.44 30.2167 159.126 30.55C158.813 30.8833 158.656 31.3733 158.656 32.02V35H157.956V29.54H158.656V30.47C158.83 30.1367 159.08 29.8833 159.406 29.71C159.733 29.53 160.103 29.44 160.516 29.44Z" fill="white"/>
</svg>
